<svg width="216" height="325" viewBox="0 0 216 325" fill="none" xmlns="http://www.w3.org/2000/svg">
<path d="M127.006 67.0873C177.312 142.203 214.62 226.034 236.809 315.45L240.133 314.486C218.067 226.952 180.998 143.266 130.772 68.2268C119.1 50.7869 106.457 30.0757 85.1433 23.6176C84.7286 23.4953 84.5909 24.1197 84.9798 24.2557C104.47 31.1439 116.083 50.777 127.006 67.0873Z" fill="#42A6A0"/>
<path d="M225.128 318.845C169.14 245.9 101.515 178.803 21.5549 120.897C20.7578 120.318 19.7265 121.713 20.5304 122.305C96.3784 178.162 163.839 244.589 221.004 320.042L225.128 318.845Z" fill="#42A6A0"/>
<path d="M121.58 19.9692C120.362 21.8394 115.661 26.7521 114.378 33.1059C112.605 39.1426 114.257 46.6203 114.415 46.3553C114.778 46.4984 108.756 41.6166 106.748 33.6947C104.197 26.1112 105.653 15.481 108.563 11.9139C113.541 3.87441 122.511 2.88501 124.337 6.69493C126.26 10.4767 124.012 15.7183 121.58 19.9692Z" fill="#42A6A0"/>
<path d="M111.316 88.159C113.108 86.8331 117.73 81.8371 123.99 80.1706C129.907 78.0335 137.47 79.2258 137.218 79.4011C137.382 79.7576 132.141 74.0419 124.114 72.5123C116.389 70.4269 105.871 72.5278 102.481 75.6467C94.7607 81.1057 94.3179 90.1184 98.2308 91.7065C102.12 93.4062 107.223 90.8475 111.316 88.159Z" fill="#42A6A0"/>
<path d="M129.523 117.576C131.315 116.25 135.93 111.254 142.197 109.588C148.114 107.451 155.676 108.643 155.425 108.818C155.589 109.175 150.348 103.459 142.321 101.929C134.596 99.844 124.078 101.945 120.687 105.064C112.967 110.523 112.525 119.536 116.438 121.124C120.333 122.823 125.43 120.265 129.523 117.576Z" fill="#42A6A0"/>
<path d="M68.1813 187.942C69.9731 186.617 74.588 181.621 80.855 179.954C86.772 177.817 94.3344 179.009 94.0828 179.184C94.2472 179.541 89.0062 173.825 80.9787 172.296C73.254 170.21 62.7363 172.311 59.3456 175.43C51.6255 180.889 51.1828 189.902 55.0957 191.49C58.9847 193.19 64.0882 190.631 68.1813 187.942Z" fill="#42A6A0"/>
<path d="M35.5319 160.354C37.3237 159.028 41.9452 154.032 48.2056 152.365C54.1226 150.228 61.685 151.42 61.4334 151.596C61.5978 151.952 56.3568 146.236 48.3293 144.707C40.6046 142.622 30.0868 144.722 26.6961 147.841C18.9761 153.3 18.5334 162.313 22.4463 163.901C26.3353 165.601 31.4388 163.042 35.5319 160.354Z" fill="#42A6A0"/>
<path d="M146.892 53.1595C145.395 54.8131 139.977 58.9226 137.707 64.9957C135.004 70.6786 135.455 78.325 135.653 78.0853C135.991 78.2812 130.814 72.5118 130.078 64.374C128.757 56.4837 131.87 46.2186 135.301 43.1512C141.488 35.9964 150.5 36.4391 151.702 40.4843C153.009 44.5208 149.968 49.3469 146.892 53.1595Z" fill="#42A6A0"/>
<path d="M173.462 86.4026C171.307 87.6051 163.744 89.8546 160.035 95.6236C155.809 100.782 155.438 109.453 155.722 109.277C156.135 109.641 150.128 101.029 150.184 91.6778C149.456 82.3555 154.791 72.2933 159.639 70.3483C168.579 65.0475 180.25 69.368 181.302 74.3782C182.505 79.418 177.943 83.4837 173.462 86.4026Z" fill="#42A6A0"/>
<path d="M201.749 136.996C199.423 137.816 191.591 138.762 186.964 143.83C181.931 148.2 180.103 156.692 180.415 156.561C180.764 156.986 176.289 147.492 177.918 138.285C178.767 128.969 185.72 119.953 190.828 118.854C200.533 115.134 211.308 121.357 211.504 126.47C211.833 131.632 206.658 134.867 201.749 136.996Z" fill="#42A6A0"/>
<path d="M121.896 174.281C120.211 175.382 114.185 177.639 111.499 182.549C108.358 186.985 108.542 194.061 108.768 193.899C109.127 194.173 103.749 187.512 103.265 179.899C102.141 172.358 105.906 163.865 109.741 162.013C116.715 157.191 126.452 160.047 127.594 164.054C128.855 168.091 125.375 171.65 121.896 174.281Z" fill="#42A6A0"/>
<path d="M77.0107 32.8671C78.0137 32.0023 80.5269 28.8491 84.1587 27.59C87.5691 26.0672 92.0918 26.4453 91.9501 26.5529C92.0589 26.7535 88.7159 23.603 83.8952 23.0544C79.2311 22.1623 73.1023 23.8653 71.2391 25.8536C66.9089 29.4237 67.0452 34.7734 69.4297 35.5422C71.8025 36.3768 74.7113 34.6418 77.0107 32.8671Z" fill="#42A6A0"/>
<path d="M86.335 10.9317C86.3164 12.2539 85.5144 16.2095 86.8839 19.7997C87.9065 23.3906 91.1006 26.6162 91.0969 26.4331C91.325 26.3891 86.7597 25.8483 83.2427 22.5116C79.5625 19.512 76.9242 13.7231 77.2545 11.0139C77.2046 5.40728 81.3956 2.06901 83.517 3.40601C85.6764 4.68333 86.2098 8.02908 86.335 10.9317Z" fill="#42A6A0"/>
<path d="M11.8449 132.05C12.8479 131.186 15.3611 128.032 18.9929 126.773C22.4034 125.25 26.926 125.629 26.7843 125.736C26.8997 125.937 23.5435 122.786 18.7294 122.238C14.0653 121.346 7.93656 123.049 6.07336 125.037C1.74317 128.607 1.87941 133.957 4.26391 134.725C6.63655 135.553 9.54536 133.819 11.8449 132.05Z" fill="#42A6A0"/>
<path d="M23.1866 109.884C23.0632 111.201 21.9323 115.072 23.0029 118.767C23.7261 122.429 26.6506 125.909 26.6599 125.726C26.8884 125.701 22.3808 124.786 19.1526 121.175C15.7283 117.889 13.5766 111.9 14.1236 109.226C14.5384 103.63 18.979 100.653 20.986 102.155C23.0377 103.605 23.297 106.983 23.1866 109.884Z" fill="#42A6A0"/>
<path d="M147.27 177.11C163.09 213.573 190.634 243.569 217.356 272.385C235.379 291.816 238.142 289.699 241.213 293.842C241.709 294.515 241.124 295.522 240.287 295.379C236.191 294.685 232.344 290.739 229.296 288.111C225.749 285.045 222.424 281.731 219.222 278.308C212.374 270.987 205.874 263.318 199.342 255.719C186.049 240.259 173.134 224.368 162.346 207.025C156.435 197.516 151.222 187.595 146.967 177.236C146.894 177.036 147.189 176.917 147.27 177.11Z" fill="#42AAAB"/>
<path d="M146.099 214.75C147.569 214.023 151.569 211.018 156.318 210.641C160.88 209.876 166.196 211.736 165.989 211.822C166.059 212.099 163.022 207.277 157.412 205.117C152.098 202.593 144.214 202.728 141.355 204.537C135.051 207.473 133.545 213.934 136.168 215.596C138.757 217.338 142.783 216.157 146.099 214.75Z" fill="#42AAAB"/>
<path d="M168.297 244.319C169.768 243.592 173.768 240.587 178.516 240.21C183.079 239.445 188.395 241.305 188.188 241.391C188.257 241.668 185.221 236.847 179.611 234.686C174.296 232.162 166.413 232.297 163.549 234.108C157.245 237.043 155.739 243.505 158.362 245.166C160.954 246.902 164.982 245.726 168.297 244.319Z" fill="#42AAAB"/>
<path d="M193.815 273.443C195.286 272.716 199.286 269.711 204.034 269.334C208.597 268.568 213.913 270.429 213.706 270.514C213.775 270.792 210.739 265.97 205.129 263.809C199.814 261.285 191.931 261.421 189.067 263.231C182.763 266.167 181.257 272.628 183.88 274.29C186.474 276.031 190.5 274.85 193.815 273.443Z" fill="#42AAAB"/>
<path d="M174.093 195.208C173.025 196.288 169.222 198.912 167.497 202.962C165.491 206.736 165.564 211.943 165.706 211.785C165.929 211.927 162.591 207.851 162.336 202.304C161.676 196.904 164.104 190.032 166.529 188.053C170.945 183.387 177.052 183.958 177.746 186.744C178.509 189.525 176.298 192.71 174.093 195.208Z" fill="#42AAAB"/>
<path d="M197.042 226.007C195.974 227.088 192.171 229.711 190.448 233.766C188.442 237.54 188.515 242.747 188.657 242.589C188.88 242.731 185.542 238.655 185.287 233.108C184.627 227.708 187.054 220.836 189.48 218.857C193.901 214.189 200.003 214.763 200.697 217.548C201.458 220.324 199.248 223.509 197.042 226.007Z" fill="#42AAAB"/>
<path d="M153.339 172.763C152.81 173.585 150.768 175.733 150.224 178.505C149.464 181.143 150.195 184.401 150.262 184.283C150.422 184.342 147.787 182.222 146.894 178.775C145.768 175.471 146.382 170.835 147.642 169.27C149.799 165.754 153.71 165.305 154.511 166.965C155.359 168.615 154.39 170.91 153.339 172.763Z" fill="#42AAAB"/>
<path d="M138.309 181.791C139.27 181.646 142.067 180.655 144.823 181.286C147.539 181.668 150.218 183.666 150.086 183.679C150.079 183.85 149.218 180.578 146.428 178.359C143.871 175.982 139.385 174.658 137.445 175.172C133.356 175.709 131.354 179.096 132.541 180.506C133.699 181.946 136.183 181.998 138.309 181.791Z" fill="#42AAAB"/>
</svg>
