<svg width="25" height="25" viewBox="0 0 25 25" fill="none" xmlns="http://www.w3.org/2000/svg">
<g opacity="0.7">
<path d="M12.5044 6.08057C11.662 6.08043 10.8278 6.24625 10.0495 6.56857C9.27119 6.89088 8.564 7.36337 7.96832 7.95905C7.37265 8.55472 6.90016 9.26191 6.57785 10.0402C6.25553 10.8185 6.08971 11.6527 6.08984 12.4951C6.08971 13.3376 6.25553 14.1717 6.57785 14.9501C6.90016 15.7284 7.37265 16.4356 7.96832 17.0312C8.564 17.6269 9.27119 18.0994 10.0495 18.4217C10.8278 18.744 11.662 18.9099 12.5044 18.9097C13.3468 18.9099 14.181 18.744 14.9593 18.4217C15.7376 18.0994 16.4448 17.6269 17.0405 17.0312C17.6362 16.4356 18.1087 15.7284 18.431 14.9501C18.7533 14.1717 18.9191 13.3376 18.919 12.4951C18.9191 11.6527 18.7533 10.8185 18.431 10.0402C18.1087 9.26191 17.6362 8.55472 17.0405 7.95905C16.4448 7.36337 15.7376 6.89088 14.9593 6.56857C14.181 6.24625 13.3468 6.08043 12.5044 6.08057ZM12.5044 16.6587C11.6812 16.6585 10.8766 16.4142 10.1923 15.9567C9.50789 15.4993 8.97454 14.8492 8.65962 14.0886C8.3447 13.3281 8.26235 12.4912 8.423 11.6839C8.58364 10.8765 8.98006 10.1349 9.56213 9.55285C10.1442 8.97078 10.8858 8.57436 11.6931 8.41372C12.5005 8.25308 13.3373 8.33542 14.0979 8.65034C14.8585 8.96526 15.5086 9.49862 15.966 10.183C16.4235 10.8673 16.6678 11.672 16.668 12.4951C16.6682 13.042 16.5607 13.5835 16.3516 14.0888C16.1424 14.594 15.8358 15.0531 15.4491 15.4398C15.0624 15.8265 14.6033 16.1332 14.0981 16.3423C13.5928 16.5514 13.0513 16.659 12.5044 16.6587Z" fill="white"/>
<path d="M17.6544 0.0785277C15.3544 -0.0287639 9.65752 -0.0235555 7.35544 0.0785277C5.33252 0.173319 3.54815 0.66186 2.10961 2.1004C-0.294555 4.50456 0.0127367 7.74414 0.0127367 12.4952C0.0127367 17.3577 -0.258096 20.5223 2.10961 22.89C4.52315 25.3025 7.8096 24.9868 12.5044 24.9868C17.321 24.9868 18.9835 24.99 20.6867 24.3306C23.0023 23.4316 24.7502 21.3618 24.921 17.6441C25.0294 15.3431 25.0231 9.64727 24.921 7.34519C24.7148 2.95665 22.3596 0.295194 17.6544 0.0785277ZM21.295 21.2993C19.719 22.8754 17.5325 22.7348 12.4742 22.7348C7.26585 22.7348 5.17731 22.8118 3.65336 21.2837C1.89815 19.5368 2.21586 16.7316 2.21586 12.4785C2.21586 6.72331 1.62523 2.57852 7.40127 2.28269C8.72835 2.23582 9.11898 2.22019 12.4596 2.22019L12.5065 2.25144C18.0575 2.25144 22.4127 1.67019 22.6742 7.44519C22.7335 8.76289 22.7471 9.15873 22.7471 12.4941C22.746 17.642 22.844 19.7431 21.295 21.2993Z" fill="white"/>
<path d="M19.1733 7.32653C20.0011 7.32653 20.6722 6.65542 20.6722 5.82757C20.6722 4.99972 20.0011 4.32861 19.1733 4.32861C18.3454 4.32861 17.6743 4.99972 17.6743 5.82757C17.6743 6.65542 18.3454 7.32653 19.1733 7.32653Z" fill="white"/>
</g>
</svg>
