<svg width="22" height="27" viewBox="0 0 22 27" fill="none" xmlns="http://www.w3.org/2000/svg">
<path opacity="0.7" d="M11.3684 0C3.94554 0.00112502 0 4.74307 0 9.91364C0 12.3111 1.34376 15.3025 3.49536 16.2509C4.10913 16.5265 4.0279 16.1901 4.55593 14.1763C4.58023 14.095 4.58238 14.0087 4.56216 13.9262C4.54193 13.8438 4.50006 13.7682 4.44084 13.7072C1.3652 10.16 3.84061 2.86767 10.9295 2.86767C21.1888 2.86767 19.2719 17.0226 12.7144 17.0226C11.0243 17.0226 9.76512 15.6996 10.1634 14.0627C10.6463 12.113 11.5918 10.0171 11.5918 8.612C11.5918 5.07045 6.30022 5.59583 6.30022 10.2883C6.30022 11.7384 6.81471 12.7172 6.81471 12.7172C6.81471 12.7172 5.11216 19.5753 4.79625 20.8567C4.26145 23.0257 4.86845 26.5369 4.92148 26.8395C4.9542 27.006 5.14149 27.0589 5.24642 26.9216C5.41453 26.7023 7.47249 23.775 8.04903 21.6588C8.25889 20.8882 9.11975 17.7606 9.11975 17.7606C9.68727 18.7821 11.3232 19.6372 13.0664 19.6372C18.2519 19.6372 22 15.0921 22 9.45238C21.9819 4.04556 17.3414 0 11.3684 0Z" fill="white"/>
</svg>
