<svg width="27" height="22" viewBox="0 0 27 22" fill="none" xmlns="http://www.w3.org/2000/svg">
<g opacity="0.7">
<path d="M23.4661 5.30079C24.5235 4.544 25.4341 3.60088 26.1534 2.51763V2.51654C25.1803 2.94262 24.145 3.22595 23.064 3.36326C24.1865 2.69753 25.0259 1.64334 25.4233 0.400293C24.3722 1.02338 23.2223 1.46231 22.0233 1.69816C21.2884 0.912664 20.3342 0.366446 19.2847 0.13052C18.2352 -0.105406 17.139 -0.020125 16.1387 0.375275C15.1383 0.770674 14.28 1.4579 13.6755 2.3476C13.0709 3.2373 12.748 4.28831 12.7487 5.36399C12.7487 5.78898 12.7847 6.19763 12.8729 6.58666C8.41595 6.36872 4.47114 4.23286 1.82093 0.977847C1.34173 1.80079 1.08836 2.7357 1.08646 3.68799C1.08646 5.54489 2.04215 7.19037 3.4686 8.14388C2.61987 8.12099 1.78906 7.89451 1.04614 7.48351V7.54235C1.04753 8.78051 1.47544 9.98038 2.25783 10.94C3.04023 11.8996 4.12933 12.5604 5.34183 12.8112C4.90485 12.931 4.42973 12.9877 3.93609 12.9877C3.59282 12.9877 3.24629 12.9681 2.92155 12.8962C3.61571 15.019 5.58811 16.5805 7.93102 16.6318C6.03274 18.1156 3.692 18.9205 1.28261 18.918C0.843447 18.918 0.421724 18.8984 0 18.845C2.45182 20.4246 5.30865 21.2603 8.22525 21.2511C17.6873 21.2511 23.8541 13.3571 23.4661 5.30079Z" fill="white"/>
</g>
</svg>
