<svg width="34" height="24" viewBox="0 0 34 24" fill="none" xmlns="http://www.w3.org/2000/svg">
<g opacity="0.7">
<path d="M33.0109 3.41655L33.0531 3.69224C32.8607 2.9907 32.4926 2.34978 31.9837 1.83001C31.4747 1.31023 30.8417 0.92875 30.1444 0.721584L30.1148 0.714551C27.4832 1.92826e-05 16.8932 1.94387e-05 16.8932 1.94387e-05C16.8932 1.94387e-05 6.32993 -0.0140463 3.67153 0.714551C2.973 0.916709 2.33747 1.29345 1.82486 1.80926C1.31226 2.32506 0.939478 2.96292 0.74167 3.6627L0.734637 3.69224C-0.248547 8.82758 -0.25558 14.9982 0.778241 20.4964L0.734637 20.2179C0.927079 20.9194 1.29515 21.5603 1.8041 22.0801C2.31304 22.5999 2.94607 22.9814 3.6434 23.1885L3.67294 23.1956C6.3018 23.9115 16.8946 23.9115 16.8946 23.9115C16.8946 23.9115 27.4564 23.9115 30.1162 23.1956C30.8151 22.9937 31.451 22.6171 31.9639 22.1013C32.4767 21.5855 32.8497 20.9474 33.0475 20.2474L33.0545 20.2179C33.5018 17.8296 33.7578 15.0811 33.7578 12.2736L33.7564 11.9628L33.7578 11.6393C33.7578 8.83039 33.5018 6.08198 33.0109 3.41655ZM13.5146 17.0911V6.83308L22.3281 11.9698L13.5146 17.0911Z" fill="white"/>
</g>
</svg>
