<svg width="1114" height="880" viewBox="0 0 1114 880" fill="none" xmlns="http://www.w3.org/2000/svg">
<g clip-path="url(#clip0_13_2)">
<path opacity="0.4" d="M903.191 879.878C919.307 879.878 932.372 875.606 932.372 870.335C932.372 865.065 919.307 860.793 903.191 860.793C887.075 860.793 874.01 865.065 874.01 870.335C874.01 875.606 887.075 879.878 903.191 879.878Z" fill="#42AAAB"/>
<path d="M901.351 877.73C917.467 877.73 930.532 873.457 930.532 868.187C930.532 862.917 917.467 858.645 901.351 858.645C885.235 858.645 872.17 862.917 872.17 868.187C872.17 873.457 885.235 877.73 901.351 877.73Z" fill="url(#paint0_linear_13_2)"/>
<path d="M901.351 876.598C887.494 876.598 876.636 872.906 876.636 868.197C876.636 863.478 887.494 859.786 901.351 859.786C915.209 859.786 926.066 863.478 926.066 868.197C926.066 872.906 915.209 876.598 901.351 876.598ZM901.351 860.745C887.139 860.745 877.594 864.6 877.594 868.197C877.594 871.793 887.139 875.639 901.351 875.639C915.563 875.639 925.108 871.793 925.108 868.197C925.108 864.6 915.563 860.745 901.351 860.745Z" fill="white"/>
<path opacity="0.2" d="M901.351 873.05C909.571 873.05 916.234 870.873 916.234 868.187C916.234 865.502 909.571 863.325 901.351 863.325C893.131 863.325 886.468 865.502 886.468 868.187C886.468 870.873 893.131 873.05 901.351 873.05Z" fill="#498794"/>
<path d="M902.53 871.151H901.984C887.081 871.151 874.997 859.45 874.997 845.017V815.823H929.516V845.017C929.516 859.45 917.432 871.151 902.53 871.151Z" fill="url(#paint1_linear_13_2)"/>
<path d="M902.261 822.345C917.319 822.345 929.526 819.425 929.526 815.823C929.526 812.221 917.319 809.301 902.261 809.301C887.204 809.301 874.997 812.221 874.997 815.823C874.997 819.425 887.204 822.345 902.261 822.345Z" fill="#5BDBC2"/>
<path d="M928.625 815.823C928.625 817.329 924.543 819.218 917.336 820.378C917.106 820.417 916.857 820.455 916.617 820.494C915.218 820.705 913.704 820.887 912.094 821.031C911.845 821.059 911.586 821.088 911.327 821.107C909.114 821.29 906.699 821.414 904.121 821.453C903.881 821.462 903.641 821.462 903.392 821.462C903.019 821.472 902.645 821.472 902.261 821.472C897.92 821.472 894.029 821.242 890.647 820.848C890.388 820.829 890.139 820.791 889.889 820.762C881.015 819.669 875.898 817.511 875.898 815.823C875.898 814.289 880.134 812.361 887.58 811.2C887.819 811.162 888.059 811.133 888.299 811.095C892.18 810.529 896.876 810.174 902.261 810.174C903.306 810.174 904.331 810.184 905.328 810.213C905.568 810.222 905.807 810.232 906.037 810.241C909.478 810.347 912.592 810.606 915.324 810.97C915.41 810.98 915.496 810.989 915.582 811.009C915.755 811.028 915.927 811.057 916.09 811.076C916.167 811.085 916.234 811.095 916.311 811.114C924.15 812.255 928.625 814.25 928.625 815.823Z" fill="url(#paint2_linear_13_2)"/>
<path d="M915.649 813.042C917.327 815.017 932.267 812.85 940.394 807.594C948.52 802.339 948.051 798.522 951.357 794.954C954.663 791.386 959.876 790.36 962.886 785.622C967.236 778.756 966.709 765.665 963.307 764.821C960.796 764.197 958.65 772.052 951.079 773.615C943.508 775.188 934.548 774.066 925.482 782.179C917.355 789.468 912.41 809.234 915.649 813.042Z" fill="url(#paint3_linear_13_2)"/>
<path d="M912.094 821.031C912.477 819.774 912.87 818.556 913.282 817.425C913.982 815.506 914.777 813.675 915.659 811.92C915.793 811.632 915.937 811.354 916.09 811.076C916.148 810.951 916.215 810.826 916.282 810.711C926.2 791.952 944.974 782.927 953.484 778.832C954.538 778.324 955.42 777.902 956.072 777.557C964.361 773.203 963.671 764.878 963.662 764.801C963.642 764.6 963.47 764.466 963.269 764.475C963.077 764.495 962.933 764.667 962.952 764.869C962.952 764.945 963.604 772.781 955.736 776.924C955.085 777.259 954.222 777.681 953.168 778.19C944.744 782.237 926.344 791.079 916.186 809.369C915.965 809.752 915.755 810.145 915.553 810.548C915.477 810.682 915.4 810.826 915.323 810.97C914.317 812.936 913.407 815.008 912.611 817.185C912.161 818.412 911.73 819.736 911.327 821.107L912.094 821.031Z" fill="#5BDBC2"/>
<path d="M948.76 781.125C948.635 781.125 948.511 781.057 948.444 780.933C946.814 777.95 949.047 773.922 949.143 773.749C949.239 773.577 949.459 773.519 949.632 773.615C949.804 773.711 949.862 773.932 949.766 774.104C949.747 774.143 947.629 777.95 949.066 780.587C949.162 780.76 949.095 780.981 948.923 781.077C948.875 781.105 948.817 781.125 948.76 781.125Z" fill="#5BDBC2"/>
<path d="M933.177 790.907C933.053 790.907 932.928 790.84 932.861 790.715C929.708 784.884 934.95 776.521 935.18 776.166C935.286 776.003 935.506 775.946 935.678 776.051C935.841 776.157 935.899 776.377 935.784 776.55C935.726 776.636 930.542 784.903 933.493 790.37C933.589 790.542 933.522 790.763 933.35 790.859C933.292 790.897 933.235 790.907 933.177 790.907Z" fill="#5BDBC2"/>
<path d="M954.634 791.473C945.712 791.473 939.771 786.092 939.703 786.035C939.56 785.901 939.55 785.67 939.684 785.527C939.818 785.383 940.048 785.373 940.192 785.507C940.259 785.565 946.948 791.616 956.752 790.648C956.953 790.638 957.126 790.773 957.145 790.974C957.164 791.175 957.02 791.348 956.819 791.367C956.072 791.444 955.343 791.473 954.634 791.473Z" fill="#5BDBC2"/>
<path d="M940.882 800.967C931.452 800.967 926.766 796.287 926.708 796.23C926.574 796.086 926.574 795.856 926.718 795.721C926.862 795.587 927.092 795.587 927.226 795.731C927.293 795.798 934.174 802.636 948.165 799.375C948.357 799.327 948.549 799.452 948.597 799.644C948.645 799.836 948.52 800.027 948.328 800.075C945.588 800.708 943.106 800.967 940.882 800.967Z" fill="#5BDBC2"/>
<path d="M922.837 800.795C922.731 800.795 922.636 800.756 922.569 800.67C917.384 794.676 922.559 785.037 922.779 784.625C922.875 784.452 923.096 784.385 923.268 784.481C923.441 784.577 923.508 784.798 923.412 784.97C923.364 785.066 918.246 794.58 923.115 800.2C923.249 800.353 923.23 800.574 923.076 800.708C923 800.766 922.914 800.795 922.837 800.795Z" fill="#5BDBC2"/>
<path d="M932.765 809.512C925.003 809.512 919.483 806.578 919.416 806.53C919.243 806.434 919.176 806.213 919.272 806.041C919.368 805.868 919.588 805.801 919.761 805.897C919.856 805.945 929.037 810.826 940.317 807.796C940.508 807.748 940.71 807.863 940.758 808.055C940.805 808.246 940.69 808.448 940.499 808.496C937.768 809.234 935.151 809.512 932.765 809.512Z" fill="#5BDBC2"/>
<path d="M881.293 796.575C881.293 796.575 881.935 779.906 874.029 772.148C867.56 765.789 858.264 763.085 853.837 761.32C847.033 758.606 834.565 751.595 832.878 746.033C832.188 743.76 828.623 753.101 833.568 766.307C845.519 798.196 878.054 799.682 881.293 796.575Z" fill="url(#paint4_linear_13_2)"/>
<path d="M890.647 820.848C890.388 820.829 890.139 820.791 889.889 820.762C889.621 819.477 889.324 818.144 888.998 816.792C888.557 814.96 888.117 813.099 887.58 811.2C884.705 800.929 879.271 789.631 858.955 777.777C837.728 765.387 832.16 746.378 832.102 746.186C832.045 745.994 832.16 745.793 832.351 745.745C832.543 745.688 832.744 745.803 832.792 745.985C832.85 746.177 838.35 764.917 859.319 777.154C879.942 789.181 885.395 800.66 888.299 811.095C888.826 812.975 889.267 814.816 889.698 816.629C890.043 818.067 890.359 819.477 890.647 820.848Z" fill="#5BDBC2"/>
<path d="M847.895 769.53C847.761 769.53 847.637 769.453 847.57 769.328C845.135 764.466 847.244 758.548 847.34 758.299C847.407 758.117 847.617 758.021 847.8 758.088C847.982 758.155 848.077 758.366 848.01 758.548C847.991 758.606 845.912 764.427 848.212 769.002C848.298 769.175 848.231 769.395 848.049 769.482C848.001 769.52 847.943 769.53 847.895 769.53Z" fill="#5BDBC2"/>
<path d="M840.785 761.752C840.641 761.752 840.507 761.665 840.449 761.531C839.127 758.28 839.721 753.955 839.75 753.772C839.778 753.571 839.96 753.437 840.152 753.465C840.353 753.494 840.487 753.676 840.459 753.868C840.449 753.907 839.865 758.184 841.11 761.253C841.187 761.435 841.101 761.646 840.909 761.723C840.871 761.742 840.823 761.752 840.785 761.752Z" fill="#5BDBC2"/>
<path d="M859.137 777.825C859.012 777.825 858.897 777.768 858.83 777.653C855.179 771.601 857.642 763.171 857.747 762.807C857.804 762.615 858.006 762.509 858.197 762.567C858.389 762.624 858.494 762.826 858.437 763.018C858.408 763.104 855.955 771.505 859.443 777.279C859.549 777.451 859.491 777.672 859.319 777.777C859.261 777.806 859.204 777.825 859.137 777.825Z" fill="#5BDBC2"/>
<path d="M868.519 783.982C868.375 783.982 868.25 783.906 868.193 783.762C864.503 775.207 869.937 768.849 869.994 768.781C870.129 768.628 870.349 768.618 870.502 768.743C870.656 768.877 870.665 769.098 870.541 769.251C870.493 769.309 865.356 775.351 868.854 783.474C868.931 783.656 868.844 783.867 868.662 783.944C868.614 783.973 868.567 783.982 868.519 783.982Z" fill="#5BDBC2"/>
<path d="M876.751 791.233C876.588 791.233 876.434 791.118 876.396 790.945C875.256 785.507 879.079 782.007 879.242 781.863C879.386 781.729 879.616 781.738 879.75 781.892C879.884 782.036 879.875 782.266 879.722 782.4C879.683 782.429 876.042 785.776 877.096 790.801C877.134 790.993 877.009 791.185 876.818 791.223C876.799 791.233 876.779 791.233 876.751 791.233Z" fill="#5BDBC2"/>
<path d="M843.267 764.782C843.18 764.782 843.094 764.753 843.027 764.686C839.012 761.071 832.524 762.864 832.457 762.883C832.265 762.941 832.064 762.826 832.016 762.634C831.958 762.442 832.073 762.241 832.265 762.193C832.543 762.116 839.203 760.275 843.516 764.149C843.66 764.284 843.679 764.514 843.545 764.658C843.458 764.734 843.362 764.782 843.267 764.782Z" fill="#5BDBC2"/>
<path d="M837.22 774.469C837.095 774.469 836.971 774.402 836.904 774.287C836.808 774.114 836.865 773.893 837.047 773.797C837.325 773.644 843.957 770.009 851.48 771.831C851.671 771.879 851.796 772.071 851.748 772.263C851.7 772.455 851.508 772.579 851.317 772.532C844.062 770.786 837.459 774.392 837.402 774.43C837.335 774.45 837.277 774.469 837.22 774.469Z" fill="#5BDBC2"/>
<path d="M844.704 784.395C844.599 784.395 844.493 784.347 844.426 784.261C844.302 784.107 844.331 783.877 844.484 783.752C844.561 783.685 852.572 777.394 862.29 778.976C862.481 779.005 862.615 779.197 862.587 779.389C862.558 779.58 862.366 779.715 862.175 779.686C852.764 778.151 845.011 784.251 844.934 784.309C844.867 784.366 844.781 784.395 844.704 784.395Z" fill="#5BDBC2"/>
<path d="M859.022 794.225C858.935 794.225 858.839 794.196 858.772 794.129C858.629 793.995 858.619 793.765 858.753 793.621C859.041 793.314 865.874 786.188 873.972 787.732C874.163 787.771 874.297 787.953 874.259 788.154C874.221 788.346 874.029 788.48 873.837 788.442C866.123 786.984 859.338 794.053 859.271 794.12C859.213 794.187 859.117 794.225 859.022 794.225Z" fill="#5BDBC2"/>
<path d="M918.4 780.223C918.4 780.223 913.694 764.178 919.463 754.827C924.188 747.164 932.554 742.398 936.426 739.665C942.367 735.464 952.756 725.787 953.034 719.995C953.149 717.635 958.899 725.883 957.336 739.847C953.561 773.567 922.31 782.496 918.4 780.223Z" fill="url(#paint5_linear_13_2)"/>
<path d="M917.336 820.378C916.962 817.837 916.589 814.701 916.311 811.114C916.301 810.98 916.291 810.845 916.282 810.711C916.244 810.27 916.215 809.829 916.186 809.369C916.186 809.369 916.186 809.369 916.186 809.359C916.023 806.952 915.918 804.362 915.879 801.629C915.726 789.612 915.554 775.994 935.496 756.822C953.082 739.904 953.839 720.158 953.839 719.956C953.848 719.764 953.695 719.592 953.494 719.592C953.273 719.573 953.13 719.736 953.12 719.937C953.12 720.129 952.363 739.598 934.998 756.304C914.835 775.687 915.007 789.478 915.161 801.639C915.199 804.813 915.343 807.805 915.554 810.548C915.544 810.558 915.554 810.558 915.554 810.558C915.554 810.711 915.573 810.855 915.582 811.009C915.601 811.315 915.63 811.622 915.659 811.92V811.929C915.927 815.219 916.282 818.115 916.617 820.494L917.336 820.378Z" fill="#5BDBC2"/>
<path d="M935.247 756.928C935.209 756.928 935.18 756.928 935.142 756.908C934.95 756.851 934.845 756.649 934.902 756.458C936.876 750.051 932.43 742.446 932.382 742.369C932.276 742.197 932.334 741.976 932.506 741.88C932.679 741.775 932.899 741.832 932.995 742.005C933.187 742.321 937.653 749.955 935.583 756.669C935.544 756.822 935.401 756.928 935.247 756.928Z" fill="#5BDBC2"/>
<path d="M927.638 765.07C927.619 765.07 927.6 765.07 927.581 765.07C927.389 765.041 927.255 764.849 927.284 764.658C928.702 755.94 922.224 751.269 922.156 751.221C921.994 751.106 921.955 750.886 922.07 750.723C922.185 750.56 922.406 750.521 922.569 750.636C922.636 750.684 929.478 755.614 927.993 764.773C927.964 764.945 927.811 765.07 927.638 765.07Z" fill="#5BDBC2"/>
<path d="M921.418 773.999C921.227 773.999 921.064 773.845 921.064 773.653C920.853 768.532 916.493 766.115 916.454 766.087C916.282 765.991 916.215 765.77 916.311 765.597C916.406 765.425 916.627 765.358 916.799 765.454C916.991 765.559 921.562 768.072 921.792 773.625C921.802 773.826 921.648 773.989 921.447 773.999C921.428 773.999 921.428 773.999 921.418 773.999Z" fill="#5BDBC2"/>
<path d="M941.467 750.003C941.333 750.003 941.208 749.927 941.151 749.802C941.064 749.629 941.131 749.409 941.304 749.322C948.175 745.831 955.506 747.826 955.813 747.913C956.005 747.97 956.12 748.162 956.062 748.354C956.005 748.546 955.813 748.651 955.621 748.603C955.545 748.584 948.252 746.589 941.639 749.955C941.582 749.994 941.524 750.003 941.467 750.003Z" fill="#5BDBC2"/>
<path d="M950.868 759.987C950.82 759.987 950.763 759.977 950.715 759.949C950.628 759.91 941.591 755.767 932.832 759.421C932.65 759.498 932.439 759.412 932.363 759.229C932.286 759.047 932.372 758.836 932.554 758.759C941.611 754.99 950.926 759.258 951.012 759.306C951.194 759.392 951.271 759.603 951.184 759.786C951.136 759.91 951.012 759.987 950.868 759.987Z" fill="#5BDBC2"/>
<path d="M939.378 772.829C939.31 772.829 939.243 772.81 939.186 772.771C939.1 772.714 930.762 767.41 923.642 770.594C923.46 770.68 923.249 770.594 923.163 770.412C923.086 770.23 923.163 770.019 923.345 769.932C930.829 766.576 939.215 771.927 939.569 772.157C939.732 772.263 939.78 772.483 939.675 772.656C939.608 772.771 939.493 772.829 939.378 772.829Z" fill="#5BDBC2"/>
<path d="M876.923 724.867C876.923 724.867 886.324 741.899 893.914 748.277C903.958 756.697 914.662 775.696 910.081 795.846C907.647 806.539 902.089 808.899 902.089 808.899C902.089 808.899 896.952 793.813 891.749 788.308C886.554 782.812 880.862 777.95 879.204 764.456C877.556 750.962 876.923 724.867 876.923 724.867Z" fill="url(#paint6_linear_13_2)"/>
<path d="M900.68 821.769C901.466 818.23 902.146 814.452 902.597 810.558C903.459 803.173 903.517 795.395 902.003 788.049C899.722 777.01 894.087 768.647 888.644 760.562C885.654 756.132 882.827 751.931 880.709 747.5C874.815 735.205 876.751 710.462 876.77 710.212C876.789 710.02 876.645 709.848 876.444 709.829C876.252 709.809 876.07 709.963 876.061 710.155C876.032 710.404 874.087 735.339 880.057 747.807C882.204 752.295 885.04 756.506 888.049 760.965C893.454 768.993 899.042 777.288 901.294 788.202C902.798 795.481 902.741 803.202 901.888 810.529C901.428 814.432 900.747 818.23 899.952 821.779L900.68 821.769Z" fill="#5BDBC2"/>
<path d="M885.529 756.899C885.385 756.899 885.251 756.813 885.194 756.678C882.242 749.418 885.999 740.921 886.162 740.557C886.238 740.374 886.459 740.298 886.641 740.374C886.823 740.451 886.9 740.672 886.823 740.854C886.785 740.94 883.028 749.437 885.865 756.4C885.941 756.582 885.855 756.793 885.663 756.87C885.625 756.889 885.577 756.899 885.529 756.899Z" fill="#5BDBC2"/>
<path d="M891.95 766.557C891.796 766.557 891.662 766.461 891.605 766.307C888.806 757.906 893.397 748.498 893.588 748.104C893.675 747.932 893.895 747.855 894.068 747.941C894.25 748.028 894.317 748.248 894.231 748.421C894.183 748.517 889.573 757.963 892.285 766.077C892.352 766.269 892.247 766.47 892.055 766.528C892.026 766.557 891.988 766.557 891.95 766.557Z" fill="#5BDBC2"/>
<path d="M898.064 777.557C897.92 777.557 897.776 777.461 897.729 777.317C894.719 768.887 902.769 759.68 903.114 759.296C903.249 759.153 903.469 759.133 903.622 759.268C903.766 759.402 903.785 759.623 903.651 759.776C903.574 759.872 895.534 769.06 898.399 777.077C898.466 777.259 898.371 777.47 898.179 777.538C898.141 777.547 898.102 777.557 898.064 777.557Z" fill="#5BDBC2"/>
<path d="M901.658 788.49C901.475 788.49 901.322 788.356 901.303 788.174C900.182 779.322 909.65 774.919 909.746 774.881C909.928 774.804 910.139 774.881 910.225 775.063C910.311 775.246 910.225 775.457 910.043 775.543C909.957 775.581 900.958 779.772 902.012 788.097C902.041 788.298 901.897 788.471 901.705 788.5C901.686 788.49 901.667 788.49 901.658 788.49Z" fill="#5BDBC2"/>
<path d="M902.98 800.401C902.971 800.401 902.971 800.401 902.961 800.401C902.76 800.392 902.606 800.219 902.616 800.027C902.999 792.777 910.714 790.878 910.791 790.859C910.982 790.811 911.174 790.936 911.222 791.127C911.27 791.319 911.145 791.511 910.954 791.559C910.656 791.626 903.68 793.352 903.325 800.066C903.325 800.258 903.162 800.401 902.98 800.401Z" fill="#5BDBC2"/>
<path d="M893.004 768.225C892.889 768.225 892.784 768.168 892.707 768.072C888.461 762.039 877.929 764.648 877.824 764.667C877.632 764.715 877.431 764.6 877.383 764.408C877.335 764.216 877.45 764.015 877.642 763.967C878.092 763.852 888.759 761.215 893.291 767.65C893.406 767.813 893.368 768.033 893.205 768.148C893.148 768.206 893.081 768.225 893.004 768.225Z" fill="#5BDBC2"/>
<path d="M899.157 780.127C899.032 780.127 898.907 780.06 898.84 779.945C894.94 773.04 882.549 777.595 882.424 777.643C882.242 777.71 882.031 777.614 881.964 777.432C881.897 777.25 881.993 777.039 882.175 776.972C882.712 776.77 895.275 772.157 899.473 779.59C899.569 779.763 899.511 779.983 899.339 780.079C899.272 780.108 899.214 780.127 899.157 780.127Z" fill="#5BDBC2"/>
<path d="M902.376 792.883C902.233 792.883 902.098 792.796 902.041 792.662C899.798 787.32 892.419 789.2 892.343 789.219C892.151 789.276 891.959 789.152 891.902 788.96C891.854 788.768 891.969 788.567 892.161 788.519C892.247 788.5 900.22 786.457 902.702 792.374C902.779 792.556 902.693 792.767 902.511 792.844C902.472 792.873 902.424 792.883 902.376 792.883Z" fill="#5BDBC2"/>
<path d="M876.703 703.719C876.703 703.719 884.168 720.273 882.798 735.32C881.428 750.368 880.364 772.675 885.098 780.798C885.098 780.798 877.7 773.932 877.613 761.963C877.537 749.994 878.016 744.172 874.911 739.761C871.815 735.33 867.244 712.428 876.703 703.719Z" fill="#42AAAB"/>
</g>
<path d="M1058.96 255.092C1058.96 255.092 1029.3 277.446 1013.35 285.042C997.403 292.642 982.187 299.925 956.082 330.805C929.978 361.685 929.347 365.861 922.495 373.778C915.639 381.694 882.938 411.106 879.261 417.75C875.582 424.392 828.772 448.263 812.434 462.437C796.096 476.611 770.45 495.617 764.137 508.932L767.545 509.786C767.545 509.786 786.269 480.908 823.511 461.597C860.753 442.285 860.887 434.922 892.948 431.969C925.012 429.021 963.609 393.93 963.609 393.93C963.609 393.93 1012.99 359.837 1025.05 334.78C1037.11 309.727 1055.38 291.112 1058.96 255.092Z" fill="#19A98D"/>
<path d="M1051.64 192.174C1051.64 192.174 1040.32 211.262 1027.78 219.46C1015.23 227.658 1006.01 231.778 998.11 243.706C990.206 255.633 968.822 285.837 942.757 292.16C916.692 298.483 888.953 344.576 867.878 351.685C846.805 358.791 839.515 368.135 828.751 394.007C817.988 419.878 808.035 458.408 764.722 492.354L766.294 478.949C766.294 478.949 799.847 449.902 808.02 426.706C816.193 403.51 821.932 364.902 834.562 351.709C847.191 338.516 832.927 326.92 855.135 308.64C877.342 290.36 877.802 280.096 901.761 266.856C901.761 266.856 903.608 266.629 916.278 251.327C928.949 236.026 973.514 219.491 992.026 215.63C1010.53 211.768 1038.14 204.469 1051.64 192.174Z" fill="#19A98D"/>
<path d="M947.697 260.844C947.697 260.844 918.384 278.723 909.111 295.407C899.84 312.087 894.293 326.731 874.18 345.578C854.066 364.425 861.534 387.219 850.276 397.542C839.019 407.865 830.569 422.716 824.558 434.19C818.547 445.665 780.607 473.92 767.628 491.582C754.648 509.244 758.035 511.155 758.035 511.155C758.035 511.155 774.551 487.501 783.096 481.342C791.642 475.183 819.454 453.06 828.329 443.484C837.205 433.908 848.847 430.968 865.731 415.746C882.613 400.528 900.731 389.808 914.413 362.676C928.104 335.543 954.08 313.121 947.697 260.844Z" fill="#5BDBC2"/>
<path d="M777.602 499.104C777.602 499.104 802.566 469.815 834.327 482.667C866.087 495.518 880.496 510.939 914.721 498.154C948.94 485.371 981.945 453.6 992.272 450.637C992.272 450.637 984.582 439.428 957.977 446.429C931.373 453.429 912.188 459.276 896.755 463.385C881.323 467.494 876.393 456.73 862.157 457.252C850.229 457.69 830.221 466.745 820.72 472.015C817.632 473.728 814.35 475.058 810.932 475.931C807.823 476.731 804.084 477.743 801.562 478.618C796.524 480.366 775.219 497.971 775.219 497.971L777.602 499.104Z" fill="#5BDBC2"/>
<path d="M770.19 487.565C770.19 487.565 802.591 452.752 806.2 429.117C809.812 405.48 795.567 378.871 803.169 366.899C810.771 354.926 843.138 328.939 845.049 297.633C845.049 297.633 828.594 317.607 821.568 320.239C814.542 322.862 773.902 326.831 764.917 356.16C755.93 385.493 781.593 407.316 784.531 418.962C787.47 430.608 797.117 435.794 794.385 441.01C791.653 446.227 783.374 466.087 770.146 482.958L770.19 487.565Z" fill="#5BDBC2"/>
<path d="M796.355 466.684L834.244 431.934C834.244 431.934 861.499 402.25 882.011 376.301C902.524 350.352 947.701 260.846 947.701 260.846C947.701 260.846 918.387 278.725 909.114 295.409C899.843 312.089 894.297 326.733 874.183 345.58C854.07 364.427 861.537 387.221 850.28 397.544C839.022 407.867 830.572 422.718 824.561 434.193C818.55 445.667 780.607 473.92 767.631 491.584C760.52 501.261 758.329 506.202 757.794 508.701C764.417 490.702 796.355 466.684 796.355 466.684Z" fill="#55CFBC"/>
<path d="M883.184 480.629C868.521 476.134 857.169 468.853 835.146 472.078C813.123 475.303 797.146 482.813 797.146 482.813C797.146 482.813 783.274 491.633 776.766 496.712C775.797 497.503 775.224 497.978 775.224 497.978L777.604 499.11C777.604 499.11 802.568 469.821 834.328 482.672C866.089 495.524 880.498 510.944 914.723 498.16C948.942 485.377 981.946 453.606 992.274 450.642C992.274 450.642 960.304 456.021 938.027 464.027C915.745 472.026 897.85 485.119 883.184 480.629Z" fill="#54CDBB"/>
<path d="M821.57 320.235C814.542 322.862 773.902 326.831 764.917 356.16C755.93 385.493 781.593 407.316 784.532 418.962C787.47 430.608 797.117 435.794 794.385 441.01C791.653 446.227 783.374 466.087 770.146 482.958L770.166 484.972C775.642 478.556 783.773 468.678 789.007 460.668C797.508 447.659 798.338 440.827 799.914 427.424C801.486 414.02 786.388 376.857 785.942 361.358C785.497 345.86 816.122 336.86 825.702 329.71C835.279 322.557 845.056 297.637 845.056 297.637C845.056 297.637 828.594 317.607 821.57 320.235Z" fill="#55CFBC"/>
<g clip-path="url(#clip1_13_2)">
<path d="M193.372 257.012C156.534 224.13 137.59 176.911 128.188 143.083C117.979 106.365 116.491 77.058 116.479 76.7651L114.477 76.6414C114.489 76.9342 115.985 106.456 126.256 143.422C135.744 177.579 154.886 225.289 192.181 258.576L193.372 257.012Z" fill="#32A99C"/>
<path d="M120.673 68.265C122.49 76.7198 120.97 84.7085 117.097 90.4742C111.028 85.9994 106.253 78.8355 104.436 70.3808C102.619 61.926 104.139 53.9414 108.012 48.1715C114.085 52.6423 118.856 59.8102 120.673 68.265Z" fill="#32A99C"/>
<path d="M109.372 92.3425C115.721 98.2526 119.429 106.019 120.15 113.496C113.183 113.814 105.515 110.984 99.1705 105.07C92.8255 99.16 89.1133 91.394 88.3965 83.9167C95.3594 83.5991 103.027 86.4325 109.372 92.3425Z" fill="#32A99C"/>
<path d="M106.397 117.637C114.283 120.115 120.751 125.613 124.583 132.29C118.86 135.969 111.189 137.029 103.303 134.55C95.4171 132.072 88.9485 126.574 85.1169 119.897C90.8397 116.218 98.5071 115.158 106.397 117.637Z" fill="#32A99C"/>
<path d="M118.543 148.066C124.789 150.037 129.787 155.085 132.617 161.457C127.879 165.441 121.679 166.951 115.428 164.979C109.182 163.004 104.185 157.96 101.354 151.588C106.092 147.604 112.297 146.094 118.543 148.066Z" fill="#32A99C"/>
<path d="M129.21 104.637C134.125 99.6837 140.639 97.568 146.943 98.2485C147.293 104.926 144.99 111.698 140.075 116.651C135.159 121.604 128.646 123.72 122.342 123.04C121.996 116.362 124.295 109.59 129.21 104.637Z" fill="#32A99C"/>
<path d="M134.912 126.446C139.827 121.493 146.341 119.377 152.645 120.058C152.995 126.735 150.692 133.507 145.777 138.46C140.862 143.413 134.348 145.529 128.044 144.849C127.694 138.167 129.993 131.399 134.912 126.446Z" fill="#32A99C"/>
<path d="M171.169 301.604C137.149 296.638 108.037 276.467 89.6036 260.415C69.5924 242.99 57.4958 226.526 57.3763 226.361L56.165 227.058C56.2845 227.223 68.4717 243.811 88.6107 261.355C107.221 277.568 136.634 297.946 171.078 302.969L171.169 301.604Z" fill="#35D1B3"/>
<path d="M56.5564 219.811C60.8537 224.031 63.0291 229.256 62.992 234.094C57.7471 233.826 52.2262 231.491 47.929 227.276C43.6317 223.057 41.4563 217.832 41.4934 212.994C46.7383 213.262 52.2592 215.592 56.5564 219.811Z" fill="#35D1B3"/>
<path d="M59.218 238.148C65.1756 239.146 70.3051 242.235 73.5889 246.306C69.6583 249.168 64.1209 250.467 58.1632 249.469C52.2056 248.471 47.0761 245.382 43.7924 241.311C47.723 238.449 53.2603 237.15 59.218 238.148Z" fill="#35D1B3"/>
<path d="M67.1821 253.993C72.7154 252.406 78.5865 253.115 83.3699 255.528C81.4541 259.866 77.3999 263.426 71.8667 265.018C66.3334 266.606 60.4623 265.896 55.6788 263.483C57.5947 259.145 61.6488 255.585 67.1821 253.993Z" fill="#35D1B3"/>
<path d="M85.9079 267.018C90.2958 265.764 95.1328 266.779 99.2199 269.398C97.9921 273.534 94.968 276.792 90.5801 278.046C86.1922 279.3 81.3552 278.285 77.2681 275.667C78.4959 271.53 81.52 268.272 85.9079 267.018Z" fill="#35D1B3"/>
<path d="M75.4635 237.674C76.4235 232.906 79.3982 229.174 83.3205 227.149C86.0851 230.898 87.3417 235.715 86.3817 240.482C85.4217 245.25 82.447 248.983 78.5206 251.008C75.7601 247.263 74.5035 242.441 75.4635 237.674Z" fill="#35D1B3"/>
<path d="M87.1357 248.162C88.0957 243.394 91.0704 239.662 94.9968 237.637C97.7614 241.386 99.018 246.203 98.0581 250.97C97.0981 255.738 94.1234 259.471 90.1969 261.496C87.4324 257.747 86.1757 252.929 87.1357 248.162Z" fill="#35D1B3"/>
<path d="M191.654 403.527C152.414 418.441 109.215 410.563 79.8885 401.329C48.0526 391.307 25.2232 377.561 24.9966 377.425L24.1272 379.087C24.3538 379.227 47.3522 393.076 79.3982 403.173C109.013 412.502 152.653 420.453 192.383 405.359L191.654 403.527Z" fill="#5BDBC2"/>
<path d="M20.1637 369.444C27.2873 372.212 32.7629 377.619 35.6429 383.916C29.8953 386.857 22.6028 387.298 15.4792 384.531C8.35553 381.759 2.87994 376.357 0 370.059C5.74752 367.118 13.0401 366.677 20.1637 369.444Z" fill="#5BDBC2"/>
<path d="M34.069 391.534C41.0155 389.092 48.3492 389.872 54.3069 393.085C51.8472 399.259 46.73 404.418 39.7794 406.86C32.833 409.301 25.4992 408.522 19.5416 405.309C22.0013 399.139 27.1184 393.98 34.069 391.534Z" fill="#5BDBC2"/>
<path d="M52.1191 407.074C57.055 401.544 63.7377 398.785 70.2928 398.904C70.8696 405.726 68.7024 412.885 63.7625 418.416C58.8266 423.951 52.1438 426.71 45.5888 426.586C45.0161 419.765 47.1832 412.605 52.1191 407.074Z" fill="#5BDBC2"/>
<path d="M77.3793 415.096C82.3152 409.561 88.998 406.802 95.553 406.926C96.1298 413.747 93.9627 420.907 89.0227 426.438C84.0868 431.973 77.4041 434.732 70.849 434.608C70.2763 427.786 72.4435 420.631 77.3793 415.096Z" fill="#5BDBC2"/>
<path d="M53.6147 389.175C49.268 383.512 47.3316 376.687 47.793 370.496C53.5158 371.164 59.3663 374.493 63.7089 380.155C68.0556 385.818 69.992 392.643 69.5306 398.834C63.8078 398.166 57.9573 394.838 53.6147 389.175Z" fill="#5BDBC2"/>
<path d="M79.8555 397.399C75.4305 391.802 73.387 384.997 73.7454 378.786C79.4641 379.355 85.3558 382.584 89.7849 388.181C94.2099 393.778 96.2534 400.583 95.895 406.794C90.1722 406.225 84.2805 402.995 79.8555 397.399Z" fill="#5BDBC2"/>
<path d="M110.575 417.294C111.737 414.345 114.04 412.296 116.743 411.45C118.041 414.176 118.263 417.414 117.105 420.363C115.943 423.312 113.64 425.361 110.937 426.207C109.64 423.481 109.417 420.243 110.575 417.294Z" fill="#5BDBC2"/>
<path d="M275.877 492.484C275.877 492.484 325.874 294.548 309.295 274.656C286.383 247.168 267.48 338.351 265.626 330.606C248.112 257.466 243.448 163.882 186.945 153.976C154.829 148.346 194.365 223.565 191.984 243.91C189.606 264.255 131.727 196.707 96.5542 161.321C61.381 125.935 43.2156 148.338 65.4393 192.835C86.9338 235.867 156.452 282.888 142.122 288.468C127.793 294.048 40.7971 238.482 30.1425 262.234C17.0819 291.359 147.577 330.994 135.291 337.539C123.001 344.08 60.6312 322.535 62.3369 344.806C64.0426 367.077 147.882 366.248 146.453 376.043C144.133 391.905 88.6766 356.003 86.2416 377.949C83.749 400.397 159.196 396.302 157.89 413.813C157.14 423.877 140.948 408.699 138.563 422.635C133.124 454.417 232.583 493.127 232.583 493.127L275.877 492.484Z" fill="#32A99C"/>
<path d="M314 493.692C314 493.692 266.417 420.664 243.522 406.876C219.127 392.186 237.7 436.171 237.7 436.171C237.7 436.171 187.843 376.785 173.983 388.849C160.123 400.917 172.702 414.89 172.702 414.89C172.702 414.89 127.941 401.614 119.899 418.057C107.538 443.327 181.226 464.282 181.226 464.282C181.226 464.282 149.592 463.948 155.414 481.01C164.19 506.741 314 493.692 314 493.692Z" fill="#35D1B3"/>
<path d="M119.899 418.057C127.945 401.61 172.702 414.89 172.702 414.89C172.702 414.89 160.123 400.917 173.983 388.849C187.843 376.781 227.725 412.902 227.725 412.902C227.725 412.902 223.543 383.116 253.579 409.355C275.028 428.096 314.004 493.692 314.004 493.692L119.899 418.057Z" fill="#5BDBC2"/>
<path d="M256.24 310.331L258.375 308.871C219.634 250.137 207.809 180.412 204.711 132.257C201.349 80.0027 207.249 41.1603 207.31 40.7767L204.665 40.0055C204.603 40.3931 198.658 79.4954 202.033 132.059C205.151 180.627 217.087 250.975 256.24 310.331Z" fill="#5BDBC2"/>
<path d="M214.937 31.6291C215.023 43.4286 210.932 53.1825 204.406 59.0349C197.776 50.5966 193.537 39.2054 193.45 27.4058C193.368 15.6063 197.455 5.85235 203.981 0C210.615 8.43827 214.854 19.8295 214.937 31.6291Z" fill="#5BDBC2"/>
<path d="M193.953 58.1482C200.558 68.5785 203.269 80.2914 202.197 90.3423C193.133 87.7605 184.007 80.7781 177.407 70.3478C170.802 59.9175 168.091 48.2045 169.163 38.1537C178.227 40.7314 187.349 47.7138 193.953 58.1482Z" fill="#5BDBC2"/>
<path d="M183.369 89.8309C192.874 96.4503 199.742 106.394 202.894 116.746C194.534 119.08 184.37 117.167 174.865 110.547C165.36 103.928 158.491 93.984 155.34 83.6321C163.699 81.2977 173.864 83.2114 183.369 89.8309Z" fill="#5BDBC2"/>
<path d="M195.766 145.146C199.911 147.62 203.058 151.592 204.678 155.861C201.274 157.131 196.994 156.661 192.849 154.186C188.704 151.711 185.556 147.74 183.937 143.471C187.34 142.201 191.621 142.671 195.766 145.146Z" fill="#5BDBC2"/>
<path d="M199.132 165.635C203.277 168.11 206.425 172.081 208.044 176.35C204.641 177.62 200.36 177.15 196.215 174.675C192.07 172.201 188.922 168.229 187.303 163.961C190.711 162.694 194.987 163.16 199.132 165.635Z" fill="#5BDBC2"/>
<path d="M216.243 82.6958C223.902 78.353 232.859 78.3983 240.803 81.9906C239.472 90.8454 234.701 98.6774 227.041 103.02C219.382 107.363 210.425 107.318 202.482 103.726C203.812 94.8707 208.583 87.0387 216.243 82.6958Z" fill="#5BDBC2"/>
<path d="M217.771 113.562C225.431 109.219 234.388 109.264 242.331 112.857C241 121.711 236.229 129.543 228.57 133.886C220.911 138.229 211.954 138.184 204.01 134.592C205.341 125.741 210.112 117.905 217.771 113.562Z" fill="#5BDBC2"/>
<path d="M216.251 157.741C221.236 154.912 227.066 154.945 232.237 157.283C231.372 163.045 228.265 168.143 223.28 170.972C218.295 173.801 212.465 173.768 207.294 171.43C208.159 165.668 211.266 160.57 216.251 157.741Z" fill="#5BDBC2"/>
</g>
<path d="M681.322 741.841H311.421C296.944 741.841 285.164 730.06 285.164 715.583V437.809C285.164 423.333 296.944 411.552 311.421 411.552H681.304C695.781 411.552 707.561 423.333 707.561 437.809V715.583C707.579 730.06 695.799 741.841 681.322 741.841ZM311.421 413.163C297.849 413.163 286.792 424.201 286.792 437.791V715.565C286.792 729.137 297.831 740.194 311.421 740.194H681.304C694.876 740.194 705.933 729.155 705.933 715.565V437.791C705.933 424.219 694.876 413.163 681.304 413.163H311.421Z" fill="white"/>
<path d="M763.135 448.161C763.135 448.161 769.885 451.201 772.907 452.269C775.929 453.318 786.967 452.142 788.18 453.083C789.41 454.024 789.465 457.607 787.691 458.24C785.918 458.874 772.726 462.113 768.129 461.66C763.533 461.19 755.444 464.302 753.508 463.904C751.572 463.506 751.409 452.649 751.825 450.151C752.223 447.636 763.135 448.161 763.135 448.161Z" fill="#11191D"/>
<path d="M761.578 443.818L763.134 448.161C763.134 448.161 754.991 451.056 751.806 450.133L750.739 445.7L761.578 443.818Z" fill="#EEA886"/>
<path d="M744.948 452.033C744.948 452.033 751.318 455.906 754.195 457.353C757.072 458.783 768.165 459 769.269 460.104C770.391 461.208 770.029 464.755 768.201 465.153C766.374 465.551 752.91 467.107 748.404 466.058C743.898 465.008 735.52 467.071 733.638 466.42C731.756 465.768 732.787 454.983 733.475 452.558C734.163 450.115 744.948 452.033 744.948 452.033Z" fill="#263238"/>
<path d="M743.989 447.509L744.948 452.033C744.948 452.033 736.551 453.879 733.493 452.558L732.932 448.016L743.989 447.509Z" fill="#EEA886"/>
<path d="M680.201 366.186C680.201 366.186 709.227 366.439 712.773 366.946C716.628 367.488 731.738 367.977 733.548 370.746C751.951 398.686 763.967 444.415 763.967 444.415L749.418 447.274C749.418 447.274 735.357 420.021 729.458 405.852C724.174 393.131 719.65 389.873 708.539 390.145C697.428 390.416 661.905 387.973 641.421 385.44L680.201 366.186Z" fill="#292C47"/>
<path d="M677.124 298.923C677.124 298.923 685.738 317.453 685.032 324.348C684.345 331.224 676.925 350.316 676.401 354.152C675.876 357.988 679.622 365.571 679.622 365.571L640.842 383.522C640.842 383.522 639.286 372.176 640.842 359.11C642.398 346.045 643.556 331.984 645.275 324.601C651.157 299.393 666.719 288.952 666.719 288.952L677.124 298.923Z" fill="#5BDBC2"/>
<path d="M679.64 365.552C679.64 365.552 708.666 365.806 712.212 366.312C716.067 366.855 731.503 367.127 732.987 370.112C743.537 391.411 745.907 448.251 745.907 448.251L732.335 449.898C732.335 449.898 726.563 420.89 723.577 407.3C721.984 400.098 715.995 391.357 707.761 391.846C696.668 392.497 653.147 403.246 640.842 383.504L679.64 365.552Z" fill="#323657"/>
<path d="M654.577 316.421C654.667 312.838 656.748 297.348 665.489 298.398C674.229 299.465 673.216 309.943 672.401 317.851C671.551 326.121 667.262 346.406 668.637 347.456C669.995 348.506 680.364 351.618 682.589 352.052C684.815 352.505 698.261 355.798 699.364 356.106C700.45 356.414 698.279 361.625 698.279 361.625C698.279 361.625 661.073 360.539 654.848 357.59C648.605 354.64 654.577 316.421 654.577 316.421Z" fill="#EEA886"/>
<path d="M699.346 356.106C699.346 356.106 702.115 356.794 703.436 356.902C704.775 357.011 711.073 354.496 713.045 354.857C715.017 355.219 727.63 361.318 728.209 361.734C728.77 362.168 727.866 363.001 727.866 363.001L698.261 361.933L699.346 356.106Z" fill="#EEA886"/>
<path d="M736.431 363.177L687.195 361.187L687.013 365.689L736.249 367.68L736.431 363.177Z" fill="#807066"/>
<path d="M748.678 319.751L732.023 366.129L736.263 367.652L752.919 321.274L748.678 319.751Z" fill="#807066"/>
<path d="M699.708 269.734C699.708 269.734 700.631 277.352 698.568 277.66C696.867 277.931 697.464 285.278 697.464 286.436C697.464 287.595 694.261 287.196 693.393 287.595C692.524 287.993 687.566 295.267 685.069 294.562C682.571 293.856 673.252 285.894 671.515 281.677C669.777 277.479 672.763 262.731 676.998 257.664C681.268 252.615 698.025 256.415 699.708 269.734Z" fill="#EEA886"/>
<path d="M680.291 289.169C680.291 289.169 680.038 289.838 679.676 290.87C679.404 291.63 679.061 292.589 678.717 293.639C677.776 296.48 676.726 299.9 676.654 301.583C676.509 304.713 666.755 288.915 666.755 288.915C666.755 288.915 670.266 279.397 672.456 268.268C674.627 257.157 680.291 289.169 680.291 289.169Z" fill="#EEA886"/>
<path d="M699.853 271.362C699.853 271.362 705.969 265.933 701.662 258.442C697.356 250.95 682.3 255.239 680.87 255.076C679.44 254.895 671.931 252.524 670.465 266.983C669.017 281.442 669.922 279.27 669.922 279.27C669.922 279.27 673.613 273.063 676.237 274.059C678.861 275.054 683.476 275.542 683.476 275.542C683.476 275.542 683.566 268.793 687.348 269.317C691.13 269.824 696.849 268.684 699.853 271.362Z" fill="#263238"/>
<path d="M653.908 317.091L673.849 317.815C673.849 317.815 676.944 297.059 665.489 297.457C654.034 297.855 653.908 317.091 653.908 317.091Z" fill="#42AAAB"/>
<path d="M681.106 270.729C681.124 269.806 681.486 265.952 677.704 266.82C673.921 267.689 676.202 276.122 676.69 276.411C677.179 276.682 681.015 278.528 681.106 270.729Z" fill="#EEA886"/>
<path d="M666.737 288.934C666.737 288.934 683.856 319.86 683.403 315.48C683.059 312.06 675.64 295.502 675.64 295.502L666.737 288.934Z" fill="#EEA886"/>
<path d="M679.676 290.87C679.404 291.63 679.06 292.589 678.717 293.638C675.26 289.35 672.872 284.482 672.166 282.98C673.577 285.55 679.676 290.87 679.676 290.87Z" fill="#A77860"/>
<path d="M679.64 365.552L641.512 388.57L640.86 383.504L679.64 365.552Z" fill="#498794"/>
<path d="M724.825 414.068V691.842C724.825 705.902 713.443 717.285 699.382 717.285H329.499C315.439 717.285 304.056 705.884 304.056 691.842V414.068C304.056 400.007 315.439 388.625 329.499 388.625H699.382C713.425 388.625 724.825 400.025 724.825 414.068Z" fill="white"/>
<path d="M724.825 414.068V421.27H304.038V414.068C304.038 400.007 315.421 388.625 329.481 388.625H699.364C713.425 388.625 724.825 400.025 724.825 414.068Z" fill="#5BDBC2"/>
<path d="M470.594 515.84H351.848C346.419 515.84 342.022 511.442 342.022 506.014V474.888C342.022 469.46 346.419 465.062 351.848 465.062H470.594C476.023 465.062 480.42 469.46 480.42 474.888V506.014C480.42 511.442 476.023 515.84 470.594 515.84Z" fill="#5BDBC2"/>
<path d="M470.594 584.08H351.848C345.985 584.08 341.207 579.303 341.207 573.439V542.314C341.207 536.451 345.985 531.674 351.848 531.674H470.594C476.457 531.674 481.234 536.451 481.234 542.314V573.439C481.234 579.303 476.457 584.08 470.594 584.08ZM351.848 533.302C346.871 533.302 342.836 537.338 342.836 542.314V573.439C342.836 578.416 346.871 582.451 351.848 582.451H470.594C475.552 582.451 479.606 578.416 479.606 573.439V542.314C479.606 537.356 475.57 533.302 470.594 533.302H351.848Z" fill="#5BDBC2"/>
<path d="M621.714 608.111H514.097C512.685 608.111 511.545 606.971 511.545 605.56V602.484C511.545 601.072 512.685 599.932 514.097 599.932H621.714C623.125 599.932 624.265 601.072 624.265 602.484V605.56C624.283 606.953 623.125 608.111 621.714 608.111Z" fill="#42AAAB"/>
<path d="M621.714 637.861H514.097C512.685 637.861 511.545 636.721 511.545 635.31V632.233C511.545 630.822 512.685 629.664 514.097 629.664H621.714C623.125 629.664 624.265 630.804 624.265 632.233V635.31C624.283 636.703 623.125 637.861 621.714 637.861Z" fill="#42AAAB"/>
<path d="M673.215 584.08H525.533C517.372 584.08 510.731 577.439 510.731 569.277V479.05C510.731 470.889 517.372 464.248 525.533 464.248H673.215C681.376 464.248 688.018 470.889 688.018 479.05V569.277C688.018 577.439 681.376 584.08 673.215 584.08ZM525.533 465.877C518.277 465.877 512.359 471.794 512.359 479.05V569.277C512.359 576.534 518.259 582.451 525.533 582.451H673.215C680.472 582.451 686.389 576.534 686.389 569.277V479.05C686.389 471.794 680.472 465.877 673.215 465.877H525.533Z" fill="#42AAAB"/>
<path d="M666.882 610.681L657.526 602.52C656.766 601.85 656.676 600.692 657.345 599.914C658.015 599.154 659.173 599.063 659.951 599.733L666.574 605.505L676.002 594.992C676.69 594.232 677.848 594.177 678.608 594.847C679.368 595.534 679.422 596.693 678.753 597.453L666.882 610.681Z" fill="#42AAAB"/>
<path d="M666.882 642.277L657.526 634.116C656.766 633.446 656.675 632.288 657.345 631.51C658.015 630.75 659.173 630.659 659.951 631.329L666.574 637.101L676.002 626.588C676.69 625.828 677.848 625.773 678.608 626.443C679.368 627.131 679.422 628.289 678.753 629.049L666.882 642.277Z" fill="#42AAAB"/>
<path d="M621.714 669.457H514.097C512.685 669.457 511.545 668.317 511.545 666.905V663.829C511.545 662.418 512.685 661.278 514.097 661.278H621.714C623.125 661.278 624.265 662.418 624.265 663.829V666.905C624.283 668.299 623.125 669.457 621.714 669.457Z" fill="#42AAAB"/>
<path d="M666.882 673.872L657.526 665.711C656.766 665.042 656.676 663.883 657.345 663.105C658.015 662.345 659.173 662.255 659.951 662.924L666.574 668.697L676.002 658.165C676.69 657.405 677.848 657.351 678.608 658.02C679.368 658.708 679.422 659.866 678.753 660.626L666.882 673.872Z" fill="#42AAAB"/>
<g opacity="0.83">
<path d="M457.312 261.916H235.454C223.891 261.916 214.517 271.29 214.517 282.853V411.751C214.517 423.315 223.891 432.688 235.454 432.688H457.312C468.875 432.688 478.249 423.315 478.249 411.751V282.853C478.249 271.29 468.875 261.916 457.312 261.916Z" fill="white"/>
</g>
<path d="M263.919 361.155C267.755 362.458 271.863 363.181 276.134 363.236C289.073 363.398 300.654 357.354 308.037 347.854C313.14 341.267 316.235 333.033 316.343 324.058C316.361 323.171 316.343 322.284 316.289 321.398C316.072 317.416 315.276 313.58 313.973 309.997C308.508 294.923 294.158 284.084 277.165 283.866C268.009 283.74 259.558 286.726 252.772 291.847C243.308 298.995 237.119 310.269 236.956 323.044C236.739 340.688 248.067 355.78 263.919 361.155ZM246.891 323.171C247.017 313.671 251.578 305.256 258.599 299.9C263.702 295.991 270.108 293.711 277.039 293.801C289.76 293.964 300.527 302.089 304.635 313.399V313.417C305.612 316.095 306.209 318.973 306.372 321.959C306.409 322.61 306.409 323.28 306.409 323.949C306.318 330.681 304.002 336.852 300.183 341.792C294.664 348.922 285.978 353.446 276.279 353.337C273.076 353.301 269.999 352.74 267.104 351.781C255.215 347.727 246.728 336.399 246.891 323.171Z" fill="#96FFEA"/>
<path d="M300.183 341.774L308.037 347.854C300.672 357.355 289.091 363.399 276.152 363.236C271.881 363.181 267.773 362.458 263.937 361.155L267.122 351.745C269.999 352.722 273.076 353.265 276.279 353.301C285.978 353.428 294.664 348.886 300.183 341.774Z" fill="#498794"/>
<path d="M313.973 309.997L304.635 313.399V313.417C305.866 316.837 306.445 320.402 306.408 323.949C306.318 330.681 304.002 336.852 300.183 341.792L308.037 347.872C313.14 341.285 316.235 333.051 316.343 324.076C316.397 319.208 315.601 314.467 313.973 309.997Z" fill="#42AAAB"/>
<path d="M252.79 291.847C259.576 286.726 268.027 283.74 277.184 283.866C294.158 284.084 308.508 294.941 313.991 309.997L304.653 313.399V313.381C300.527 302.089 289.76 293.964 277.039 293.801C270.108 293.711 263.72 295.991 258.599 299.899L252.79 291.847Z" fill="#5BDBC2"/>
<path d="M383.281 490.632C383.281 490.379 383.281 490.143 383.263 489.89C383.263 489.8 383.263 489.727 383.263 489.637C383.19 488.153 382.883 486.741 382.394 485.402C380.367 479.811 375.029 475.775 368.713 475.685C365.311 475.649 362.163 476.752 359.647 478.652C356.137 481.313 353.838 485.493 353.766 490.252C353.676 496.803 357.892 502.413 363.791 504.421C365.221 504.91 366.741 505.181 368.333 505.199C370.143 505.217 371.862 504.928 373.473 504.349C376.151 503.39 378.467 501.689 380.186 499.481C381.851 497.328 382.955 494.686 383.208 491.808C383.263 491.428 383.281 491.03 383.281 490.632ZM357.476 490.306C357.512 486.778 359.213 483.647 361.819 481.656C363.719 480.209 366.089 479.358 368.677 479.394C373.4 479.449 377.4 482.471 378.938 486.669C379.3 487.664 379.517 488.732 379.589 489.836C379.607 490.089 379.607 490.324 379.607 490.578C379.589 491.645 379.426 492.677 379.119 493.654C378.721 494.957 378.105 496.151 377.291 497.201C377.001 497.581 376.676 497.943 376.332 498.287C374.305 500.295 371.5 501.526 368.406 501.49C367.591 501.472 366.795 501.381 366.035 501.2C365.691 501.128 365.329 501.019 365.004 500.911C360.57 499.427 357.421 495.228 357.476 490.306Z" fill="#E3F2FF"/>
<path d="M435.994 409.598H360.443C350.274 409.598 342.022 401.346 342.022 391.176V302.288C342.022 292.118 350.274 283.867 360.443 283.867H435.994C446.164 283.867 454.416 292.118 454.416 302.288V391.176C454.416 401.346 446.164 409.598 435.994 409.598Z" fill="#42AAAB"/>
<path d="M315.999 389.529H242.403C240.086 389.529 238.223 387.647 238.223 385.349V384.824C238.223 382.508 240.105 380.644 242.403 380.644H315.999C318.316 380.644 320.18 382.526 320.18 384.824V385.349C320.18 387.665 318.316 389.529 315.999 389.529Z" fill="#5BDBC2"/>
<path d="M315.999 409.598H242.403C240.086 409.598 238.223 407.716 238.223 405.418V404.893C238.223 402.576 240.105 400.713 242.403 400.713H315.999C318.316 400.713 320.18 402.595 320.18 404.893V405.418C320.18 407.716 318.316 409.598 315.999 409.598Z" fill="#5BDBC2"/>
<g opacity="0.78">
<path d="M761.451 578.162H613.77C606.043 578.162 599.781 571.901 599.781 564.174V473.947C599.781 466.22 606.043 459.959 613.77 459.959H761.451C769.178 459.959 775.44 466.22 775.44 473.947V564.174C775.44 571.901 769.178 578.162 761.451 578.162Z" fill="#498794"/>
</g>
<path d="M671.224 524.164H622.763C619.85 524.164 617.479 521.793 617.479 518.88V479.358C617.479 476.445 619.85 474.074 622.763 474.074H671.224C674.138 474.074 676.509 476.445 676.509 479.358V518.88C676.509 521.793 674.138 524.164 671.224 524.164Z" fill="#E3F2FF"/>
<path d="M759.226 487.447H689.466C687.764 487.447 686.371 486.054 686.371 484.353V477.186C686.371 475.485 687.746 474.092 689.466 474.092H759.226C760.927 474.092 762.32 475.485 762.32 477.186V484.353C762.32 486.054 760.945 487.447 759.226 487.447Z" fill="#E3F2FF"/>
<path d="M759.226 508.33H689.466C687.764 508.33 686.371 506.936 686.371 505.235V498.069C686.371 496.368 687.746 494.975 689.466 494.975H759.226C760.927 494.975 762.32 496.368 762.32 498.069V505.235C762.32 506.955 760.945 508.33 759.226 508.33Z" fill="#E3F2FF"/>
<path d="M759.515 561.985H732.607C731.05 561.985 729.802 560.718 729.802 559.18V557.913C729.802 556.357 731.069 555.108 732.607 555.108H759.515C761.072 555.108 762.32 556.375 762.32 557.913V559.18C762.32 560.718 761.072 561.985 759.515 561.985Z" fill="#E3F2FF"/>
<path d="M741.636 606.881C741.636 606.881 738.832 601.977 743.283 588.821C747.59 576.1 762.465 577.258 767.206 585.401C771.929 593.544 770.337 598.611 763.37 607.804C756.403 617.015 744.532 611.097 741.636 606.881Z" fill="#EEA886"/>
<path d="M776.218 833.117C776.218 833.117 776.96 838.51 777.05 839.324C777.141 840.138 785.248 838.854 785.248 838.854L785.899 832.43C785.881 832.43 777.231 832.357 776.218 833.117Z" fill="#EEA886"/>
<path d="M776.96 838.637C776.96 838.637 774.39 841.894 771.911 843.306C769.432 844.717 765.523 845.278 764.057 846.762C762.99 847.83 760.203 852.39 770.517 852.299C780.832 852.209 785.809 852.951 786.912 851.195C788.016 849.44 785.32 838.293 785.32 838.293C785.32 838.293 782.769 838.999 776.96 838.637Z" fill="#5377B3"/>
<path d="M720.102 833.117C720.102 833.117 720.844 838.51 720.934 839.324C721.025 840.139 729.132 838.854 729.132 838.854L729.783 832.43C729.783 832.43 721.115 832.357 720.102 833.117Z" fill="#EEA886"/>
<path d="M720.844 838.637C720.844 838.637 718.274 841.894 715.795 843.305C713.316 844.717 704.178 845.893 702.712 847.359C701.644 848.427 699.889 852.679 714.402 852.281C724.717 851.992 729.693 852.933 730.797 851.177C731.901 849.422 729.204 838.275 729.204 838.275C729.204 838.275 725.983 838.854 720.844 838.637Z" fill="#5B83C2"/>
<path d="M773.485 698.664C773.485 698.664 777.647 711.566 777.086 722.695C776.544 733.824 779.24 746.003 780.326 757.621C781.556 770.577 786.587 801.25 786.768 808.181C786.949 815.112 785.99 837.243 785.99 837.243L775.928 837.479C775.928 837.479 767.477 783.86 765.288 778.377C763.098 772.912 752.241 733.897 751.879 729.518C751.517 725.138 773.485 698.664 773.485 698.664Z" fill="#2F4563"/>
<path d="M731.774 697.307C731.774 697.307 725.657 731.436 724.933 738.24C724.209 745.044 723.721 771.193 723.359 775.446C722.997 779.698 720.934 831.127 718.98 837.461H730.199C730.199 837.461 741.726 800.074 741.726 782.376C741.726 764.678 749.345 743.922 754.285 732.25C759.207 720.578 770.481 720.307 773.503 698.646C773.485 698.664 735.863 690.448 731.774 697.307Z" fill="#354C70"/>
<path d="M745.708 610.355C745.708 610.355 746.974 614.047 745.708 616.671C744.441 619.295 761.867 617.72 761.867 617.72C761.867 617.72 761.071 612.291 763.351 607.822C765.631 603.352 745.708 610.355 745.708 610.355Z" fill="#EEA886"/>
<path d="M774.3 701.469C774.3 701.469 768.039 707.911 731.213 700.474L731.774 697.325L773.63 698.899L774.3 701.469Z" fill="#2B3B57"/>
<path d="M743.066 617.521C743.066 617.521 736.624 618.173 734.778 618.535C732.932 618.878 720.554 616.327 718.021 616.055C715.487 615.784 704.648 608.365 704.304 607.496C703.96 606.627 697.717 590.83 697.355 587.409C697.011 583.989 691.275 585.763 691.764 588.115C692.686 592.513 693.863 603.207 694.514 606.302C695.22 609.649 697.084 617.232 698.133 618.155C699.183 619.096 708.937 626.515 718.491 629.664C728.046 632.812 735.23 637.463 735.23 637.463H782.298C782.298 637.463 800.611 611.296 800.991 607.351C801.389 603.406 788.197 577.203 785.573 573.928C782.949 570.653 779.149 574.996 779.149 574.996C779.149 574.996 787.021 598.104 788.071 601.38C789.12 604.673 778.914 619.096 776.109 619.15C773.304 619.186 766.102 618.281 762.899 618.137C759.696 618.01 756.33 616.598 756.33 616.598L743.066 617.521Z" fill="#EEA886"/>
<path d="M722.78 635.002C722.78 635.002 728.535 638.838 729.06 645.407C729.584 651.976 731.684 662.363 732.733 665.91C733.783 669.457 731.81 695.226 731.557 697.053C731.304 698.881 767.984 703.26 773.612 698.899C773.612 698.899 775.186 674.849 775.838 668.009C776.489 661.169 779.656 644.611 780.706 642.385C781.755 640.141 794.513 622.262 795.038 619.91C795.038 619.91 788.451 609.396 783.71 609.269C783.71 609.269 776.2 618.082 773.739 618.462C771.296 618.86 756.276 616.11 756.276 616.074C756.276 616.074 754.629 618.299 745.925 615.675C745.925 615.675 735.556 616.852 733.855 617.069C731.81 617.322 717.605 615.277 717.605 615.277C717.605 615.277 711.905 624.904 712.9 629.754L722.78 635.002Z" fill="#42AAAB"/>
<path d="M697.681 589.455C697.681 589.455 696.396 583.356 697.952 581.619C698.839 580.624 700.956 577.982 701.155 577.602C701.354 577.222 703.616 575.901 703.616 575.285C703.616 574.652 701.39 573.874 699.454 575.665C697.518 577.457 696.305 577.837 695.527 577.656C694.749 577.457 693.645 571.015 693.537 569.422C693.446 567.83 692.831 563.613 691.818 563.903C690.822 564.192 690.877 566.038 690.877 566.038C690.877 566.038 689.718 562.835 688.94 563.469C688.162 564.102 688.253 565.64 688.253 565.64C688.253 565.64 686.805 563.849 686.407 565.152C686.027 566.454 686.407 567.631 686.407 567.631C686.407 567.631 684.905 566.798 684.814 568.843C684.724 570.87 685.249 576.823 686.316 578.959C687.384 581.094 691.365 586.668 691.836 588.839C692.324 591.011 697.681 589.455 697.681 589.455Z" fill="#EEA886"/>
<path d="M780.434 578.76C780.434 578.76 776.055 571.394 774.571 570.743C773.087 570.092 770.97 569.712 769.142 568.391C767.296 567.07 764.871 565.984 764.998 565.549C765.125 565.115 767.296 565.278 769.613 566.291C771.929 567.305 772.96 566.816 773.177 566.291C773.395 565.767 771.947 562.057 771.241 561.17C770.535 560.302 765.541 555.271 766.373 554.529C767.206 553.787 770.445 556.538 770.97 557.117C770.97 557.117 768.382 551.688 769.395 551.416C770.409 551.163 772.291 553.081 772.291 553.081C772.291 553.081 772.074 548.431 777.068 555.977C777.068 555.977 776.018 553.479 777.557 554.312C779.095 555.144 780.579 559.831 781.067 562.202C781.556 564.572 783.727 572.1 785.591 573.928C787.437 575.738 780.434 578.76 780.434 578.76Z" fill="#EEA886"/>
<path d="M763.369 607.822C763.369 607.822 761.053 608.021 756.149 606.338C751.245 604.637 750.883 596.06 749.815 597.073C747.644 599.154 745.599 597.706 744.785 596.494C744.785 596.494 747.173 593.345 746.069 591.825C744.966 590.305 743.156 589.201 743.156 589.201C743.156 589.201 746.612 572.571 762.302 580.153C780.705 589.02 763.369 607.822 763.369 607.822Z" fill="#353A3D"/>
<path d="M745.708 616.671L746.268 614.264C746.268 614.264 756.294 614.065 761.759 614.861L762.338 617.738C762.32 617.72 755.317 620.905 745.708 616.671Z" fill="#5BDBC2"/>
<path d="M748.169 594.974C749.074 593.454 752.44 592.44 752.838 596.729C753.145 600.059 746.812 603.678 746.757 600.584C746.721 597.489 747.572 595.987 748.169 594.974Z" fill="#EEA886"/>
<path d="M697.446 588.061C697.446 588.061 693.826 588.151 692.071 589.726C692.071 589.726 691.963 590.739 692.361 591.535C692.361 591.535 695.491 590.07 697.898 589.798C697.916 589.798 697.862 588.495 697.446 588.061Z" fill="#E55353"/>
<path d="M693.175 588.966C692.85 589.762 693.212 590.667 694.008 591.011C694.804 591.354 695.709 590.974 696.053 590.178C696.396 589.382 696.016 588.477 695.22 588.133C694.424 587.808 693.519 588.188 693.175 588.966Z" fill="#353A3D"/>
<g opacity="0.78">
<path d="M398.463 589.78H279.717C274.288 589.78 269.891 585.383 269.891 579.954V548.829C269.891 543.4 274.288 539.003 279.717 539.003H398.463C403.892 539.003 408.289 543.4 408.289 548.829V579.954C408.289 585.383 403.892 589.78 398.463 589.78Z" fill="#498794"/>
</g>
<path d="M162.328 688.675C162.328 688.675 162.871 691.643 164.536 692.077C165.947 692.457 167.522 693.959 167.992 694.411C168.643 695.027 171.322 696.203 170.544 697.017C169.765 697.832 166.02 695.316 165.133 694.936C164.246 694.556 165.513 698.7 165.151 699.641C164.789 700.582 157.822 702.301 157.279 699.37C156.736 696.438 158.075 692.928 157.876 692.439C157.677 691.95 157.388 690.322 157.388 690.322L162.328 688.675Z" fill="#EEA886"/>
<path d="M165.223 698.935C165.223 698.935 166.309 708.038 165.875 708.707C165.441 709.377 164.934 709.395 164.807 708.562C164.662 707.712 163.504 699.804 163.504 699.804C163.504 699.804 162.979 710.788 162.744 711.422C162.599 711.784 161.64 711.91 161.532 711.458C161.423 711.005 161.315 700.094 161.315 700.094C161.315 700.094 160.808 710.354 160.446 710.806C160.138 711.205 159.234 711.096 159.215 710.336C159.197 709.576 159.143 700.021 159.143 700.021C159.143 700.021 158.311 707.459 157.768 707.676C157.442 707.802 156.628 707.947 156.899 706.029C157.171 704.111 157.352 699.533 157.352 699.533L165.223 698.935Z" fill="#EEA886"/>
<path d="M260.064 577.022C260.064 577.022 261.566 574.235 262.073 572.01C262.58 569.784 265.367 566.816 266.489 566.11C267.629 565.405 275.826 559.523 276.785 559.523C277.744 559.523 277.183 561.351 276.369 561.876C275.555 562.401 268.877 567.594 268.877 567.594C268.877 567.594 277.165 561.876 278.034 562.021C278.902 562.165 279.518 563.269 278.595 564.409C278.595 564.409 280.495 565.658 278.522 567.16L274.596 570.182C274.596 570.182 276.912 568.988 276.043 570.833C275.591 571.811 270.759 574.706 269.999 575.575C269.221 576.461 263.141 579.411 263.141 579.411L260.064 577.022Z" fill="#EEA886"/>
<path d="M211.441 832.05H213.504C213.504 832.05 212.816 824.287 214.716 824.214C216.616 824.142 221.339 830.53 224.162 831.525C226.985 832.52 241.444 833.353 241.516 830.693C241.589 828.033 235.961 826.965 234.206 826.205C232.45 825.445 223.927 817.139 222.407 816.143C220.887 815.148 218.372 810.135 218.372 810.135H210.608C210.608 810.135 209.758 814.352 209.269 817.754C209.088 819.021 208.962 820.161 208.943 820.939C208.853 823.834 211.441 832.05 211.441 832.05Z" fill="#EEA886"/>
<path d="M175.701 830.512H177.42V823.273C178.85 823.4 183.645 827.942 185.129 829.245C186.613 830.566 188.658 830.493 194.901 830.892C201.162 831.29 201.741 827.544 200.764 826.277C199.769 824.992 196.584 824.449 194.901 823.653C193.236 822.857 186.667 815.456 184.912 813.7C183.156 811.945 182.089 806.932 182.089 806.932L174.778 807.566C174.778 807.566 174.832 812.162 174 816.017C174 816.035 174 816.035 174 816.053C173.927 816.379 173.855 816.704 173.765 817.012C172.679 821.011 175.701 830.512 175.701 830.512Z" fill="#EEA886"/>
<path d="M192.82 588.839C192.82 588.839 189.255 596.367 191.155 602.52C191.155 602.52 180.17 601.018 179.845 599.733C179.519 598.448 181.22 586.903 179.953 583.374C178.687 579.845 192.82 588.839 192.82 588.839Z" fill="#EEA886"/>
<path d="M193.073 600.041C193.073 600.041 199.425 602.773 202.32 603.606C205.215 604.438 211.169 607.731 209.902 618.39C208.617 629.049 206.12 638.187 205.107 642.729C204.111 647.271 203.677 658.997 204.347 664.77C204.347 664.77 188.44 667.485 170.344 662.309C170.344 662.309 174.307 652.845 174.398 650.348C174.488 647.832 165.205 626.407 164.952 623.113C164.68 619.82 163.558 605.288 168.716 602.465C173.873 599.642 177.854 600.348 180.044 599.081C182.251 597.833 190.105 598.792 193.073 600.041Z" fill="#42AAAB"/>
<path d="M193.037 616.617C193.037 616.617 190.594 603.805 203.008 603.841C213.92 603.859 224.216 601.796 225.954 600.837C227.691 599.878 234.35 596.602 237.861 593.001C241.371 589.4 260.354 574.959 260.354 574.959L265.602 580.262C265.602 580.262 245.57 602.013 242.349 604.13C239.128 606.248 212.002 621.394 208.563 621.864C205.125 622.335 195.462 624.959 193.037 616.617Z" fill="#42AAAB"/>
<path d="M154.04 656.175C153.66 660.68 156.121 691.806 156.121 691.806L164.952 692.819C164.952 692.819 164.318 662.074 163.83 654.98C163.685 652.881 164.174 649.696 164.916 646.222C165.386 644.014 165.983 641.698 166.58 639.49C168.245 633.392 170.055 628.089 170.055 628.089C170.055 628.089 179.935 602.375 167.54 603.425C167.54 603.425 162.925 608.184 160.989 615.965C159.034 623.765 156.809 635.436 156.718 640.105C156.628 644.774 154.311 652.863 154.04 656.175Z" fill="#42AAAB"/>
<path d="M202.23 664.517C202.23 664.517 205.071 671.248 205.324 672.949C205.577 674.65 214.499 696.872 215.132 703.387C215.766 709.956 217.648 727.509 218.317 730.024C218.987 732.54 216.815 743.759 216.471 746.275C216.127 748.79 216.308 789.832 219.312 810.117C219.312 810.117 212.273 813.139 206.917 810.117C206.917 810.117 198.031 778.449 198.538 760.19C199.045 741.932 201.361 734.223 198.52 726.839C195.679 719.474 179.103 697.361 177.42 695.009C175.737 692.656 165.241 679.699 175.194 665.657C185.147 651.614 202.23 664.517 202.23 664.517Z" fill="#263238"/>
<path d="M167.938 724.505C168.824 730.368 167.883 738.077 166.056 759.521C164.21 780.965 169.277 806.932 169.277 806.932C175.647 809.104 182.976 806.932 182.976 806.932C182.813 805.43 182.976 754.653 182.976 750.129C182.976 745.605 184.278 740.466 184.604 735.272C184.839 731.725 186.486 725.211 188.332 718.551C188.893 716.561 189.454 714.552 190.015 712.616C190.323 711.53 190.63 710.463 190.938 709.413C193.544 700.365 197.054 665.421 197.054 665.421C197.054 665.421 177.601 649.75 168.137 664.499C158.673 679.247 163.522 689.96 163.866 691.805C164.192 693.669 167.051 718.642 167.938 724.505Z" fill="#263238"/>
<path d="M205.614 638.169C205.614 638.169 203.894 665.928 209.052 681.545C209.052 681.545 188.513 684.965 162.328 676.134C162.328 676.134 169.53 657.477 169.277 654.564C169.023 651.65 161.441 617.666 165.078 610.066C168.734 602.465 204.311 613.251 205.614 638.169Z" fill="#42AAAB"/>
<path d="M188.839 557.895C193.525 557.714 205.523 559.524 203.279 577.584C201.053 595.643 194.521 594.087 188.06 591.68C181.6 589.274 174.76 574.67 175.031 570.906C175.321 567.16 175.447 558.438 188.839 557.895Z" fill="#EEA886"/>
<path d="M203.225 569.241C203.225 569.241 197.488 575.556 192.114 576.769C192.114 576.769 187.535 583.736 180.315 585.075C180.315 585.075 166.254 569.531 179.754 559.596C193.217 549.643 203.713 563.704 203.225 569.241Z" fill="#353A3D"/>
<path d="M193.272 574.344C193.164 573.349 191.119 571.159 189.255 573.295C187.391 575.43 190.105 580.913 191.282 581.004C192.458 581.094 193.67 578.163 193.272 574.344Z" fill="#EEA886"/>
<path d="M175.991 693C176.135 693.326 185.835 714.842 188.314 718.57C188.875 716.579 189.436 714.57 189.997 712.634C189.997 712.634 176.316 693.47 175.991 693Z" fill="#161F24"/>
<path d="M164.481 624.181C164.481 624.181 163.794 637.843 164.916 646.222C165.386 644.014 165.983 641.698 166.58 639.49C166.544 639.182 164.662 626.334 164.481 624.181Z" fill="#1E7F80"/>
<path d="M185.219 556.737C185.219 556.737 168.878 556.357 171.34 584.424C173.221 605.994 165.295 616.653 166.417 619.801C167.539 622.95 171.358 628.198 179.935 623.457C188.513 618.716 182.867 593.997 187.481 584.369C192.096 574.742 202.193 570.291 202.193 570.291C202.193 570.291 200.42 553.914 185.219 556.737Z" fill="#353A3D"/>
<path d="M207.26 613.577C207.26 613.577 210.988 626.895 211.875 630.044C213.033 634.134 207.677 641.825 202.936 639.472C198.212 637.083 207.26 613.577 207.26 613.577Z" fill="#42AAAB"/>
<path d="M175.701 830.512H177.42V823.273C178.85 823.4 183.645 827.942 185.129 829.245C186.613 830.566 188.658 830.494 194.901 830.892C201.162 831.29 201.741 827.544 200.764 826.277C199.769 824.992 196.584 824.449 194.901 823.653C188.205 824.015 180.044 814.605 176.117 814.623C174.036 814.641 174.054 815.781 174 815.999C174 816.017 174 816.017 174 816.035C173.927 816.361 173.855 816.686 173.765 816.994C172.679 821.011 175.701 830.512 175.701 830.512Z" fill="#263238"/>
<path d="M211.441 832.05H213.504C213.504 832.05 212.816 824.286 214.716 824.214C216.616 824.142 221.339 830.53 224.162 831.525C226.985 832.52 241.444 833.353 241.516 830.692C241.589 828.032 235.961 826.965 234.206 826.205C228.234 826.187 218.534 819.618 215.53 818.297C212.526 816.958 209.269 817.772 209.269 817.772C209.088 819.039 208.962 820.179 208.943 820.957C208.853 823.834 211.441 832.05 211.441 832.05Z" fill="#263238"/>
<path d="M344.862 625.248H332.268V670.995H344.862V625.248Z" fill="#DDDDDD"/>
<path d="M362.778 620.634H350.183V670.995H362.778V620.634Z" fill="#DDDDDD"/>
<path d="M380.946 630.225H368.351V671.013H380.946V630.225Z" fill="#DDDDDD"/>
<path d="M399.096 611.314H386.501V670.995H399.096V611.314Z" fill="#DDDDDD"/>
<path d="M418.169 617.268H405.574V671.013H418.169V617.268Z" fill="#DDDDDD"/>
<path d="M437.478 625.248H424.884V670.995H437.478V625.248Z" fill="#DDDDDD"/>
<path d="M455.393 620.634H442.798V670.995H455.393V620.634Z" fill="#DDDDDD"/>
<path d="M473.562 630.225H460.967V671.013H473.562V630.225Z" fill="#DDDDDD"/>
<path d="M312.851 562.799C312.851 562.727 312.851 562.654 312.851 562.582C312.778 561.098 312.471 559.686 311.982 558.347C309.955 552.756 304.617 548.72 298.301 548.63C294.899 548.594 291.751 549.697 289.235 551.598C285.725 554.258 283.426 558.438 283.354 563.197C283.264 569.748 287.48 575.358 293.379 577.366C294.809 577.855 296.329 578.126 297.921 578.144C299.785 578.162 301.577 577.837 303.224 577.221C305.829 576.262 308.091 574.579 309.774 572.426C311.439 570.291 312.525 567.667 312.796 564.826C312.833 564.41 312.851 564.011 312.869 563.595C312.869 563.306 312.869 563.052 312.851 562.799ZM287.064 563.233C287.1 559.705 288.801 556.574 291.407 554.583C293.307 553.136 295.677 552.285 298.265 552.321C302.988 552.376 306.988 555.398 308.526 559.596C308.888 560.591 309.105 561.659 309.177 562.763C309.195 563.016 309.195 563.251 309.195 563.505C309.177 564.572 309.014 565.604 308.707 566.581C308.309 567.884 307.693 569.078 306.879 570.128C306.589 570.508 306.264 570.87 305.92 571.214C303.893 573.222 301.088 574.453 297.994 574.417C297.179 574.399 296.383 574.308 295.623 574.127C295.279 574.055 294.936 573.946 294.592 573.838C290.158 572.354 287.009 568.155 287.064 563.233Z" fill="#E3F2FF"/>
<path opacity="0.74" d="M638.471 780.187H539.865C532.917 780.187 527.289 774.559 527.289 767.61V696.022C527.289 689.073 532.917 683.445 539.865 683.445H638.471C645.42 683.445 651.048 689.073 651.048 696.022V767.61C651.048 774.559 645.42 780.187 638.471 780.187Z" fill="#42AAAB"/>
<path d="M635.974 768.515H591.801C587.549 768.515 584.11 765.076 584.11 760.824V701.035C584.11 696.782 587.549 693.344 591.801 693.344H635.974C640.226 693.344 643.664 696.782 643.664 701.035V760.824C643.664 765.076 640.226 768.515 635.974 768.515Z" fill="#E3F2FF"/>
<path d="M567.371 704.057H544.751C542.145 704.057 540.046 701.939 540.046 699.334V698.049C540.046 695.443 542.164 693.344 544.751 693.344H567.371C569.977 693.344 572.076 695.461 572.076 698.049V699.334C572.076 701.939 569.977 704.057 567.371 704.057Z" fill="#E3F2FF"/>
<path d="M567.371 724.071H544.751C542.145 724.071 540.046 721.954 540.046 719.366V718.081C540.046 715.475 542.164 713.376 544.751 713.376H567.371C569.977 713.376 572.076 715.493 572.076 718.081V719.366C572.076 721.954 569.977 724.071 567.371 724.071Z" fill="#E3F2FF"/>
<g clip-path="url(#clip2_13_2)">
<path d="M460.874 693.827C460.446 693.816 452.359 686.729 452.359 686.729L454.587 678.442C454.587 678.442 461.533 681.149 461.774 684.022C462.015 686.894 463.881 693.871 460.874 693.827Z" fill="url(#paint7_linear_13_2)"/>
<path d="M458.01 695.896H415.93C414.657 695.896 413.307 694.861 412.912 693.585L404.101 664.719C403.706 663.442 404.431 662.408 405.703 662.408H447.784C449.056 662.408 450.406 663.442 450.801 664.719L459.612 693.585C460.007 694.861 459.283 695.896 458.01 695.896Z" fill="#42AAAB"/>
<path d="M415.579 694.74C414.942 694.74 414.262 694.223 414.076 693.585L405.264 664.719C405.067 664.081 405.429 663.563 406.065 663.563H448.146C448.782 663.563 449.462 664.081 449.649 664.719L458.46 693.585C458.658 694.223 458.296 694.74 457.659 694.74H415.579Z" fill="white" fill-opacity="0.8"/>
<path d="M439.236 695.588H434.529C434.375 695.588 434.199 695.456 434.156 695.302V695.291C434.112 695.136 434.199 695.004 434.353 695.004H439.06C439.214 695.004 439.39 695.136 439.433 695.291V695.302C439.477 695.467 439.39 695.588 439.236 695.588Z" fill="white" fill-opacity="0.8"/>
<path d="M419.299 683.944C416.742 683.944 414.021 681.864 413.242 679.3C412.836 677.98 413 676.681 413.702 675.735C414.372 674.832 415.436 674.337 416.709 674.337C419.266 674.337 421.987 676.417 422.766 678.981C423.172 680.302 423.007 681.6 422.305 682.547C421.636 683.449 420.571 683.944 419.299 683.944ZM416.698 675.449C415.776 675.449 415.019 675.79 414.569 676.406C414.076 677.077 413.977 677.991 414.284 678.992C414.931 681.116 417.181 682.855 419.299 682.855C420.22 682.855 420.977 682.514 421.427 681.898C421.921 681.226 422.02 680.313 421.713 679.311C421.065 677.176 418.816 675.449 416.698 675.449Z" fill="white"/>
<path d="M412.715 679.466C412.254 677.969 412.452 676.494 413.253 675.416C414.021 674.37 415.25 673.787 416.709 673.787V675.988C415.974 675.988 415.37 676.252 415.019 676.725C414.635 677.243 414.558 677.991 414.811 678.816L412.715 679.466Z" fill="#42AAAB"/>
<path d="M433.157 683.944C430.601 683.944 427.879 681.865 427.1 679.3C426.694 677.98 426.859 676.681 427.561 675.735C428.23 674.832 429.295 674.337 430.568 674.337C433.124 674.337 435.845 676.417 436.625 678.981C437.031 680.302 436.866 681.6 436.164 682.547C435.505 683.449 434.43 683.944 433.157 683.944ZM430.568 675.449C429.646 675.449 428.889 675.79 428.439 676.406C427.945 677.077 427.846 677.991 428.154 678.992C428.801 681.116 431.05 682.855 433.168 682.855C434.09 682.855 434.847 682.514 435.297 681.898C435.791 681.237 435.889 680.313 435.582 679.311C434.924 677.176 432.674 675.449 430.568 675.449Z" fill="white"/>
<path d="M426.574 679.466C426.113 677.969 426.31 676.494 427.111 675.416C427.879 674.37 429.108 673.787 430.568 673.787V675.988C429.832 675.988 429.229 676.252 428.878 676.725C428.494 677.243 428.417 677.991 428.669 678.816L426.574 679.466Z" fill="#42AAAB"/>
<path d="M447.027 683.944C444.47 683.944 441.749 681.865 440.97 679.3C440.564 677.98 440.728 676.681 441.431 675.735C442.1 674.832 443.164 674.337 444.437 674.337C446.994 674.337 449.715 676.417 450.494 678.981C450.9 680.302 450.735 681.6 450.033 682.547C449.364 683.449 448.3 683.944 447.027 683.944ZM444.426 675.449C443.504 675.449 442.747 675.79 442.297 676.406C441.804 677.077 441.705 677.991 442.012 678.992C442.66 681.116 444.909 682.855 447.027 682.855C447.948 682.855 448.706 682.514 449.155 681.898C449.649 681.226 449.748 680.313 449.441 679.311C448.793 677.176 446.544 675.449 444.426 675.449Z" fill="white"/>
<path d="M440.443 679.466C439.982 677.969 440.18 676.494 440.981 675.416C441.749 674.37 442.978 673.787 444.437 673.787V675.988C443.702 675.988 443.098 676.252 442.747 676.725C442.363 677.243 442.286 677.991 442.539 678.816L440.443 679.466Z" fill="#42AAAB"/>
<path opacity="0.5" d="M420.176 680.027H416.358L415.82 678.266H419.639L420.176 680.027Z" fill="white"/>
<path opacity="0.5" d="M434.035 680.027H430.216L429.679 678.266H433.508L434.035 680.027Z" fill="white"/>
<path opacity="0.5" d="M447.904 680.027H444.086L443.548 678.266H447.367L447.904 680.027Z" fill="white"/>
<path d="M427.045 830.111C424.16 831.267 420.824 829.946 419.617 827.184C419.496 826.92 419.408 826.623 419.321 826.271L418.86 824.323L405.66 767.648L405.1 765.215C404.156 761.188 406.362 757.116 410.334 755.531C414.844 753.737 420.045 755.784 421.921 760.109C422.217 760.802 422.426 761.551 422.525 762.343L422.821 764.621H422.832L430.216 822.287L430.48 824.422C430.798 826.843 429.383 829.187 427.045 830.111Z" fill="url(#paint8_linear_13_2)"/>
<path d="M432.323 821.792L431.775 818.347L424.181 820.493L423.479 823.266L421.318 821.296L414.536 823.211L414.394 837.716C414.383 838.794 413.812 839.796 412.88 840.401L406.735 844.33C406.077 844.748 405.78 845.529 406.011 846.255L406.022 846.277C406.274 847.092 407.108 847.609 407.997 847.499L420.945 845.771C421.921 845.639 422.777 845.122 423.326 844.33L428.549 836.714L431.05 843.493L434.715 842.459L436.186 827.624L432.323 821.792Z" fill="url(#paint9_linear_13_2)"/>
<path d="M428.549 836.714L431.061 843.493L434.715 842.459L435.867 830.86L428.549 836.714Z" fill="url(#paint10_linear_13_2)"/>
<path d="M429.339 806.363C428.823 802.049 423.655 758.337 423.655 758.337L423.523 757.336L423.337 755.905C423.216 754.948 422.964 754.046 422.602 753.209C420.945 749.401 417.104 746.936 412.803 746.936C411.409 746.936 410.049 747.201 408.754 747.718C403.981 749.622 401.336 754.53 402.478 759.383L403.07 761.98C403.07 761.98 412.134 801.301 414.021 808.52C415.908 815.75 429.844 810.688 429.339 806.363Z" fill="url(#paint11_linear_13_2)"/>
<path d="M481.624 657.555C485.936 655.882 490.841 657.885 492.585 662.012C493.024 663.068 493.222 664.158 493.2 665.214C492.925 676.538 492.925 676.571 492.662 687.829C492.662 687.851 492.662 687.884 492.662 687.906C492.662 687.917 492.662 687.917 492.662 687.917C492.585 691.043 490.61 693.97 487.406 695.213C483.094 696.886 478.189 694.883 476.444 690.756C476.006 689.7 475.808 688.611 475.83 687.554C476.104 676.23 476.104 676.197 476.368 664.939C476.368 664.917 476.368 664.884 476.368 664.862C476.368 664.851 476.368 664.851 476.368 664.851C476.444 661.737 478.409 658.798 481.624 657.555Z" fill="url(#paint12_linear_13_2)"/>
<path d="M477.959 670.001L478.244 670.067C485.936 671.828 493.661 667.283 495.493 659.91L497.655 651.227C499.487 643.854 494.747 636.458 487.055 634.698L486.77 634.642C479.078 632.882 471.353 637.427 469.521 644.8L467.359 653.483C465.527 660.845 470.267 668.24 477.959 670.001Z" fill="url(#paint13_linear_13_2)"/>
<path d="M473.613 681.49L495.438 680.555L495.076 675.174C494.999 674.007 493.869 673.16 492.695 673.38L477.805 676.032C475.15 676.505 473.339 678.849 473.613 681.446V681.49Z" fill="url(#paint14_linear_13_2)"/>
<path d="M379.896 835.68C376.768 835.68 374.223 833.237 374.223 830.243C374.223 829.957 374.256 829.649 374.322 829.297L374.684 827.327L385.228 770.146L385.689 767.703C386.435 763.642 390.1 760.693 394.402 760.693C399.284 760.693 403.257 764.5 403.257 769.177C403.257 769.926 403.147 770.696 402.916 771.466L402.28 773.678H402.291L385.975 829.638L385.371 831.707C384.68 834.051 382.43 835.68 379.896 835.68Z" fill="url(#paint15_linear_13_2)"/>
<path d="M387.412 829.473L387.818 826.447L373.323 824.73L366.07 837.969C365.631 838.959 363.81 839.763 362.701 839.972L355.449 841.336C354.68 841.479 354.088 842.096 354.011 842.844V842.877C353.912 843.724 354.483 844.506 355.339 844.726L367.99 847.906C368.934 848.148 369.943 847.983 370.766 847.455L378.645 842.349L378.239 849.524L382.035 849.92L389.343 836.769L387.412 829.473Z" fill="url(#paint16_linear_13_2)"/>
<path d="M378.645 842.338L378.239 849.513L382.035 849.909L387.752 839.62L378.645 842.338Z" fill="url(#paint17_linear_13_2)"/>
<path d="M492.563 755.41V755.069C492.563 745.869 484.663 738.672 475.534 739.552L395.729 747.222L395.532 747.255C395.246 747.288 394.972 747.332 394.698 747.387L394.511 747.431C394.259 747.487 393.996 747.553 393.743 747.619L393.524 747.685C393.293 747.762 393.063 747.839 392.832 747.927L392.58 748.026C392.383 748.114 392.174 748.202 391.966 748.301L391.669 748.455C391.494 748.543 391.329 748.642 391.154 748.741C391.033 748.807 390.923 748.884 390.814 748.95C390.671 749.038 390.528 749.137 390.397 749.236C390.265 749.324 390.144 749.423 390.023 749.522C389.914 749.61 389.804 749.698 389.683 749.798C389.541 749.919 389.409 750.04 389.277 750.15L389.036 750.392C388.893 750.535 388.74 750.689 388.608 750.832L388.443 751.019C388.29 751.195 388.147 751.382 388.004 751.569L387.917 751.701C387.763 751.91 387.62 752.131 387.445 752.406C386.819 753.451 386.392 754.574 386.172 755.74L385.942 756.94C384.559 764.467 382.858 773.722 381.19 782.856C379.556 791.759 377.152 805.603 376.242 810.566C375.331 815.53 390.034 818.446 391.34 814.495C392.646 810.533 405.067 768.286 405.067 768.286L476.433 770.982C485.245 771.323 492.563 764.258 492.563 755.41Z" fill="url(#paint18_linear_13_2)"/>
<path d="M492.201 758.998C489.228 766.525 443.318 746.639 447.411 741.698C452.886 735.106 456.924 730.407 456.924 730.407C456.924 730.407 454.071 689.854 456.485 686.993C460.249 682.525 472.363 680.665 485.168 679.322C495.855 678.2 500.025 682.514 501.111 684.979C503.756 690.977 490.424 739.486 490.424 739.486C490.424 739.486 493.869 754.794 492.201 758.998Z" fill="#42AAAB"/>
<path d="M443.384 719.116C440.114 716.673 425.926 705.008 420.637 700.111C419.046 698.306 418.081 697.084 418.026 697.018C417.828 696.743 418.245 693.871 418.092 693.112C417.938 692.352 417.85 689.194 417.751 688.831C417.642 688.456 414.635 684.418 414.306 684.033C413.966 683.647 412.616 683.647 413.011 685.155C413.406 686.663 414.405 688.423 413.867 688.467C413.329 688.523 411.519 686.938 411.332 686.696C411.146 686.454 411.146 680.137 411.135 679.543C411.124 678.948 409.577 677.76 409.259 678.981C408.94 680.203 408.26 685.98 408.26 685.98C408.26 685.98 406.197 689.777 406.504 690.514C406.57 690.679 406.713 691.01 406.713 691.01C406.713 691.01 406.23 691.67 406.219 692.066C406.197 692.462 406.669 693.332 406.669 693.332C406.669 693.332 406.581 694.718 406.647 695.037C406.713 695.357 411.014 701.057 412.924 702.708C412.978 702.752 434.232 739.244 444.272 732.707C449.945 728.998 447.049 721.856 443.384 719.116Z" fill="url(#paint19_linear_13_2)"/>
<path d="M430.447 707.803C430.447 707.803 429.69 707.319 427.287 705.36C424.884 703.401 417.422 711.148 419.595 713.988C421.23 716.134 423.457 718.852 423.457 718.852L430.447 707.803Z" fill="url(#paint20_linear_13_2)"/>
<path d="M472.363 692.396C472.363 687.631 468.336 683.768 463.354 683.768C459.887 683.768 456.88 685.65 455.377 688.401C449.276 699.582 445.03 707.374 440.619 715.451C437.448 713.041 432.301 709.069 431.04 708.144C428.121 706.009 419.935 714.956 422.404 718.115C423.995 720.15 429.986 727.183 432.279 729.329C434.397 731.32 436.504 732.883 438.49 733.774C439.499 734.303 440.652 734.6 441.881 734.6H441.892C441.892 734.6 441.892 734.6 441.903 734.6C441.924 734.6 441.946 734.6 441.968 734.6C444.437 734.567 446.599 733.334 447.839 731.485C455.509 720.062 461.193 711.578 470.936 697.062C471.836 695.709 472.363 694.113 472.363 692.396Z" fill="#172B36"/>
<path d="M513.543 698.108H470.333C468.127 698.108 466.174 699.549 465.505 701.662L444.47 768.913H408.962C407.207 768.913 405.791 770.344 405.791 772.094V772.16C405.791 773.92 407.218 775.34 408.962 775.34H442.451H494.582H496.261L518.36 704.689C519.392 701.431 516.956 698.108 513.543 698.108Z" fill="#2F8D8E"/>
<path d="M468.709 775.351H460.874V829.759H468.709V775.351Z" fill="#CFEDED"/>
<path d="M470.706 775.351H458.998V784.001H470.706V775.351Z" fill="#42AAAB"/>
<path d="M469.29 804.294H460.402V833.501H469.29V804.294Z" fill="#5BDBC2"/>
<path d="M426.628 847.114C426.628 849.81 428.812 852 431.5 852C434.189 852 436.372 849.81 436.372 847.114C436.372 844.418 434.189 842.228 431.5 842.228C428.812 842.228 426.628 844.418 426.628 847.114Z" fill="#172B36"/>
<path d="M428.966 847.114C428.966 848.522 430.107 849.667 431.511 849.667C432.916 849.667 434.057 848.522 434.057 847.114C434.057 845.705 432.916 844.561 431.511 844.561C430.107 844.561 428.966 845.705 428.966 847.114Z" fill="white"/>
<path d="M430.612 836.824H428.889V843.119H430.612V836.824Z" fill="#172B36"/>
<path d="M502.944 847.114C502.944 849.81 500.76 852 498.072 852C495.383 852 493.2 849.81 493.2 847.114C493.2 844.418 495.383 842.228 498.072 842.228C500.76 842.228 502.944 844.418 502.944 847.114Z" fill="#172B36"/>
<path d="M500.617 847.114C500.617 848.522 499.476 849.667 498.072 849.667C496.667 849.667 495.526 848.522 495.526 847.114C495.526 845.705 496.667 844.561 498.072 844.561C499.476 844.561 500.617 845.705 500.617 847.114Z" fill="white"/>
<path d="M500.683 836.824H498.96V843.119H500.683V836.824Z" fill="#172B36"/>
<path d="M463.299 848.677C465.99 848.677 468.171 846.489 468.171 843.79C468.171 841.092 465.99 838.904 463.299 838.904C460.608 838.904 458.427 841.092 458.427 843.79C458.427 846.489 460.608 848.677 463.299 848.677Z" fill="#172B36"/>
<path d="M465.845 843.79C465.845 845.199 464.704 846.343 463.299 846.343C461.895 846.343 460.753 845.199 460.753 843.79C460.753 842.382 461.895 841.237 463.299 841.237C464.704 841.237 465.845 842.382 465.845 843.79Z" fill="white"/>
<path d="M465.911 833.501H464.188V839.796H465.911V833.501Z" fill="#172B36"/>
<path d="M428.889 840.61L460.347 833.534V827.525L428.889 836.439V840.61Z" fill="#5BDBC2"/>
<path d="M500.749 840.61L469.29 833.534V827.525L500.749 836.439V840.61Z" fill="#5BDBC2"/>
<path d="M447.049 760.67L447.411 759.526H501.221L500.859 760.67H447.049ZM452.952 741.797L452.59 742.942H506.4L506.762 741.797H452.952ZM450.176 750.656L449.814 751.8H503.624L503.986 750.656H450.176ZM461.269 715.209L460.907 716.354H514.717L515.079 715.209H461.269ZM464.045 706.35L463.683 707.495H517.493L517.855 706.35H464.045ZM458.493 724.079L458.131 725.224H511.941L512.303 724.079H458.493ZM455.728 732.938L455.366 734.083H509.176L509.538 732.938H455.728Z" fill="#1E7576"/>
<path d="M501.111 653.054C501.045 653.054 500.99 653.065 500.925 653.065C501.045 651.975 501.155 650.919 501.243 649.939C502.099 640.464 497.556 635.765 491.455 634.07L490.062 633.674L489.798 633.597L484.696 632.178C484.07 631.836 483.401 631.55 482.688 631.352C477.827 629.999 472.758 632.64 471.276 637.251L477.278 638.924C476.017 641.95 476.017 648.377 480.406 651.029C480.658 650.963 480.91 650.93 481.185 650.93C482.984 650.93 484.433 652.393 484.433 654.187C484.433 655.607 483.522 656.806 482.249 657.258C482.743 658.468 488.46 698.977 501.111 698.977C513.752 698.977 524.011 688.699 524.011 676.01C524 663.332 513.752 653.054 501.111 653.054Z" fill="#263238"/>
</g>
<defs>
<linearGradient id="paint0_linear_13_2" x1="872.174" y1="868.187" x2="930.527" y2="868.187" gradientUnits="userSpaceOnUse">
<stop stop-color="#D1FFF4"/>
<stop offset="1" stop-color="#ECF3FF"/>
</linearGradient>
<linearGradient id="paint1_linear_13_2" x1="874.999" y1="843.487" x2="929.519" y2="843.487" gradientUnits="userSpaceOnUse">
<stop stop-color="white"/>
<stop offset="1" stop-color="#ECFFF9"/>
</linearGradient>
<linearGradient id="paint2_linear_13_2" x1="902.259" y1="810.458" x2="902.259" y2="822.316" gradientUnits="userSpaceOnUse">
<stop stop-color="#5BDBC2"/>
<stop offset="1" stop-color="#42AAAB"/>
</linearGradient>
<linearGradient id="paint3_linear_13_2" x1="914.647" y1="789.284" x2="965.999" y2="789.284" gradientUnits="userSpaceOnUse">
<stop stop-color="#42AAAB"/>
<stop offset="1" stop-color="#5BDBC2"/>
</linearGradient>
<linearGradient id="paint4_linear_13_2" x1="847.251" y1="786.813" x2="861.689" y2="763.274" gradientUnits="userSpaceOnUse">
<stop stop-color="#42AAAB"/>
<stop offset="1" stop-color="#5BDBC2"/>
</linearGradient>
<linearGradient id="paint5_linear_13_2" x1="920.733" y1="780.802" x2="957.19" y2="721.365" gradientUnits="userSpaceOnUse">
<stop stop-color="#498794"/>
<stop offset="1" stop-color="#5BDBC2"/>
</linearGradient>
<linearGradient id="paint6_linear_13_2" x1="876.925" y1="766.878" x2="911.175" y2="766.878" gradientUnits="userSpaceOnUse">
<stop stop-color="#42AAAB"/>
<stop offset="1" stop-color="#5BDBC2"/>
</linearGradient>
<linearGradient id="paint7_linear_13_2" x1="452.512" y1="686.388" x2="461.33" y2="685.977" gradientUnits="userSpaceOnUse">
<stop stop-color="#E85F5A"/>
<stop offset="1" stop-color="#EEC9C8"/>
</linearGradient>
<linearGradient id="paint8_linear_13_2" x1="420.465" y1="808.117" x2="424.965" y2="837.914" gradientUnits="userSpaceOnUse">
<stop stop-color="#E89492"/>
<stop offset="0.074" stop-color="#E99A98"/>
<stop offset="0.4304" stop-color="#ECB4B3"/>
<stop offset="0.7502" stop-color="#EDC4C2"/>
<stop offset="1" stop-color="#EEC9C8"/>
</linearGradient>
<linearGradient id="paint9_linear_13_2" x1="400.577" y1="846.892" x2="436.848" y2="825.829" gradientUnits="userSpaceOnUse">
<stop stop-color="#1D2729"/>
<stop offset="1" stop-color="#2A4A4A"/>
</linearGradient>
<linearGradient id="paint10_linear_13_2" x1="431.301" y1="837.118" x2="438.272" y2="837.307" gradientUnits="userSpaceOnUse">
<stop stop-color="#5BDBC2" stop-opacity="0.3"/>
<stop offset="1" stop-color="#325D75"/>
</linearGradient>
<linearGradient id="paint11_linear_13_2" x1="415.229" y1="768.746" x2="426.566" y2="822.772" gradientUnits="userSpaceOnUse">
<stop stop-color="#354C70"/>
<stop offset="1" stop-color="#354C70"/>
</linearGradient>
<linearGradient id="paint12_linear_13_2" x1="484.219" y1="667.182" x2="485.228" y2="699.376" gradientUnits="userSpaceOnUse">
<stop stop-color="#E89492"/>
<stop offset="0.074" stop-color="#E99A98"/>
<stop offset="0.4304" stop-color="#ECB4B3"/>
<stop offset="0.7502" stop-color="#EDC4C2"/>
<stop offset="1" stop-color="#EEC9C8"/>
</linearGradient>
<linearGradient id="paint13_linear_13_2" x1="485.761" y1="653.346" x2="457.747" y2="644.844" gradientUnits="userSpaceOnUse">
<stop stop-color="#E89492"/>
<stop offset="0.074" stop-color="#E99A98"/>
<stop offset="0.4304" stop-color="#ECB4B3"/>
<stop offset="0.7502" stop-color="#EDC4C2"/>
<stop offset="1" stop-color="#EEC9C8"/>
</linearGradient>
<linearGradient id="paint14_linear_13_2" x1="473.579" y1="677.418" x2="495.433" y2="677.418" gradientUnits="userSpaceOnUse">
<stop stop-color="#42AAAB"/>
<stop offset="0.3425" stop-color="#42AAAB"/>
<stop offset="0.6721" stop-color="#42AAAB"/>
<stop offset="0.9965" stop-color="white"/>
<stop offset="1" stop-color="#42AAAB"/>
</linearGradient>
<linearGradient id="paint15_linear_13_2" x1="390.65" y1="812.328" x2="394.888" y2="840.388" gradientUnits="userSpaceOnUse">
<stop stop-color="#E89492"/>
<stop offset="0.074" stop-color="#E99A98"/>
<stop offset="0.4304" stop-color="#ECB4B3"/>
<stop offset="0.7502" stop-color="#EDC4C2"/>
<stop offset="1" stop-color="#EEC9C8"/>
</linearGradient>
<linearGradient id="paint16_linear_13_2" x1="352.843" y1="851.817" x2="390.58" y2="829.903" gradientUnits="userSpaceOnUse">
<stop stop-color="#1B2B2F"/>
<stop offset="1" stop-color="#2C4E4F"/>
</linearGradient>
<linearGradient id="paint17_linear_13_2" x1="381.929" y1="844.682" x2="390.93" y2="844.927" gradientUnits="userSpaceOnUse">
<stop stop-color="#172B36"/>
<stop offset="1" stop-color="#325D75"/>
</linearGradient>
<linearGradient id="paint18_linear_13_2" x1="376.204" y1="777.92" x2="513.046" y2="777.92" gradientUnits="userSpaceOnUse">
<stop stop-color="#354C70"/>
<stop offset="1" stop-color="#2F4563"/>
</linearGradient>
<linearGradient id="paint19_linear_13_2" x1="432.1" y1="706.387" x2="388.771" y2="703.617" gradientUnits="userSpaceOnUse">
<stop stop-color="#E89492"/>
<stop offset="0.074" stop-color="#E99A98"/>
<stop offset="0.4304" stop-color="#ECB4B3"/>
<stop offset="0.7502" stop-color="#EDC4C2"/>
<stop offset="1" stop-color="#EEC9C8"/>
</linearGradient>
<linearGradient id="paint20_linear_13_2" x1="419.201" y1="711.945" x2="430.443" y2="711.945" gradientUnits="userSpaceOnUse">
<stop stop-color="#42AAAB"/>
<stop offset="0.3425" stop-color="#498794"/>
<stop offset="0.6721" stop-color="#42AAAB"/>
<stop offset="1" stop-color="#42AAAB"/>
</linearGradient>
<clipPath id="clip0_13_2">
<rect width="135" height="176.159" fill="white" transform="translate(831 703.719)"/>
</clipPath>
<clipPath id="clip1_13_2">
<rect width="314" height="497" fill="white"/>
</clipPath>
<clipPath id="clip2_13_2">
<rect width="170" height="221" fill="white" transform="translate(354 631)"/>
</clipPath>
</defs>
</svg>
