<svg width="555" height="342" viewBox="0 0 555 342" fill="none" xmlns="http://www.w3.org/2000/svg">
<path d="M503.13 1.87024C496.747 -1.43248 491.636 0.644653 491.636 0.644653C472.11 -1.64338 466.413 21.0698 466.676 28.8849C466.939 36.7 467.833 45.0921 459.115 55.247C433.924 84.5735 486.68 85.8668 486.68 85.8668C487.127 62.4373 515.291 70.9846 514.054 73.3602C550.157 81.999 517.645 9.37895 503.13 1.87024Z" fill="#163560"/>
<path d="M427.808 99.555C427.808 99.555 424.373 94.3423 421.608 94.2388C418.839 94.1354 413.716 92.7068 414.127 93.7295C414.538 94.7521 417.714 94.8556 418.021 95.4684C418.328 96.0812 413.305 97.0004 411.869 97.1038C410.432 97.2073 407.049 97.1038 407.153 97.8201C407.257 98.5363 413.249 101.501 417.478 101.091C421.708 100.681 426.934 102.317 426.934 102.317L427.808 99.555Z" fill="#FFB27D"/>
<path d="M477.468 101.238C477.468 101.238 475.601 104.923 472.218 109.161C468.136 114.258 461.844 120.147 453.945 121.309C450.17 121.862 446.48 121.055 443.088 119.551C443.08 119.547 443.076 119.547 443.076 119.547C433.481 115.301 426.268 105.532 426.268 105.532C424.576 100.932 427.345 97.8123 427.345 97.8123C427.345 97.8123 446.719 102.158 448.562 101.238C450.406 100.319 461.17 69.393 463.731 65.5094C466.297 61.6217 475.03 59.6042 475.03 59.6042L477.468 101.238Z" fill="#F9DDBF"/>
<path d="M472.217 109.161C468.136 114.258 461.844 120.147 453.945 121.309C450.17 121.862 446.48 121.055 443.088 119.55C443.463 119.598 453.047 120.78 456.865 113.964C460.759 107.012 464.972 95.9699 470.761 99.6506C473.259 101.242 473.147 105.19 472.217 109.161Z" fill="#F2CCAA"/>
<path d="M549.746 309.811C549.746 309.811 555.659 315.191 554.506 319.015C553.353 322.839 548.019 325.386 547.296 330.061C546.574 334.733 543.694 337.283 541.096 337.283C538.499 337.283 528.724 337.283 528.724 337.283C528.724 337.283 526.813 333.996 531.429 333.006C536.041 332.015 537.781 326.524 537.494 321.426C537.206 316.329 537.925 309.532 537.925 309.532L547.727 307.268L549.746 309.811Z" fill="#233862"/>
<path d="M499.711 312.095C499.711 312.095 501.838 334.888 499.244 336.165L466.03 336.097C466.03 336.097 466.03 332.273 471.364 331.426C476.698 330.578 486.07 327.463 487.658 320.523C489.246 313.579 499.711 312.095 499.711 312.095Z" fill="#233862"/>
<path d="M523.382 148.567C516.547 133.279 512.366 128.89 513.164 124.147C513.759 120.613 511.353 58.303 511.353 58.303C510.543 58.0524 508.915 57.8295 508.029 57.6306C505.225 57.0098 502.907 55.0441 501.941 52.3502C500.776 49.0992 499.854 44.3043 499.874 38.2917L499.001 38.4629L484.278 41.3716C484.278 41.3716 484.614 45.9915 484.622 50.3447C484.622 50.3805 484.622 50.4163 484.622 50.4521C484.638 54.2323 482.152 57.5709 478.509 58.6174C476.65 59.1546 475.03 59.6122 475.03 59.6122C475.03 59.6122 469.624 75.0037 468.591 90.8169C467.557 106.63 478.422 113.498 468.507 145.097C458.393 177.364 527.156 157.015 523.382 148.567Z" fill="#FFB27D"/>
<path d="M484.275 41.3675C484.275 41.3675 484.61 45.9873 484.618 50.3406C492.857 50.1098 497.209 42.613 498.993 38.4587L484.275 41.3675Z" fill="#E8945B"/>
<path d="M481.526 45.49C481.526 45.49 501.015 45.8123 501.031 33.7037C501.043 21.595 503.569 13.4815 491.125 12.7652C478.681 12.049 476.259 16.6648 475.27 20.7077C474.276 24.7425 476.455 45.0921 481.526 45.49Z" fill="#FFB27D"/>
<path d="M482.244 12.4667C482.244 12.4667 487.582 26.6724 495.769 28.7734C503.96 30.8744 507.511 28.6859 507.511 28.6859C507.511 28.6859 501.227 23.7079 499.926 15.0213C499.926 15.0174 486.27 5.70211 482.244 12.4667Z" fill="#163560"/>
<path d="M483.568 13.6167C483.568 13.6167 479.611 15.093 477.983 17.97C476.391 20.7832 475.034 24.5117 475.35 29.0878C475.35 29.0878 471.328 19.4303 475.848 13.9709C480.636 8.1772 483.568 13.6167 483.568 13.6167Z" fill="#163560"/>
<path d="M485.763 37.9773C485.763 37.9773 484.418 39.7441 481.729 39.6168C479.563 39.5133 478.725 37.6391 478.725 37.6391C478.725 37.6391 482.707 36.6841 485.763 37.9773Z" fill="#EBF3FA"/>
<path d="M525.261 85.8668C525.261 85.8668 525.756 92.8263 525.261 101.179C524.93 106.714 519.317 114.131 518.523 115.965C516.524 120.565 514.27 121.313 514.27 121.313L496.831 125.575L490.698 127.071L471.364 121.313C471.364 121.313 462.555 96.7976 466.094 82.9938C469.628 69.194 475.035 59.6081 475.035 59.6081C475.035 59.6081 490.814 75.0155 511.357 58.303L525.261 85.8668Z" fill="#F9DDBF"/>
<path d="M520.159 103.435C519.831 108.97 519.321 114.127 518.523 115.961C516.524 120.561 514.27 121.309 514.27 121.309L496.831 125.571L489.258 123.351C489.258 123.351 514.541 119.53 511.74 97.832L520.159 103.435Z" fill="#F2CCAA"/>
<path d="M472.593 125.034C472.593 125.034 463.017 154.762 462.403 164.881C461.788 175 480.708 308.657 481.47 313.321C482.188 317.718 487.662 320.519 487.662 320.519C487.662 320.519 490.179 321.999 493.77 320.988C498.753 319.584 500.329 317.905 500.329 317.905C500.329 317.905 507.782 222.583 503.17 188.529C498.558 154.476 498.502 125.034 498.502 125.034H472.593Z" fill="#498794"/>
<path d="M513.164 124.146C513.164 124.146 527.771 143.692 529.131 156.907C530.492 170.122 531.266 216.535 534.17 229.416C537.071 242.296 547.732 267.087 547.732 307.264C547.732 307.264 546.622 309.568 543.203 310.794C542.11 311.188 540.642 311.566 539.221 311.892C536.401 312.537 533.504 311.164 532.219 308.577C525.014 294.105 502.057 247.433 500.88 237.748C500.046 230.892 492.801 185.517 476.989 158.889C473.195 152.498 479.319 127.075 479.319 127.075L513.164 124.146Z" fill="#42AAAB"/>
<path d="M485.332 38.2996C485.332 38.2996 484.997 39.7282 481.434 39.5053C481.434 39.5053 478.446 39.3223 478.537 37.7545C478.537 37.7545 481.438 36.6403 485.332 38.2996Z" fill="white"/>
<path d="M471.065 120.442C471.065 120.442 474.911 123.474 482.547 123.629C491.668 123.812 514.274 121.309 514.274 121.309C514.274 121.309 515.279 124.107 515.239 127.063C515.239 127.063 487.634 134.007 471.639 128.078C471.631 128.078 469.569 124.206 471.065 120.442Z" fill="#233862"/>
<path d="M480.357 131.468C478.062 131.468 476.195 129.359 476.195 126.769C476.195 124.178 478.062 122.069 480.357 122.069C482.651 122.069 484.518 124.178 484.518 126.769C484.518 129.363 482.651 131.468 480.357 131.468ZM480.357 123.446C478.821 123.446 477.576 124.938 477.576 126.769C477.576 128.599 478.825 130.091 480.357 130.091C481.889 130.091 483.137 128.599 483.137 126.769C483.137 124.938 481.889 123.446 480.357 123.446Z" fill="white"/>
<path d="M510.295 87.2037L482.01 111.767L515.723 150.382L544.008 125.819L510.295 87.2037Z" fill="#B5453C"/>
<path d="M507.89 125.909C507.89 125.909 497.529 127.119 497.561 129.57C497.592 132.025 500.142 137.063 501.423 137.286C502.703 137.509 509.857 130.469 509.857 130.469L507.89 125.909Z" fill="#FFB27D"/>
<path d="M511.353 58.2991C511.353 58.2991 525.19 59.266 530.492 72.1267C535.794 84.9874 545.856 106.574 545.856 110.207C545.856 113.84 540.235 125.034 510.048 131.472C510.048 131.472 506.925 128.197 507.116 125.607C507.116 125.607 525.96 109.463 525.908 107.577C525.812 104.008 522.82 99.2966 506.274 82.7909C501.782 78.3024 511.353 58.2991 511.353 58.2991Z" fill="#F9DDBF"/>
<path d="M224.654 336.487H224.511C223.669 336.487 222.995 335.795 223.011 334.959L225.285 236.737L231.979 235.957L226.274 334.963C226.218 335.819 225.512 336.487 224.654 336.487Z" fill="#AABED7"/>
<path d="M185.651 336.487H185.507C184.665 336.487 183.991 335.795 184.007 334.959L186.281 236.737L192.976 235.957L187.267 334.963C187.219 335.819 186.508 336.487 185.651 336.487Z" fill="#AABED7"/>
<path d="M293.274 336.487H293.418C294.259 336.487 294.934 335.795 294.918 334.959L292.644 236.737L285.949 235.957L291.654 334.963C291.706 335.819 292.416 336.487 293.274 336.487Z" fill="#AABED7"/>
<path d="M181.214 230.645V163.341C181.214 151.499 190.841 141.897 202.715 141.897H251.334C263.207 141.897 272.834 151.499 272.834 163.341V233.22L181.214 230.645Z" fill="#AABED7"/>
<path d="M281.548 241.274H187.67C184.103 241.274 181.214 238.393 181.214 234.835V230.649H281.544V241.274H281.548Z" fill="#AABED7"/>
<path d="M292.795 241.273H221.774C219.136 241.273 217.002 239.14 217.002 236.514V235.412C217.002 232.782 219.14 230.653 221.774 230.653H292.795C295.432 230.653 297.567 232.786 297.567 235.412V236.514C297.571 239.14 295.432 241.273 292.795 241.273Z" fill="#AABED7"/>
<path d="M290.038 213.877C283.072 225.966 274.314 230.633 274.314 230.633H237.868C237.868 230.633 295.352 204.653 290.038 213.877Z" fill="#2D8C8D"/>
<path d="M262.046 307.424C261.097 308.51 260.977 309.723 261.444 311.017C261.444 311.021 261.448 311.029 261.452 311.033C262.321 313.428 265.194 316.102 268.529 318.776C268.956 319.118 269.335 319.433 269.667 319.719C269.754 319.795 269.842 319.87 269.922 319.946C269.99 320.006 270.054 320.065 270.117 320.121C273.229 322.982 272.056 323.635 277.646 329.44C284.018 336.054 288.406 336.173 289.655 335.568C290.712 335.055 288.566 331.549 286.188 327.606C286.072 327.415 285.961 327.224 285.841 327.033C285.526 326.508 285.211 325.978 284.895 325.449C282.111 320.706 282.825 318.478 283.487 311.419C284.022 305.681 292.436 279.366 292.436 279.366L280.223 277.269C280.223 277.269 276.545 298.224 272.495 301.451C270.329 303.17 267.903 303.194 265.82 304.467C265.673 304.555 265.529 304.646 265.386 304.742C264.205 305.529 263 306.337 262.046 307.424Z" fill="#FFB27D"/>
<path d="M262.046 307.423C261.097 308.51 260.977 309.723 261.444 311.017C261.444 311.021 261.448 311.028 261.452 311.032C262.517 313.424 265.314 316.086 268.541 318.752C268.964 319.102 269.335 319.421 269.667 319.719C269.754 319.795 269.842 319.87 269.922 319.946C269.99 320.006 270.054 320.065 270.117 320.121C273.229 322.982 272.056 323.635 277.646 329.44C284.018 336.054 288.406 336.173 289.655 335.568C290.712 335.055 288.566 331.549 286.188 327.606C284.947 327.152 279.186 324.816 274.829 319.257C270.991 314.375 268.434 308.1 265.82 304.467C265.673 304.554 265.529 304.646 265.386 304.741C264.205 305.529 263 306.337 262.046 307.423Z" fill="#233862"/>
<path d="M360.517 299.815C361.271 303.576 366.645 302.947 372.646 301.487C378.65 300.022 377.222 301.761 385.764 300.818C394.306 299.875 396.895 296.7 397.155 295.43C397.386 294.304 393.165 293.91 388.637 293.389C388.066 293.325 387.495 293.254 386.925 293.186C381.814 292.545 378.068 289.255 373.424 286.553C369.027 283.994 362.46 273.565 362.46 273.565L350.742 274.492C350.742 274.492 356.89 283.807 359.268 287.854C360.668 290.237 360.593 293.385 360.417 295.816C360.337 297.141 360.25 298.494 360.517 299.815Z" fill="#FFB27D"/>
<path d="M372.646 301.487C378.65 300.022 377.222 301.761 385.764 300.818C394.306 299.875 396.895 296.7 397.155 295.43C397.386 294.304 393.165 293.91 388.636 293.389L388.593 293.476C388.593 293.476 383.47 297.102 376.356 297.269C370.559 297.408 364.419 295.753 360.417 295.816C360.325 297.137 360.241 298.49 360.509 299.815C361.271 303.576 366.645 302.951 372.646 301.487Z" fill="#233862"/>
<path d="M315.616 225.094L304.665 254.488L290.365 292.871C290.365 292.871 286.483 293.246 282.769 292.179C279.346 291.192 275.42 288.614 275.42 288.614C275.42 288.614 279.39 247.401 286.798 223.745C288.698 217.673 290.824 212.763 293.17 209.997C304.653 196.46 315.616 225.094 315.616 225.094Z" fill="#2D8C8D"/>
<path d="M304.477 178.411C297.299 176.103 276.836 179.067 256.277 183.078L251.972 175.995L207.566 172.537C207.566 172.537 192.912 204.948 200.935 225.6C202.116 228.636 204.458 230.582 208.452 230.645C208.452 230.645 209.098 230.645 209.102 230.645C209.102 230.645 235.534 230.629 244.116 230.629C266.199 230.629 290.852 215.489 294.044 214.852C299.262 213.809 301.353 224.223 306.571 235.158C311.79 246.092 355.641 283.576 355.641 283.576C355.641 283.576 362.38 283.644 365.165 282.601C368.157 281.483 369.254 280.027 369.254 280.027C369.254 280.027 320.659 183.615 304.477 178.411Z" fill="#42AAAB"/>
<path d="M250.224 47.0379C244.535 44.0575 235.881 43.6556 234.473 43.4686C217.644 41.2124 207.518 65.6008 206.924 72.9901C205.827 86.6108 198.601 88.688 188.431 97.2153C168.044 114.318 174.02 134.194 185.172 141.579C191.863 146.008 203.652 141.579 203.652 141.579C203.82 141.695 235.897 123.693 251.713 115.01C275.416 111.644 264.723 54.6262 250.224 47.0379Z" fill="#233862"/>
<path d="M238.459 107.613C238.526 107.657 230.679 110.331 225.428 108.011C220.489 105.834 216.75 97.7326 216.822 97.7287C219.068 97.6252 221.534 95.6674 223.433 82.8147L224.391 83.1569L240.473 88.9267C240.473 88.9267 239.308 94.0718 238.554 98.9741C237.92 103.093 237.577 107.032 238.459 107.613Z" fill="#FFB27D"/>
<path d="M240.473 88.9307C240.473 88.9307 239.308 94.0758 238.554 98.9781C229.318 97.3188 225.691 88.1388 224.391 83.1609L240.473 88.9307Z" fill="#ED975D"/>
<path d="M242.867 94.04C242.867 94.04 220.864 91.0954 222.914 77.4548C224.965 63.8182 223.505 54.2522 237.641 55.5534C251.776 56.8586 253.719 62.4692 254.142 67.1885C254.569 71.9078 248.644 94.4539 242.867 94.04Z" fill="#FFB27D"/>
<path d="M253.341 59.7115C253.341 59.7115 239.257 71.8161 229.673 72.795C220.094 73.7699 216.463 70.702 216.463 70.702C216.463 70.702 222.113 66.0264 225.508 58.4779C226.51 56.2536 228.624 54.7255 231.062 54.5186C237.908 53.9297 250.879 53.6591 253.341 59.7115Z" fill="#233862"/>
<path d="M244.535 58.6292C244.535 58.6292 249.247 63.1734 250.731 66.5438C252.164 69.7947 252.594 77.574 251.453 80.6659C251.453 80.6659 258.794 66.4284 254.637 59.5086C250.233 52.171 244.535 58.6292 244.535 58.6292Z" fill="#233862"/>
<path d="M256.987 139.944C256.321 184.367 256.804 175.084 251.932 179.302C250.759 180.316 247.456 180.921 243.115 181.208C229.458 182.111 205.448 179.867 204.534 177.352C201.382 168.642 203.608 165.936 200.979 152.601C200.704 151.185 200.365 149.649 199.97 147.978C197.779 138.818 195.645 135.702 203.421 120.987C210.471 107.657 217.796 96.8412 218.454 97.2312C237.055 108.246 238.555 98.986 238.555 98.986C238.555 98.986 257.31 118.273 256.987 139.944Z" fill="white"/>
<path d="M304.66 254.488L290.361 292.872C290.361 292.872 286.479 293.246 282.765 292.179C279.341 291.192 275.416 288.614 275.416 288.614C275.416 288.614 279.385 247.402 286.794 223.745L304.66 254.488Z" fill="#42AAAB"/>
<path d="M238.555 98.978C238.555 98.978 257.697 102.213 259.944 110.434C262.19 118.655 275.42 166.974 275.42 166.974C275.42 166.974 265.689 168.717 261.192 164.233C256.696 159.748 245.553 122.638 245.553 122.638L238.555 98.978Z" fill="white"/>
<path d="M243.111 181.204C229.454 182.107 205.444 179.863 204.53 177.348C201.378 168.638 203.604 165.932 200.975 152.598L207.562 134.098C207.562 134.098 206.473 154.699 212.565 160.118C218.65 165.538 237.505 170.58 240.47 175.108C241.898 177.276 242.839 179.457 243.111 181.204Z" fill="#EBF3FF"/>
<path d="M227.463 172.541C227.463 172.541 240.936 169.549 243.111 170.743C245.285 171.936 250.599 176.278 251.266 177.79C251.932 179.302 246.426 176.644 244.635 176.162C243.474 175.852 240.422 176.91 238.909 177.412C232.55 179.525 228.652 178.438 228.652 178.438L227.463 172.541Z" fill="#FFB27D"/>
<path d="M218.438 97.2153C218.438 97.2153 200.345 98.3255 194.081 107.04C185.263 119.304 167.772 171.574 177.799 178.542C189.086 186.393 229.175 180.595 229.175 180.595C229.175 180.595 230.507 174.376 228.652 171.367C226.797 168.359 196.634 163.5 195.242 162.112C193.849 160.723 212.645 135.037 212.645 130.871C212.645 126.705 218.438 97.2153 218.438 97.2153Z" fill="white"/>
<path d="M243.765 174.479C243.765 174.479 246.59 178.112 247.515 178.546C248.441 178.979 249.04 178.872 249.04 178.872L247.136 175.458L243.765 174.479Z" fill="#FFB27D"/>
<path d="M243.111 170.739L251.317 174.714C251.317 174.714 250.966 175.283 249.957 175.239C248.948 175.191 246.398 174.264 246.398 174.264L243.111 170.739Z" fill="#FFB27D"/>
<path d="M247.516 184.113H312.445L331.978 135.666H267.145L247.516 184.113Z" fill="#5BDBC2"/>
<path d="M313.206 182.223H227.463V184.113H312.444L313.206 182.223Z" fill="#498794"/>
<path d="M296.054 159.888C296.545 158.184 295.556 156.804 293.848 156.804C292.141 156.804 290.361 158.184 289.87 159.888C289.38 161.591 290.369 162.971 292.077 162.971C293.784 162.971 295.564 161.591 296.054 159.888Z" fill="white"/>
<path d="M4.57611 244.011H4.36864C1.95485 244.011 -0.00012207 242.057 -0.00012207 239.65V147.651C-0.00012207 145.244 1.95485 143.294 4.36864 143.294H4.57611C6.9899 143.294 8.94488 145.244 8.94488 147.651V239.65C8.94488 242.057 6.9899 244.011 4.57611 244.011Z" fill="#AABED7"/>
<path d="M4.43644 341.529H4.29281C3.45097 341.529 2.77671 340.837 2.79267 340.001L5.06682 241.783L11.7616 241.003L6.05228 340.005C6.00042 340.86 5.29423 341.529 4.43644 341.529Z" fill="#AABED7"/>
<path d="M112.06 341.529H112.203C113.045 341.529 113.72 340.837 113.704 340.001L111.429 241.783L104.735 241.003L110.444 340.009C110.492 340.86 111.202 341.529 112.06 341.529Z" fill="#AABED7"/>
<path d="M111.581 235.687H100.33H40.5596H-0.000137329V239.873C-0.000137329 243.43 2.88843 246.311 6.45526 246.311H40.5596H100.33H111.581C114.218 246.311 116.353 244.178 116.353 241.552V240.45C116.357 237.82 114.218 235.687 111.581 235.687Z" fill="#AABED7"/>
<path d="M167.441 320.531C167.441 320.531 165.798 340.896 169.452 341.167C169.939 341.203 187.996 341.203 187.996 341.203L211.049 341.068C211.049 341.068 210.898 335.528 204.159 334.355C197.42 333.185 184.083 327.526 180.001 318.645C175.712 309.306 167.441 320.531 167.441 320.531Z" fill="#163560"/>
<path d="M28.758 208.963C28.758 208.963 29.524 228.978 33.0629 235.687H114.593C114.593 235.687 134.183 237.708 135.97 239.025C138.224 240.689 128.122 257.178 165.985 321.629L184.529 321.16C184.529 321.16 165.135 216.638 161.692 213.992C156.537 210.037 96.2205 196.261 85.8951 195.963C75.5696 195.66 28.758 208.963 28.758 208.963Z" fill="#2F4563"/>
<path d="M74.4645 90.3712C80.7563 94.2589 81.1114 101.998 81.1114 101.998C65.7668 105.958 43.4363 88.9666 43.4363 88.9666C43.4363 88.9666 53.3149 82.3492 56.9735 67.8013C57.157 67.0691 57.3285 66.3131 57.4762 65.5451C57.9549 63.0939 58.2542 60.4438 58.306 57.5828L65.3559 63.8818L77.0778 74.355C77.0778 74.355 76.8104 78.7003 75.3462 86.1772C75.0949 87.4823 74.7996 88.883 74.4645 90.3712Z" fill="#FFB27D"/>
<path d="M83.1341 170.719C82.6115 174.133 83.6727 176.883 84.1794 179.421C84.3789 180.392 84.4946 181.331 84.4108 182.266C83.573 191.713 86.9483 192.911 85.891 195.959C85.891 195.959 82.2843 198.064 75.6773 200.559C72.8047 201.641 69.3615 202.803 65.3997 203.893C65.1923 203.949 64.9848 204.005 64.7733 204.064C49.4328 208.199 33.3063 209.082 28.75 208.963C20.0483 208.732 18.2889 186.727 21.5206 159.016C26.5516 115.846 33.3501 94.9154 51.2721 79.7906C52.4012 78.8395 51.6391 82.0786 57.6636 84.9754C63.2293 87.6455 69.944 88.2742 75.1546 87.1202L79.2521 91.3103C87.3912 104.135 88.245 119.356 87.5548 132.045C86.681 148.089 84.6502 160.89 83.1341 170.719Z" fill="#42AAAB"/>
<path d="M77.0816 74.3549C77.0816 74.3549 77.704 73.6983 76.2397 81.1752C63.2571 77.4308 59.028 70.8333 57.2925 66.4562C56.7977 65.2187 62.1201 64.5621 65.3597 63.8777L77.0816 74.3549Z" fill="#ED975D"/>
<path d="M83.114 74.3908C83.114 74.3908 58.0624 77.9681 56.0676 62.3737C54.0727 46.7793 49.4965 36.7398 65.4076 33.7952C81.3186 30.8506 85.1927 36.4056 87.1277 41.4512C89.0667 46.4968 89.5814 73.0578 83.114 74.3908Z" fill="#FFB27D"/>
<path d="M177.395 189.974L179.311 190.572L195.001 140.537L193.086 139.939L177.395 189.974Z" fill="#1C468A"/>
<path d="M124.166 189.999L179.323 190.571L179.357 187.281L124.2 186.709L124.166 189.999Z" fill="#1C468A"/>
<path d="M48.0802 34.1135C47.8807 33.8787 47.4139 33.6877 46.3725 33.624C46.3725 33.624 47.2104 33.1107 48.3235 33.0948C48.5509 31.6543 49.3449 29.1037 51.8385 28.5028C51.8385 28.5028 50.4939 29.2032 50.3064 30.7391C53.2149 27.8065 59.415 25.7015 76.527 27.1857C99.077 29.1395 91.5284 43.4884 88.592 45.1836C85.6555 46.8787 78.3423 42.1116 72.8963 42.4976C67.4503 42.8876 66.3532 50.7226 64.4979 51.785C62.6427 52.8475 63.3848 50.9494 60.8952 49.8034C58.4056 48.6574 58.1343 52.7838 58.8365 55.4737C59.5387 58.1636 56.0756 61.6773 56.0756 61.6773C56.0756 61.6773 56.0756 61.6773 52.6364 57.9249C49.1973 54.1725 46.0534 38.3632 47.6572 35.0128C47.7969 34.7143 47.9365 34.4159 48.0802 34.1135Z" fill="#2C3A64"/>
<path d="M85.8948 195.959C85.8948 195.959 82.2881 198.064 75.6811 200.559C47.0986 179.76 47.2542 130.525 47.0986 129.686L82.9982 161.213L84.1832 179.421C84.3827 180.392 84.4984 181.331 84.4146 182.266C83.5728 191.713 86.9521 192.911 85.8948 195.959Z" fill="#288C8D"/>
<path d="M137.642 172.8C137.642 172.8 139.94 173.174 142.366 172.036C144.792 170.902 153.158 167.316 154.73 167.806C156.302 168.295 161.433 171.184 162.642 171.733C163.851 172.282 165.985 175.1 165.985 175.1C165.099 175.991 161.983 173.946 160.591 173.986C159.199 174.025 148.917 179.628 145.861 179.747C142.805 179.871 138.041 179.246 138.041 179.246L137.642 172.8Z" fill="#FFB27D"/>
<path d="M156.282 173.245C156.31 173.413 160.04 177.559 162.885 176.246L159.769 173.174L156.282 173.245Z" fill="#FFB27D"/>
<path d="M142.366 172.036C142.366 172.036 145.713 168.944 146.822 167.46C146.822 167.46 147.489 167.766 147.517 168.327C147.56 169.266 146.639 170.993 146.639 170.993L142.366 172.036Z" fill="#FFB27D"/>
<path d="M76.5191 98.5763C58.1184 87.4027 36.4023 106.925 45.5348 126.387C56.1235 148.953 73.7462 176.473 87.7502 178.1C97.7326 179.258 126.259 182.907 138.34 180.659C138.34 180.659 144.193 180.945 141.017 171.547C141.017 171.547 101.978 160.695 95.4943 152.279C92.0192 147.771 86.0985 138.639 76.942 98.8429C76.9101 98.6758 76.6627 98.6638 76.5191 98.5763Z" fill="#42AAAB"/>
<path d="M509.434 334.633H509.634C510.795 334.633 511.728 333.678 511.704 332.52L508.564 196.834L499.32 195.76L507.204 332.532C507.268 333.71 508.249 334.633 509.434 334.633Z" fill="#AABED7"/>
<path d="M54.8391 334.633H54.6436C53.4826 334.633 52.549 333.678 52.5729 332.52L55.7129 196.834L64.9571 195.76L57.0734 332.532C57.0016 333.71 56.0241 334.633 54.8391 334.633Z" fill="#AABED7"/>
<path d="M517.489 199.329H45.6066C42.1715 199.329 39.3906 196.552 39.3906 193.13V189.158C39.3906 185.732 42.1755 182.955 45.6066 182.955H517.489C520.924 182.955 523.705 185.732 523.705 189.158V193.13C523.705 196.552 520.924 199.329 517.489 199.329Z" fill="#AABED7"/>
<path d="M438.592 184.809H373.659L354.129 136.366H418.958L438.592 184.809Z" fill="#2B478B"/>
<path d="M372.897 182.923H458.64V184.809H373.659L372.897 182.923Z" fill="#2B478B"/>
<path d="M390.053 160.588C389.562 158.885 390.552 157.504 392.259 157.504C393.967 157.504 395.746 158.885 396.237 160.588C396.728 162.291 395.738 163.672 394.031 163.672C392.323 163.672 390.54 162.291 390.053 160.588Z" fill="white"/>
</svg>
