<svg width="440" height="397" viewBox="0 0 440 397" fill="none" xmlns="http://www.w3.org/2000/svg">
<path d="M2.43426 98.5038C2.43426 98.5038 86.9636 140.099 110.446 148.148C129.641 154.728 160.497 156.829 179.178 154.803C183.347 154.353 186.916 153.699 189.606 152.842C204.364 148.148 278.829 132.714 278.829 132.714L367.914 127.849L365.931 115.727L263.76 121.922C263.76 121.922 204.707 130.099 196.444 139.852C196.444 139.852 189.424 149.594 177.034 151.245C164.645 152.895 109.717 139.681 103.522 133.486C97.3275 127.291 95.677 124.397 77.918 120.271C60.159 116.145 20.1075 88.0649 20.1075 88.0649L0.280029 97.9787" fill="#2C3A64"/>
<path opacity="0.5" d="M2.43426 98.5038C2.43426 98.5038 86.9636 140.099 110.446 148.148C129.641 154.728 160.497 156.829 179.178 154.803C183.347 154.353 186.916 153.699 189.606 152.842C204.364 148.148 278.829 132.714 278.829 132.714L367.914 127.849L367.153 123.208L365.931 115.727L263.76 121.922C263.76 121.922 204.707 130.099 196.444 139.852C196.444 139.852 189.424 149.594 177.034 151.245C164.645 152.895 109.717 139.681 103.522 133.486C97.3275 127.291 95.677 124.397 77.918 120.271C60.159 116.145 20.1075 88.0649 20.1075 88.0649L0.280029 97.9787" fill="#42AAAB"/>
<path d="M348.011 66.9514L231.683 67.4551C231.683 67.4551 228.071 67.4766 223.259 65.2044C219.218 63.2967 210.655 58.0773 208.04 56.4696C207.375 56.0624 206.593 55.8802 205.832 56.0409C205.35 56.1374 204.975 56.3625 205.178 56.8447C205.457 57.5092 212.713 63.7254 212.713 63.7254L199.852 59.6742C199.133 59.4491 198.33 59.5027 197.687 59.91C197.397 60.1029 197.183 60.3387 197.226 60.6388C197.311 61.1961 205.007 64.84 205.007 64.84L195.243 63.1681C194.321 63.0073 193.357 63.5861 193.217 64.5078C193.207 64.5935 193.196 64.69 193.207 64.7757C193.26 65.6867 207.193 70.1667 207.193 70.1667H194.364C192.939 70.1667 192.006 71.6671 192.639 72.9532C193.367 74.4001 212.723 74.8931 212.916 77.0688C213.109 79.2337 207.407 79.6839 205.478 82.6205C203.549 85.5464 206.679 86.7146 206.679 86.7146C208.651 84.3567 216.217 82.4383 216.217 82.4383L227.974 83.0599L338.119 98.7397L355.085 87.9578L361.612 76.1256L348.011 66.9514Z" fill="#FFBE9D"/>
<path d="M319.374 66.5656L200.602 90.1442C200.602 90.1442 196.915 90.8837 191.546 89.5226C187.033 88.3758 177.259 84.7425 174.258 83.6065C173.508 83.3171 172.661 83.2957 171.911 83.6065C171.439 83.7994 171.096 84.1102 171.407 84.5603C171.825 85.182 180.474 90.1013 180.474 90.1013L166.531 88.5151C165.748 88.4294 164.945 88.6437 164.366 89.1903C164.109 89.4368 163.937 89.7262 164.044 90.0263C164.248 90.5729 172.833 92.77 172.833 92.77L162.522 93.0058C161.547 93.0272 160.679 93.8096 160.722 94.7742C160.722 94.8706 160.743 94.9671 160.765 95.0528C161.001 95.9745 176.123 97.7858 176.123 97.7858L163.015 100.326C161.558 100.605 160.904 102.33 161.804 103.509C162.833 104.838 182.714 101.516 183.347 103.691C183.979 105.867 178.245 107.453 176.852 110.84C175.459 114.216 178.899 114.784 178.899 114.784C180.453 111.976 187.805 108.514 187.805 108.514L199.948 106.821L315.612 101.012L330.81 86.6288L335.139 73.2426L319.374 66.5656Z" fill="#FFBE9D"/>
<path d="M276.975 74.818C276.975 74.8395 276.718 74.9038 276.204 75.0324C275.646 75.161 274.907 75.3217 273.974 75.5254C271.981 75.9434 269.184 76.5221 265.765 77.2402C258.766 78.6228 249.206 80.5198 238.638 82.6204C228.071 84.721 218.511 86.6181 211.512 88.0006C208.093 88.6865 205.296 89.2546 203.292 89.6511C202.36 89.8333 201.62 89.9727 201.052 90.0798C200.538 90.1763 200.27 90.2084 200.259 90.1977C200.259 90.1763 200.516 90.1013 201.02 89.9726C201.577 89.8333 202.317 89.6618 203.238 89.4368C205.168 88.9866 207.965 88.365 211.416 87.6148C218.329 86.1143 227.91 84.1423 238.51 82.0738C249.088 80.0375 258.659 78.2048 265.668 76.8544C269.098 76.2113 271.906 75.6861 273.91 75.311C274.842 75.1503 275.593 75.0109 276.15 74.9145C276.707 74.8395 276.975 74.7966 276.975 74.818Z" fill="#EB996E"/>
<path d="M354.581 12.6027C354.281 14.7569 352.662 16.6753 350.594 17.3291C349.415 17.7042 348.129 17.6935 346.971 18.1222C345.814 18.5509 344.721 19.6762 344.978 20.8873C345.171 21.7983 346.007 22.3878 346.693 23.0201C347.379 23.6417 347.99 24.617 347.593 25.453C347.154 26.3747 345.825 26.439 345.128 27.1893C344.399 27.9824 344.614 29.3006 345.267 30.158C345.921 31.0154 346.896 31.5406 347.786 32.1622C348.665 32.7838 349.522 33.5876 349.704 34.6487" fill="#263238"/>
<path d="M396.883 31.5084C400.077 24.8849 397.848 16.5681 392.982 11.0486C388.116 5.52901 381.107 2.36733 374.044 0.277407C373.026 -0.0226849 371.772 -0.247754 371.054 0.534628C370.421 1.22055 370.614 2.36733 371.214 3.08541C371.815 3.79277 372.715 4.16788 373.572 4.52156C370.7 3.09612 367.592 2.01365 364.377 1.93863C363.251 1.90648 362.083 2.02437 361.129 2.61383C360.175 3.2033 359.522 4.38223 359.832 5.46471C360.154 6.53646 361.665 7.14736 362.49 6.39713C359.457 6.04345 356.317 6.75081 353.745 8.37988C351.901 9.5481 350.219 11.5523 350.647 13.6958C350.894 14.9497 351.826 15.9679 352.234 17.1897C352.973 19.419 351.848 21.7661 350.99 23.9525C349.651 27.3392 348.879 31.0368 349.415 34.6379C349.94 38.239 351.901 41.7329 355.042 43.5763" fill="#263238"/>
<path d="M383.347 10.3841L382.318 10.009C371 6.55792 359.061 13.1278 355.921 24.542L342.47 68.9127L365.942 88.7723L373.112 70.1238C373.112 70.1238 384.376 72.4066 388.448 61.8069C390.42 56.6839 393.604 45.8056 396.379 35.9347C399.359 25.3244 393.679 14.2103 383.347 10.3841Z" fill="#FFBE9D"/>
<path d="M373.187 69.9844C373.187 69.9844 366.252 68.0445 360.765 60.9066C360.765 60.9066 361.215 69.7808 372.19 72.7602L373.187 69.9844Z" fill="#EB996E"/>
<path d="M371.558 16.3859C370.701 14.4567 369.629 10.2662 368.15 8.75501C366.671 7.24383 364.259 7.72612 362.212 8.28343C360.09 8.86218 358.386 10.4591 357.625 12.5169C354.764 20.1906 354.367 27.4464 352.213 35.0023C352.073 35.506 351.923 36.0312 352.073 36.5349C352.459 37.821 353.863 38.2926 355.192 38.4962C358.472 39 360.165 36.6207 361.73 33.7484C362.084 33.116 362.834 29.172 362.909 28.4324C363.423 23.3309 366.392 18.7974 371.044 16.6217L371.558 16.3859Z" fill="#263238"/>
<path d="M357.732 30.6724C357.582 30.5224 351.216 25.7959 348.751 33.1696C346.286 40.5326 354.195 41.4864 354.281 41.2828C354.367 41.0792 357.732 30.6724 357.732 30.6724Z" fill="#FFBE9D"/>
<path d="M352.963 37.7352C352.941 37.7031 352.802 37.7781 352.555 37.8103C352.309 37.8317 351.923 37.7781 351.591 37.5102C350.905 36.9636 350.669 35.506 351.076 34.1663C351.28 33.4911 351.634 32.9016 352.052 32.4515C352.459 31.9906 352.931 31.7227 353.349 31.787C353.767 31.8299 353.97 32.1514 353.992 32.3872C354.024 32.623 353.927 32.7623 353.959 32.7837C353.97 32.8052 354.163 32.7087 354.206 32.3872C354.227 32.2264 354.195 32.0335 354.067 31.8299C353.938 31.6262 353.702 31.4655 353.424 31.4012C352.845 31.2511 352.159 31.6048 351.698 32.0978C351.216 32.5801 350.798 33.2446 350.562 34.0055C350.112 35.506 350.412 37.1458 351.377 37.8103C351.848 38.1211 352.33 38.1104 352.62 38.0032C352.888 37.9174 352.984 37.7674 352.963 37.7352Z" fill="#EB996E"/>
<path d="M368.696 18.0257C372.351 15.5606 376.091 16.8146 378.577 18.2936C381.064 19.7726 383.175 21.8411 385.737 23.1915C388.298 24.5419 391.653 25.0242 393.957 23.2773C395.661 21.9804 396.411 19.7512 396.604 17.6184C396.98 13.5136 395.629 9.28012 392.95 6.1506C392.253 5.33606 391.171 4.53225 390.185 4.96095C388.963 5.49683 389.145 7.26522 389.52 8.54061C389.52 8.54061 377.131 3.86776 369.532 6.45069C361.944 9.04434 368.696 18.0257 368.696 18.0257Z" fill="#263238"/>
<path d="M373.498 0.127352C373.562 0.116634 373.637 0.66323 374.012 1.55279C374.387 2.44234 375.148 3.64271 376.348 4.87523C377.57 6.09703 379.221 7.37242 381.278 8.36915C382.307 8.87288 383.422 9.26943 384.644 9.52665C385.855 9.80531 387.162 10.0089 388.47 10.3841C389.778 10.7485 391.053 11.3379 392.039 12.2168C393.014 13.0956 393.754 14.1674 394.182 15.2927C394.622 16.418 394.75 17.597 394.611 18.6687C394.45 19.7405 394.054 20.6836 393.518 21.4231C392.468 22.9236 391.085 23.6417 390.131 23.9096C389.649 24.0382 389.252 24.0811 388.995 24.0811C388.727 24.0811 388.599 24.0704 388.599 24.0489C388.599 23.9846 389.145 23.9846 390.056 23.6631C390.946 23.3309 392.2 22.6021 393.132 21.1659C393.604 20.4586 393.947 19.5797 394.065 18.6044C394.172 17.6291 394.032 16.5467 393.614 15.5178C393.207 14.4782 392.521 13.5029 391.61 12.699C390.699 11.8952 389.542 11.3594 388.277 11.0057C387.012 10.6413 385.726 10.4376 384.483 10.1483C383.24 9.86961 382.039 9.44091 381 8.90503C378.888 7.84399 377.217 6.48286 376.005 5.18604C374.805 3.86778 374.076 2.59239 373.765 1.63853C373.615 1.15624 373.519 0.791841 373.508 0.523902C373.487 0.26668 373.476 0.13807 373.498 0.127352Z" fill="#455A64"/>
<path d="M365.277 2.29239C365.331 2.28167 365.449 2.83898 365.867 3.76069C366.285 4.67169 367.067 5.94708 368.396 7.17959C369.714 8.41211 371.59 9.52674 373.851 10.3198C376.113 11.1344 378.728 11.6167 381.472 12.1525C384.226 12.7099 386.873 13.2565 389.113 14.4032C390.217 14.9927 391.171 15.8823 391.589 16.9647C392.018 18.0365 391.985 19.1511 391.739 20.0728C391.203 21.9591 389.917 22.9987 389.07 23.5453C388.631 23.824 388.266 23.9954 388.009 24.1026C387.752 24.2098 387.613 24.2419 387.613 24.2205C387.591 24.1669 388.116 23.9419 388.931 23.3417C389.713 22.7415 390.882 21.6912 391.299 19.9656C391.492 19.119 391.503 18.1115 391.096 17.1791C390.71 16.2467 389.863 15.475 388.824 14.9391C386.723 13.8781 384.065 13.3422 381.343 12.7956C378.599 12.2704 375.952 11.756 373.637 10.8879C371.322 10.0519 369.393 8.84082 368.064 7.52256C366.724 6.2043 365.985 4.84317 365.62 3.86787C365.449 3.37486 365.342 2.98903 365.299 2.72109C365.267 2.44243 365.256 2.29239 365.277 2.29239Z" fill="#455A64"/>
<path d="M391.854 42.5475C391.575 42.6868 390.643 41.315 388.853 40.6826C387.074 40.0289 385.445 40.479 385.327 40.1896C385.263 40.061 385.616 39.7395 386.334 39.5251C387.042 39.3108 388.146 39.2465 389.25 39.6538C390.364 40.0503 391.147 40.8005 391.543 41.4114C391.94 42.0223 391.983 42.4832 391.854 42.5475Z" fill="#263238"/>
<path d="M374.781 37.3178C374.502 37.4571 373.57 36.0853 371.78 35.4529C370.001 34.7992 368.372 35.2493 368.254 34.9599C368.19 34.8313 368.543 34.5098 369.261 34.3061C369.969 34.0918 371.073 34.0275 372.177 34.4348C373.291 34.842 374.074 35.5815 374.47 36.1924C374.867 36.7926 374.92 37.2535 374.781 37.3178Z" fill="#263238"/>
<path d="M376.497 49.7392C376.53 49.632 377.708 49.8356 379.584 50.2429C380.056 50.3608 380.516 50.4251 380.709 50.1357C380.934 49.8463 380.913 49.289 380.881 48.6781C380.849 47.4242 380.806 46.1059 380.763 44.7234C380.645 39.1181 380.742 34.5631 380.967 34.5631C381.192 34.5631 381.47 39.1074 381.588 44.7126C381.61 46.0952 381.62 47.4027 381.642 48.6674C381.631 49.2462 381.717 49.9428 381.245 50.543C380.999 50.8431 380.581 50.9717 380.259 50.9395C379.938 50.9288 379.68 50.8431 379.445 50.7681C377.601 50.2429 376.476 49.8463 376.497 49.7392Z" fill="#263238"/>
<path d="M370.806 49.1068C371.106 49.1926 370.42 51.1325 371.589 53.0938C372.757 55.0658 374.9 55.5802 374.815 55.8589C374.793 55.9875 374.225 56.0733 373.335 55.7839C372.467 55.5052 371.321 54.7871 370.603 53.5868C369.895 52.3864 369.852 51.1003 370.077 50.2858C370.292 49.4498 370.678 49.0532 370.806 49.1068Z" fill="#263238"/>
<path d="M377.677 27.3608C377.323 27.7788 375.63 26.9214 373.443 26.4284C371.267 25.8925 369.36 25.9032 369.242 25.3673C369.188 25.1101 369.649 24.7672 370.496 24.5314C371.342 24.3063 372.575 24.242 373.883 24.5528C375.19 24.8636 376.273 25.4745 376.926 26.0533C377.591 26.6427 377.837 27.1572 377.677 27.3608Z" fill="#263238"/>
<path d="M393.582 34.7024C393.121 34.9917 392.038 34.1343 390.57 33.5877C389.112 32.9875 387.74 32.8911 387.601 32.3659C387.548 32.1194 387.89 31.7765 388.576 31.5943C389.252 31.4013 390.27 31.4121 391.267 31.8086C392.274 32.2052 393.024 32.8804 393.389 33.4806C393.764 34.0807 393.785 34.5523 393.582 34.7024Z" fill="#263238"/>
<path d="M368.46 82.6633C369.007 85.5999 369.811 106.038 368.289 114.323C365.47 129.724 344.228 163.645 342.845 166.335C342.031 167.921 324.454 208.187 324.454 208.187C324.454 208.187 247.888 184.405 244.051 165.017C244.051 165.017 269.912 145.768 276.3 139.852C277.565 138.684 301.004 98.3109 301.004 98.3109L315.14 73.8749C315.14 73.8749 326.062 63.2002 331.71 63.2002C337.347 63.2002 344.121 63.2002 344.121 63.2002L368.46 82.6633Z" fill="#42AAAB"/>
<path opacity="0.4" d="M244.051 165.028C244.051 165.028 253.064 165.735 278.229 179.85C303.405 193.965 310.039 198.049 310.039 198.049L258.413 179.968C258.413 179.968 244.983 172.069 244.051 165.028Z" fill="black"/>
<path d="M330.392 63.2109L316.319 64.4649L275.882 72.7496L293.352 105.299L337.947 100.98C337.947 100.98 348.751 79.6838 344.742 75.0538C340.713 70.4131 330.392 63.2109 330.392 63.2109Z" fill="#42AAAB"/>
<path opacity="0.4" d="M297.253 104.924L327.669 101.848L291.133 115.223L297.253 104.924Z" fill="black"/>
<path d="M336.233 101.623C336.243 101.773 328.28 102.641 318.431 103.563C308.581 104.484 300.597 105.095 300.575 104.945C300.565 104.795 308.528 103.927 318.377 103.005C328.227 102.094 336.222 101.473 336.233 101.623Z" fill="#263238"/>
<path d="M344.099 82.7489C344.003 82.7596 343.885 81.57 343.371 79.7266C342.867 77.8939 341.87 75.4288 340.198 73.0495C338.516 70.681 336.533 68.9018 334.979 67.8087C333.425 66.7047 332.342 66.201 332.385 66.1046C332.396 66.0724 332.685 66.1689 333.178 66.3832C333.682 66.5868 334.379 66.962 335.204 67.4764C336.854 68.5053 338.934 70.2844 340.659 72.7173C342.374 75.1609 343.339 77.7224 343.756 79.6194C343.971 80.5625 344.078 81.3449 344.099 81.8915C344.132 82.4488 344.132 82.7489 344.099 82.7489Z" fill="#263238"/>
<path d="M284.488 141.095C284.488 141.052 285.046 140.945 286.064 140.785C287.082 140.634 288.55 140.356 290.34 139.959C292.141 139.573 294.252 139.005 296.567 138.266C298.871 137.505 301.369 136.551 303.919 135.383C306.459 134.193 308.796 132.896 310.864 131.632C312.922 130.335 314.723 129.092 316.18 127.966C317.638 126.852 318.795 125.909 319.567 125.223C320.349 124.547 320.799 124.194 320.821 124.226C320.842 124.258 320.457 124.665 319.717 125.383C318.988 126.112 317.863 127.109 316.427 128.277C314.991 129.445 313.201 130.742 311.143 132.071C309.064 133.379 306.717 134.697 304.155 135.897C301.583 137.076 299.054 138.019 296.728 138.77C294.391 139.488 292.248 140.024 290.426 140.367C288.604 140.709 287.125 140.935 286.096 141.02C285.067 141.106 284.499 141.138 284.488 141.095Z" fill="#263238"/>
<path d="M288.754 133.7C288.743 133.529 292.537 133.475 297.049 132.414C301.572 131.375 304.991 129.745 305.066 129.906C305.098 129.971 304.284 130.453 302.869 131.074C301.465 131.696 299.461 132.414 297.167 132.95C294.884 133.475 292.762 133.711 291.23 133.775C289.697 133.85 288.754 133.775 288.754 133.7Z" fill="#263238"/>
<path d="M331.485 168.189C331.496 168.221 330.981 168.468 330.027 168.886C329.084 169.304 327.68 169.861 325.944 170.483C322.461 171.748 317.541 173.227 311.979 174.298C306.417 175.37 301.294 175.82 297.596 175.949C295.742 176.013 294.241 176.024 293.212 175.981C292.173 175.949 291.605 175.917 291.605 175.874C291.605 175.831 292.173 175.799 293.212 175.756C294.241 175.724 295.742 175.659 297.585 175.542C301.272 175.316 306.352 174.802 311.882 173.741C317.413 172.669 322.321 171.255 325.826 170.097C327.584 169.518 328.988 169.025 329.963 168.672C330.928 168.339 331.474 168.157 331.485 168.189Z" fill="#263238"/>
<path d="M368.675 111.965L346.318 104.345C343.124 116.927 334.528 127.291 323.704 136.733L351.387 151.674C351.387 151.674 360.218 136.262 366.027 122.329C367.517 118.739 368.182 116.252 368.675 111.965Z" fill="#F5F5F5"/>
<path d="M351.259 101.848L349.372 107.817L352.438 109.253L354.227 102.93L351.259 101.848Z" fill="#E0E0E0"/>
<path d="M346.629 132.275C347.958 132.135 349.34 132.093 350.733 132.125L355.964 121.675L349.951 118.674L348.654 121.257L351.441 122.65L346.629 132.275Z" fill="#498794"/>
<path d="M363.102 128.759C363.155 128.749 363.209 128.738 363.252 128.727C363.691 127.484 364.184 126.262 364.72 125.062C364.27 124.698 363.766 124.365 363.177 124.076C360.669 122.822 358.214 122.865 356.35 123.894L357.947 126.584C359.093 125.984 360.337 126.037 361.526 126.637C362.673 127.205 363.187 127.945 363.102 128.759Z" fill="#498794"/>
<path d="M352.834 131.578C351.398 131.814 350.208 131.75 348.794 132.093L347.926 133.807L351.152 135.415L353.113 131.503C353.016 131.535 352.931 131.567 352.834 131.578Z" fill="#498794"/>
<path d="M361.505 132.436C361.505 132.425 361.312 132.446 361.312 132.436L354.506 134.493L353.466 136.583L358.15 138.93C358.204 138.78 358.246 138.641 358.311 138.502C358.654 137.741 359.093 137.044 359.533 136.347L359.307 136.24L359.672 136.133L361.505 132.436Z" fill="#E8505B"/>
<path d="M359.511 130.142C359.522 130.174 359.2 130.292 358.622 130.464C358.043 130.635 357.186 130.86 356.124 131.107C354.002 131.6 351.034 132.135 347.733 132.478C344.421 132.821 341.409 132.896 339.234 132.854C338.14 132.832 337.262 132.789 336.661 132.736C336.05 132.682 335.718 132.639 335.718 132.596C335.718 132.511 337.069 132.511 339.234 132.457C341.399 132.403 344.389 132.264 347.679 131.921C350.969 131.578 353.917 131.107 356.049 130.71C358.182 130.335 359.501 130.067 359.511 130.142Z" fill="#263238"/>
<path d="M306.953 203.332C306.363 205.101 260.342 274.175 220.794 288.344L203.678 285.686L112.793 258.839L122.825 233.459L207.804 251.754L246.859 207.502L258.691 176.978L306.953 203.332Z" fill="#FFBE9D"/>
<path d="M118.109 260.436L155.974 271.582L164.902 242.516L123.232 232.656L118.109 260.436Z" fill="#455A64"/>
<path d="M119.589 260.125L118.903 260.243C118.903 260.243 96.7925 283.521 91.5409 281.646L114.455 228.154L128.474 234.07L127.177 235.839C122.011 242.945 119.814 251.336 119.589 260.125Z" fill="#434343"/>
<g opacity="0.6">
<g opacity="0.6">
<g opacity="0.6">
<g opacity="0.6">
<path opacity="0.6" d="M123.211 239.14C123.372 237.982 122.514 236.771 121.368 236.557C120.221 236.353 118.978 237.211 118.795 238.368C118.613 239.526 119.599 241.015 120.767 241.09C121.936 241.165 123.34 240.072 123.232 238.915" fill="white"/>
</g>
</g>
</g>
</g>
<g opacity="0.6">
<g opacity="0.6">
<g opacity="0.6">
<path opacity="0.6" d="M114.455 228.154L118.731 230.158L95.1634 280.702C95.1634 280.702 93.1057 282.642 91.5409 281.656L114.455 228.154Z" fill="white"/>
</g>
</g>
</g>
<path d="M118.806 261.229C118.549 261.111 118.988 259.75 118.699 258.11C118.452 256.459 117.606 255.312 117.809 255.109C117.959 254.895 119.363 255.945 119.674 257.949C120.006 259.942 119.02 261.389 118.806 261.229Z" fill="#263238"/>
<path d="M114.08 265.848C113.801 265.794 113.844 264.476 113.115 263.115C112.429 261.732 111.336 260.993 111.454 260.746C111.518 260.478 113.126 260.961 113.994 262.665C114.883 264.358 114.326 265.944 114.08 265.848Z" fill="#263238"/>
<path d="M105.999 266.159C106.042 265.902 107.51 266.094 108.646 267.381C109.803 268.656 109.836 270.124 109.568 270.146C109.289 270.199 108.86 269.085 107.906 268.045C106.985 266.973 105.913 266.427 105.999 266.159Z" fill="#263238"/>
<path d="M119.203 260.714C119.095 260.671 119.374 259.567 120.36 258.045C120.853 257.285 121.539 256.438 122.418 255.613C122.857 255.205 123.35 254.798 123.897 254.423C124.165 254.241 124.443 254.016 124.872 253.887C125.269 253.716 126.03 253.844 126.308 254.359C126.598 254.809 126.576 255.366 126.415 255.763C126.255 256.159 126.04 256.449 125.847 256.706C125.451 257.242 125.011 257.713 124.561 258.131C123.661 258.956 122.718 259.535 121.882 259.91C120.199 260.661 119.042 260.661 119.031 260.553C118.999 260.403 120.071 260.146 121.56 259.289C122.3 258.86 123.136 258.271 123.929 257.477C124.326 257.081 124.711 256.631 125.065 256.138C125.462 255.634 125.665 255.152 125.472 254.905C125.397 254.809 125.365 254.787 125.151 254.83C124.947 254.884 124.701 255.055 124.433 255.227C123.918 255.57 123.447 255.934 123.018 256.298C122.15 257.038 121.453 257.788 120.917 258.463C119.846 259.792 119.342 260.778 119.203 260.714Z" fill="#263238"/>
<path d="M118.978 260.21C118.978 260.103 120.135 259.985 121.872 260.618C122.729 260.928 123.704 261.454 124.647 262.236C125.119 262.633 125.569 263.093 125.987 263.619C126.384 264.154 126.93 264.84 126.609 265.912C126.405 266.448 125.805 266.716 125.387 266.716C124.947 266.737 124.626 266.641 124.283 266.566C123.618 266.394 123.008 266.126 122.482 265.794C121.411 265.14 120.671 264.262 120.2 263.469C119.256 261.829 119.417 260.607 119.514 260.618C119.685 260.586 119.792 261.711 120.789 263.083C121.282 263.758 121.989 264.476 122.943 265.012C123.415 265.28 123.94 265.494 124.508 265.623C125.108 265.784 125.666 265.762 125.698 265.526C125.816 265.258 125.58 264.626 125.226 264.208C124.862 263.726 124.465 263.297 124.058 262.922C123.233 262.172 122.375 261.625 121.604 261.261C120.05 260.51 118.956 260.371 118.978 260.21Z" fill="#263238"/>
<path d="M160.379 242.237C160.411 242.248 160.326 242.644 160.133 243.33C159.897 244.145 159.608 245.12 159.275 246.267C158.493 248.871 157.485 252.215 156.371 255.902C155.267 259.599 154.26 262.943 153.488 265.548C153.134 266.684 152.834 267.659 152.588 268.463C152.362 269.149 152.223 269.524 152.191 269.513C152.159 269.503 152.223 269.106 152.384 268.409C152.545 267.702 152.791 266.695 153.113 265.441C153.756 262.943 154.71 259.514 155.846 255.741C156.982 251.969 158.075 248.582 158.911 246.138C159.329 244.916 159.683 243.93 159.94 243.255C160.186 242.591 160.347 242.226 160.379 242.237Z" fill="#FAFAFA"/>
<path d="M156.896 242.237C156.928 242.248 156.842 242.644 156.649 243.33C156.413 244.145 156.124 245.12 155.792 246.267C155.009 248.871 154.002 252.215 152.887 255.902C151.783 259.599 150.776 262.943 150.004 265.548C149.651 266.684 149.351 267.659 149.104 268.463C148.879 269.149 148.74 269.524 148.708 269.513C148.675 269.503 148.74 269.106 148.9 268.409C149.061 267.702 149.308 266.695 149.629 265.441C150.272 262.943 151.226 259.514 152.362 255.741C153.498 251.969 154.591 248.582 155.427 246.138C155.845 244.916 156.199 243.93 156.456 243.255C156.703 242.591 156.853 242.226 156.896 242.237Z" fill="#FAFAFA"/>
<path d="M314.155 200.749C315.923 201.928 376.595 263.554 377.774 268.27C378.953 272.986 400.195 367.418 400.195 367.418L379.542 373.324C379.542 373.324 350.626 316.671 350.626 314.902C350.626 313.134 340.831 287.036 340.831 287.036L304.005 254.702L265.647 219.88L314.155 200.749Z" fill="#FFBE9D"/>
<path d="M407.269 374.245L394.236 336.98L365.417 346.69L381.718 386.292L407.269 374.245Z" fill="#455A64"/>
<path d="M406.154 373.227L406.658 373.72C406.658 373.72 438.468 378.104 440 383.452L383.186 396.045L379.821 381.201L382.018 381.212C390.785 381.276 398.888 378.168 406.154 373.227Z" fill="#434343"/>
<g opacity="0.6">
<g opacity="0.6">
<g opacity="0.6">
<g opacity="0.6">
<path opacity="0.6" d="M386.991 382.53C385.962 383.077 385.469 384.48 385.973 385.531C386.477 386.581 387.902 387.096 388.942 386.57C389.981 386.045 390.614 384.373 390.003 383.387C389.392 382.391 387.677 381.898 386.798 382.659" fill="white"/>
</g>
</g>
</g>
</g>
<g opacity="0.6">
<g opacity="0.6">
<g opacity="0.6">
<path opacity="0.6" d="M383.176 396.045L382.308 391.404L437.106 381.062C437.106 381.062 439.882 381.597 439.989 383.452L383.176 396.045Z" fill="white"/>
</g>
</g>
</g>
<path d="M407.504 373.216C407.558 373.495 406.197 373.934 405.028 375.124C403.828 376.292 403.389 377.643 403.11 377.589C402.842 377.589 402.885 375.842 404.332 374.417C405.757 372.991 407.515 372.948 407.504 373.216Z" fill="#263238"/>
<path d="M414.01 374.363C414.128 374.62 413.035 375.36 412.349 376.742C411.631 378.104 411.674 379.422 411.395 379.475C411.148 379.572 410.591 377.996 411.47 376.292C412.338 374.577 413.946 374.106 414.01 374.363Z" fill="#263238"/>
<path d="M418.983 380.751C418.747 380.869 418.051 379.561 418.426 377.889C418.79 376.207 419.969 375.317 420.13 375.521C420.333 375.714 419.68 376.721 419.39 378.093C419.069 379.475 419.251 380.654 418.983 380.751Z" fill="#263238"/>
<path d="M406.851 373.195C406.883 373.313 405.822 373.72 404 373.806C403.1 373.849 402.006 373.795 400.817 373.549C400.227 373.431 399.616 373.259 398.995 373.045C398.695 372.938 398.352 372.83 397.987 372.563C397.612 372.337 397.28 371.641 397.537 371.116C397.73 370.612 398.202 370.312 398.609 370.215C399.027 370.108 399.381 370.119 399.713 370.13C400.377 370.14 401.02 370.226 401.621 370.344C402.821 370.601 403.839 371.03 404.621 371.48C406.208 372.412 406.894 373.345 406.808 373.42C406.701 373.538 405.865 372.809 404.3 372.102C403.518 371.748 402.553 371.416 401.449 371.234C400.892 371.148 400.313 371.094 399.702 371.094C399.07 371.073 398.555 371.18 398.459 371.48C398.427 371.598 398.427 371.641 398.587 371.78C398.759 371.909 399.038 372.016 399.327 372.134C399.906 372.348 400.474 372.52 401.02 372.659C402.124 372.927 403.142 373.056 404 373.098C405.736 373.206 406.829 373.045 406.851 373.195Z" fill="#263238"/>
<path d="M406.583 373.677C406.497 373.741 405.725 372.873 405.221 371.094C404.975 370.215 404.825 369.111 404.921 367.89C404.964 367.279 405.082 366.646 405.264 366.003C405.468 365.371 405.714 364.524 406.765 364.16C407.322 364.01 407.89 364.353 408.126 364.685C408.394 365.028 408.512 365.35 408.651 365.66C408.898 366.303 409.037 366.957 409.08 367.579C409.166 368.833 408.898 369.947 408.512 370.783C407.729 372.498 406.647 373.088 406.604 373.002C406.475 372.884 407.333 372.134 407.869 370.526C408.137 369.733 408.297 368.736 408.18 367.654C408.115 367.118 407.987 366.561 407.762 366.025C407.537 365.435 407.204 365.007 406.99 365.114C406.711 365.167 406.325 365.735 406.197 366.271C406.015 366.85 405.897 367.418 405.832 367.965C405.704 369.069 405.768 370.087 405.907 370.923C406.197 372.627 406.722 373.602 406.583 373.677Z" fill="#263238"/>
<path d="M367.828 350.527C367.817 350.495 368.182 350.334 368.868 350.088C369.661 349.809 370.625 349.466 371.751 349.07C374.323 348.191 377.624 347.055 381.279 345.811C384.933 344.547 388.234 343.411 390.796 342.521C391.921 342.146 392.886 341.825 393.69 341.557C394.376 341.342 394.761 341.235 394.772 341.267C394.783 341.299 394.429 341.482 393.765 341.76C393.1 342.039 392.136 342.435 390.924 342.896C388.524 343.829 385.169 345.061 381.45 346.337C377.731 347.612 374.334 348.705 371.869 349.445C370.636 349.82 369.629 350.109 368.932 350.291C368.235 350.484 367.839 350.57 367.828 350.527Z" fill="#FAFAFA"/>
<path d="M369.865 353.367C369.854 353.335 370.218 353.174 370.904 352.928C371.697 352.649 372.662 352.306 373.787 351.91C376.36 351.031 379.661 349.895 383.315 348.652C386.97 347.387 390.271 346.251 392.832 345.361C393.958 344.986 394.922 344.665 395.726 344.397C396.412 344.182 396.798 344.075 396.809 344.107C396.819 344.14 396.466 344.322 395.801 344.6C395.137 344.879 394.172 345.276 392.961 345.736C390.56 346.669 387.206 347.901 383.487 349.177C379.768 350.452 376.37 351.545 373.905 352.285C372.673 352.66 371.665 352.949 370.969 353.132C370.261 353.314 369.875 353.4 369.865 353.367Z" fill="#FAFAFA"/>
<path d="M258.702 176.967C258.702 176.967 226.292 217.64 218.543 220.866C216.067 221.895 224.952 232.323 224.952 232.323L229.357 227.34C243.354 234.703 254.19 244.338 265.336 257.906L284.67 239.74L300.918 261.25L347.164 232.634L324.454 208.166C324.454 208.166 293.844 180.6 266.247 173.195C266.247 173.227 263.053 173.205 258.702 176.967Z" fill="#263238"/>
<path d="M308.335 213.664C308.345 213.675 308.217 213.846 307.96 214.168C307.659 214.532 307.274 214.982 306.802 215.54C305.784 216.729 304.294 218.433 302.44 220.513C298.721 224.682 293.523 230.394 287.639 236.557C281.755 242.73 276.278 248.185 272.184 251.99C270.127 253.876 268.455 255.409 267.244 256.395C266.675 256.856 266.225 257.242 265.861 257.542C265.539 257.799 265.368 257.928 265.357 257.917C265.347 257.906 265.497 257.745 265.797 257.456C266.14 257.134 266.579 256.727 267.115 256.234C268.283 255.195 269.912 253.63 271.927 251.701C275.946 247.832 281.369 242.344 287.253 236.171C293.137 230.008 298.378 224.349 302.172 220.245C304.037 218.24 305.559 216.59 306.663 215.39C307.166 214.854 307.574 214.425 307.895 214.082C308.163 213.793 308.313 213.653 308.335 213.664Z" fill="#455A64"/>
<path d="M265.722 257.274C265.711 257.285 265.55 257.145 265.282 256.856C264.971 256.524 264.575 256.095 264.092 255.58C263.085 254.466 261.574 252.869 259.688 250.95C257.801 249.021 255.476 246.803 252.818 244.423C250.149 242.066 247.137 239.547 243.858 237.061C240.567 234.585 237.331 232.366 234.341 230.437C231.329 228.529 228.564 226.89 226.195 225.603C223.837 224.307 221.897 223.288 220.547 222.613C219.925 222.292 219.411 222.024 219.004 221.82C218.65 221.627 218.468 221.52 218.479 221.509C218.489 221.488 218.682 221.563 219.047 221.724C219.465 221.906 219.99 222.142 220.643 222.431C222.026 223.042 223.998 224.007 226.388 225.271C228.789 226.525 231.586 228.133 234.619 230.019C237.642 231.938 240.9 234.145 244.201 236.632C247.491 239.129 250.503 241.669 253.161 244.059C255.808 246.471 258.112 248.721 259.966 250.693C261.831 252.655 263.289 254.284 264.253 255.452C264.703 255.998 265.068 256.438 265.357 256.792C265.604 257.092 265.732 257.263 265.722 257.274Z" fill="#455A64"/>
<path d="M283.545 178.896C283.556 178.907 283.416 179.1 283.116 179.464C282.784 179.861 282.344 180.375 281.809 181.008C280.619 182.39 278.968 184.309 276.954 186.645C272.859 191.414 267.254 198.038 261.209 205.487C255.165 212.935 249.838 219.784 246.012 224.778C244.136 227.233 242.604 229.237 241.489 230.694C240.975 231.348 240.567 231.884 240.246 232.291C239.957 232.656 239.796 232.838 239.785 232.827C239.774 232.816 239.903 232.613 240.16 232.227C240.46 231.798 240.846 231.252 241.318 230.566C242.336 229.13 243.826 227.072 245.701 224.542C249.442 219.494 254.736 212.592 260.781 205.144C266.825 197.695 272.484 191.104 276.664 186.399C278.754 184.051 280.458 182.154 281.659 180.868C282.227 180.257 282.687 179.775 283.041 179.389C283.352 179.057 283.523 178.886 283.545 178.896Z" fill="#FAFAFA"/>
<path d="M280.008 178.682C280.019 178.693 279.869 178.886 279.579 179.228C279.236 179.614 278.797 180.107 278.261 180.708C277.061 182.036 275.4 183.869 273.374 186.12C269.248 190.686 263.589 197.052 257.491 204.19C251.382 211.338 245.991 217.919 242.122 222.699C240.225 225.057 238.67 226.975 237.534 228.379C237.02 229.012 236.602 229.515 236.28 229.912C235.991 230.255 235.83 230.437 235.809 230.426C235.798 230.416 235.927 230.212 236.184 229.848C236.484 229.44 236.881 228.904 237.363 228.251C238.392 226.868 239.914 224.885 241.811 222.463C245.605 217.608 250.964 210.985 257.073 203.836C263.182 196.687 268.894 190.364 273.095 185.863C275.196 183.612 276.911 181.801 278.122 180.568C278.69 179.989 279.161 179.518 279.515 179.153C279.815 178.832 279.987 178.671 280.008 178.682Z" fill="#FAFAFA"/>
<path d="M316.662 250.125C316.534 250.211 312.504 244.756 307.659 237.929C302.815 231.102 298.989 225.507 299.107 225.411C299.235 225.325 303.265 230.78 308.11 237.607C312.954 244.434 316.791 250.039 316.662 250.125Z" fill="#455A64"/>
<path d="M371.365 131.3C371.247 132.532 369.114 135.49 366.488 137.044C363.895 138.566 362.951 139.241 357.378 141.953C351.43 144.836 304.948 161.502 304.948 161.502L309.042 152.381L308.035 146.422C320.842 143.635 356.017 133.143 365.084 127.109C366.949 125.866 368.192 123.143 366.531 121.246L366.735 120.603C366.735 120.603 367.603 120.41 370.347 125.115C371.708 127.441 371.504 129.788 371.365 131.3Z" fill="#498794"/>
<g opacity="0.3">
<path opacity="0.3" d="M371.365 131.3C371.247 132.532 369.114 135.49 366.488 137.044C363.895 138.566 362.951 139.241 357.378 141.953C351.43 144.836 304.948 161.502 304.948 161.502L309.042 152.381L308.035 146.422C320.842 143.635 356.017 133.143 365.084 127.109C366.949 125.866 368.192 123.143 366.531 121.246L366.735 120.603C366.735 120.603 367.603 120.41 370.347 125.115C371.708 127.441 371.504 129.788 371.365 131.3Z" fill="#498794"/>
</g>
<path d="M237.149 152.67L282.227 147.129L287.746 150.12L277.222 162.38C277.222 162.38 220.172 167.161 206.454 175.317C193.335 183.119 189.638 202.796 168.835 204.726C148.022 206.655 95.4626 184.78 85.0237 189.678L78.8182 173.355C78.8182 173.355 110.156 173.934 133.338 182.294C156.521 190.653 163.83 192.54 175.684 182.294C187.537 172.048 197.655 162.252 218.222 157.354C230.804 154.374 237.149 152.67 237.149 152.67Z" fill="#498794"/>
<g opacity="0.3">
<path opacity="0.3" d="M237.149 152.67L282.227 147.129L287.746 150.12L277.222 162.38C277.222 162.38 220.172 167.161 206.454 175.317C193.335 183.119 189.638 202.796 168.835 204.726C148.022 206.655 95.4626 184.78 85.0237 189.678L78.8182 173.355C78.8182 173.355 110.156 173.934 133.338 182.294C156.521 190.653 163.83 192.54 175.684 182.294C187.537 172.048 197.655 162.252 218.222 157.354C230.804 154.374 237.149 152.67 237.149 152.67Z" fill="#498794"/>
</g>
</svg>
