<svg width="409" height="430" viewBox="0 0 409 430" fill="none" xmlns="http://www.w3.org/2000/svg">
<path d="M50.5733 369.277L50.1769 391.76L62.7833 390.764L65.1278 367.726L50.5733 369.277Z" fill="#FFC5B3"/>
<path d="M76.5337 399.621C79.1162 399.293 81.0417 400.233 81.8685 401.614C82.7067 402.996 80.7585 407.414 75.7295 408.603C69.5 410.087 66.17 409.69 62.9759 409.033C57.5505 407.912 54.8322 404.254 51.2643 404.514C47.6965 404.775 45.0121 403.064 45.284 400.142C45.5558 397.22 48.0363 394.853 49.0104 394.773C49.9958 394.671 76.5337 399.621 76.5337 399.621Z" fill="white"/>
<path d="M67.3365 389.495C66.6569 388.261 64.301 385.724 63.1004 385.735C55.2625 385.859 57.2559 389.122 55.1379 389.654C51.8985 390.458 50.7206 389.461 50.1316 387.842C50.1316 387.842 48.5912 387.23 48.5119 389.156C48.4326 391.081 46.7223 391.024 46.5298 394.57C46.3372 398.103 49.7352 401.547 53.926 402.238C58.1168 402.94 62.149 406.927 68.6957 407.267C76.8054 407.686 80.5885 405.817 81.5626 403.2C82.5366 400.573 79.4219 397.854 73.2263 394.411C68.152 391.613 68.0727 390.854 67.3365 389.495Z" fill="#263F62"/>
<path d="M34.5012 204.364C34.5012 204.364 41.1952 260.169 41.7955 272.017C42.09 277.737 45.5898 292.371 46.6772 317.776C47.8325 344.925 49.758 381.272 49.758 381.272C49.758 381.272 63.7915 383.435 63.7915 383.028C63.7915 382.801 71.4255 338.22 75.7296 309.156C79.0483 286.753 78.9237 266.863 80.0337 251.561C82.163 222.396 79.5353 178.913 79.5353 178.913L54.753 168.47L34.5012 204.364Z" fill="#263F62"/>
<path d="M52.9748 335.604C54.6398 316.009 57.3355 296.901 54.6398 277.227C51.7968 256.5 59.5554 217.718 54.7417 197.489C53.5524 192.505 36.2682 207.23 35.7132 202.246L34.5239 204.353C34.5239 204.353 41.2179 260.158 41.8182 272.006C42.1013 277.726 45.6125 292.359 46.6999 317.765C47.8552 344.914 49.7807 381.261 49.7807 381.261C49.7807 381.261 50.5396 381.374 51.6835 381.544C50.9247 366.253 51.6722 350.872 52.9748 335.604Z" fill="#2F4563"/>
<path d="M6.18494 374.306L5.78851 396.79L18.3949 395.793L20.7508 372.743L6.18494 374.306Z" fill="#FFC5B3"/>
<path d="M64.2785 164.937C64.2785 164.937 62.3417 173.522 59.612 185.573C55.138 205.372 48.512 234.515 44.7969 250.293C42.2032 261.314 37.2875 287.931 32.553 314.548C26.3801 349.241 20.5243 383.911 20.5243 383.911L10.2172 384.296L4.0556 384.84C4.0556 384.84 4.74651 338.254 3.72713 285.054C3.25142 260.407 -0.0559136 228.886 0.000718794 216.381C0.136637 176.909 12.2333 153.848 12.2333 153.848L64.2785 164.937Z" fill="#263F62"/>
<path d="M64.2785 164.937C64.2785 164.937 62.3417 173.522 59.612 185.573C43.3019 188.065 25.3154 190.229 19.0632 190.229C9.29976 190.229 13.819 232.261 16.8092 255.537C19.8107 278.802 15.3141 309.587 10.8062 329.85C7.40824 345.163 9.14119 372.041 10.2059 384.274L4.04427 384.817C4.04427 384.817 4.73519 338.232 3.7158 285.031C3.25142 260.407 -0.0559136 228.886 0.000718801 216.381C0.136637 176.909 12.2333 153.848 12.2333 153.848L64.2785 164.937Z" fill="#2F4563"/>
<path d="M32.1452 404.639C34.7276 404.31 36.6531 405.25 37.4799 406.632C38.3181 408.014 36.3699 412.431 31.341 413.621C25.1114 415.104 21.7814 414.708 18.5874 414.051C13.162 412.93 10.4436 409.271 6.8758 409.532C3.30796 409.792 0.623583 408.082 0.895419 405.16C1.16725 402.238 3.64775 399.87 4.62183 399.791C5.60723 399.7 32.1452 404.639 32.1452 404.639Z" fill="white"/>
<path d="M22.9483 394.524C22.2687 393.29 19.9128 390.752 18.7122 390.764C10.8743 390.888 12.8678 394.15 10.7497 394.683C7.51034 395.487 6.33239 394.49 5.74341 392.87C5.74341 392.87 4.20301 392.259 4.12372 394.184C4.04444 396.11 2.33414 396.053 2.14159 399.598C1.94904 403.144 5.34698 406.575 9.53778 407.266C13.7286 407.969 17.7608 411.956 24.3075 412.295C32.4173 412.714 36.2003 410.846 37.1744 408.229C38.1485 405.601 35.0337 402.883 28.8381 399.44C23.7752 396.631 23.6959 395.883 22.9483 394.524Z" fill="#263F62"/>
<path d="M100.693 81.0866C102.415 77.7453 103.864 69.7148 103.864 69.7148L116.244 74.4267C119.201 84.5525 141.061 124.127 145.523 130.379C147.585 133.268 191.282 155.015 191.282 155.015L189.04 167.723C189.04 167.723 147.958 161.459 128.681 149.601C123.278 146.271 121.715 141.525 118.317 137.073C112.529 129.485 98.7562 116.199 95.7434 103.524C92.7192 90.8274 96.5249 89.1737 100.693 81.0866Z" fill="#498794"/>
<path d="M88.7891 31.4199C88.7891 31.4199 88.3247 32.8584 85.5723 37.423C82.82 41.9875 77.4513 46.9485 75.5371 47.9226C73.6342 48.8967 64.3239 51.6037 61.968 51.751C61.968 51.751 70.7233 78.1643 84.0659 83.7369C109.584 94.3838 106.866 66.4641 106.866 66.4641C106.866 66.4641 100.308 59.1471 98.5751 55.3414C97.5444 53.0762 100.557 44.4114 100.557 44.4114L88.7891 31.4199Z" fill="#FFBCAA"/>
<path d="M100.58 58.9094C100.58 58.9094 99.7643 70.7002 86.7615 69.0692C71.0404 67.1097 70.1003 49.7576 70.1003 49.7576L53.9714 52.4986L65.0713 86.8744L98.3145 96.2075L109.482 66.4868L100.58 58.9094Z" fill="white"/>
<path d="M92.9117 145.217C96.1511 137.005 116.233 74.4151 116.233 74.4151L101.441 57.0856C101.441 57.0856 100.421 88.8564 85.5721 89.1735C65.3204 81.177 64.3916 50.7881 64.3916 50.7881L38.5106 56.0436C38.5106 56.0436 24.3752 99.7751 18.5873 116.482C12.7995 133.188 4.84833 174.032 4.84833 174.032C40.7986 188.224 75.0725 186.015 83.0916 181.382C83.0803 181.382 89.6723 153.44 92.9117 145.217Z" fill="#42AAAB"/>
<path d="M118.725 16.6389C120.582 18.7682 123.584 23.0043 123.086 25.3376C122.587 27.6709 121.443 34.58 119.982 38.397C118.51 42.2141 115.406 52.2606 113.424 56.6327C111.442 61.0047 110.298 62.3978 108.961 62.8849C107.625 63.3832 95.9473 59.5436 94.0104 57.7427C92.0623 55.9417 83.5221 47.0165 86.8634 37.3776C86.8634 37.3776 81.9477 38.1478 81.0982 28.3618C80.8717 25.802 91.1109 19.2553 92.8438 16.8541C97.0459 11.0096 109.72 16.6502 113.447 17.2052C117.15 17.7715 118.725 16.6389 118.725 16.6389Z" fill="#FFBCAA"/>
<path d="M123.086 25.3376C123.086 25.3376 122.689 21.8604 119.699 22.404C116.709 22.9477 110.932 22.1435 106.798 20.5805C102.653 19.0174 99.1074 16.0385 99.1074 16.0385C99.1074 16.0385 97.3518 22.0642 95.7321 23.3555C94.1125 24.6467 90.941 25.8473 90.2048 27.7501C89.4686 29.653 89.0608 31.6578 89.0608 31.6578C89.0608 31.6578 87.4525 27.4783 85.1419 27.5123C82.8313 27.5462 81.7892 31.1254 83.4316 33.3794C85.0626 35.6334 86.8522 37.389 86.8522 37.389L87.8263 52.3173C87.8263 52.3173 82.2083 34.4554 81.0417 28.0106C79.388 18.9608 81.2003 9.49184 86.048 8.67634C86.048 8.67634 88.9023 -1.09842 99.6851 0.102191C110.468 1.3028 127.401 12.5273 127.865 18.0547C128.216 22.5173 123.086 25.3376 123.086 25.3376Z" fill="#263238"/>
<path d="M113.854 50.4483C112.54 49.3723 110.524 48.5001 107.149 48.0584C103.275 47.5487 99.6169 48.4775 96.9778 48.4209C94.3388 48.3642 90.2499 42.8029 90.4651 37.219C90.6803 31.6237 91.3486 26.3342 91.3486 26.3342L89.038 27.6028C89.038 27.6028 87.4183 37.3889 85.9685 42.9728C84.5187 48.5568 85.8779 55.33 91.2806 60.4383C96.6833 65.5465 106.401 66.7924 108.712 65.5238C111.023 64.2553 112.778 60.7327 113.798 57.4594C114.205 56.1342 115.066 53.8123 115.202 52.6343C115.259 52.0793 114.353 50.8561 113.854 50.4483Z" fill="#263238"/>
<path d="M112.405 29.7888C110.151 28.9054 108.214 28.7695 105.96 29.7549C104.85 30.2419 104.963 31.1593 106.107 30.7742C107.863 30.1739 110.343 30.2872 112.076 30.9668C113.164 31.3859 113.492 30.2079 112.405 29.7888Z" fill="#263238"/>
<path d="M122.315 34.6027C122.542 34.3196 122.225 33.7306 121.817 33.3795C120.979 32.6546 120.05 32.1449 119.212 32.1335C118.657 32.1335 118.668 32.9037 119.065 33.0623C121.613 34.093 121.964 35.0671 122.315 34.6027Z" fill="#263238"/>
<path d="M109.437 37.4681C109.788 36.5507 109.392 35.7012 108.565 35.2481C107.784 34.829 106.651 35.3161 106.345 36.1202C105.994 37.0377 106.39 37.8872 107.217 38.3402C107.999 38.7706 109.131 38.2723 109.437 37.4681Z" fill="#263238"/>
<path d="M118.974 38.4196C118.238 37.9778 116.969 38.3856 116.935 39.371C116.935 39.405 116.935 39.4276 116.935 39.4616C116.913 40.0053 117.06 40.5036 117.57 40.7868C118.034 41.0586 118.589 41.036 119.031 40.7188L119.099 40.6735C119.892 40.1185 119.767 38.8953 118.974 38.4196Z" fill="#263238"/>
<path d="M110.411 48.9533C109.936 48.5002 112.767 48.4096 113.062 48.3303C114.999 47.8319 113.583 45.8158 113.198 44.7398C112.711 43.4146 113.05 41.9195 113.39 40.5943C113.526 40.0393 114.308 38.4536 114.534 38.5329C114.636 38.5782 113.764 40.0053 113.696 41.5231C113.617 43.1428 114.353 44.8644 114.749 45.4987C115.067 46.0084 115.746 47.3109 115.304 48.353C115.146 48.7154 114.795 49.1798 113.957 49.361C112.246 49.7235 110.785 49.3157 110.411 48.9533Z" fill="#263238"/>
<path d="M98.6541 32.2694C98.6202 32.6771 99.5489 33.1302 99.6962 33.2774C100.002 33.5946 99.8094 33.5832 100.296 36.7207C100.659 39.0426 103.026 40.8209 107.557 41.1833C111.011 41.4551 111.793 38.8614 112.574 37.7854C113.356 36.7093 113.707 36.6301 114.228 36.7433C114.726 36.8566 114.953 37.0718 115.066 38.3404C115.179 39.6089 113.956 42.735 117.377 43.3467C118.385 43.5279 119.585 42.8709 120.65 41.3645C121.386 40.3338 122.077 39.0426 122.304 38.6575C122.949 37.5475 123.153 37.0491 123.278 36.3356C123.402 35.6107 122.36 35.101 120.322 34.7385C118.996 34.512 118.147 34.5347 117.49 34.7385C116.697 34.9877 116.108 35.6673 114.658 35.2482C114.081 35.0897 114.194 34.6479 113.152 33.8324C112.11 33.0169 106.175 31.4652 104.159 31.0121C102.143 30.5591 99.2544 30.174 98.9826 30.8649C98.824 31.2613 98.6994 31.805 98.6541 32.2694ZM116.369 37.2304C116.607 36.2336 117.128 35.7126 119.234 36.0864C122.485 36.664 122.292 37.4342 120.548 40.3112C119.348 42.2933 118.77 42.9502 117.717 42.8596C116.052 42.7124 115.904 41.2286 115.995 39.6656C116.074 38.0798 116.289 37.5588 116.369 37.2304ZM101.927 32.1561C102.471 31.805 106.356 33.0282 108.837 33.7078C111.317 34.3874 112.144 34.6139 112.155 35.5654C112.155 35.9165 111.816 37.1284 111.045 38.5329C110.275 39.9374 109.584 41.104 105.631 40.2319C102.834 39.6202 101.123 38.0572 100.965 35.8032C100.817 33.8437 101.384 32.5072 101.927 32.1561ZM90.4877 30.4118L99.1865 32.9263L101.463 30.5817C101.463 30.5817 93.8857 28.8261 93.0589 28.475C92.232 28.1352 88.1318 28.1465 88.1318 28.1465L90.4877 30.4118Z" fill="#263238"/>
<path d="M189.285 382.006H196.273V335.544H189.285V382.006Z" fill="#94A0FF"/>
<path d="M187.155 335.536H198.391V325.671H187.155V335.536Z" fill="#E1E6FD"/>
<path d="M187.155 386.934H198.391V377.069H187.155V386.934Z" fill="#E1E6FD"/>
<path d="M179.159 325.673H206.399V307.007H179.159V325.673Z" fill="#94A0FF"/>
<path d="M157.586 315.409H230.676C231.48 315.409 232.126 314.763 232.126 313.959V302.882C232.126 302.077 231.48 301.432 230.676 301.432H157.586C156.782 301.432 156.136 302.077 156.136 302.882V313.959C156.136 314.763 156.793 315.409 157.586 315.409Z" fill="#94A0FF"/>
<path d="M165.707 396.359L187.159 385.712V378.305L162.887 394.57L165.707 396.359Z" fill="#94A0FF"/>
<path d="M157.858 398.432C157.858 401.207 160.112 403.461 162.887 403.461C165.662 403.461 167.916 401.207 167.916 398.432C167.916 395.657 165.662 393.403 162.887 393.403C160.112 393.414 157.858 395.657 157.858 398.432Z" fill="#94A0FF"/>
<path d="M187.748 405.228C187.748 408.003 190.002 410.257 192.777 410.257C195.552 410.257 197.806 408.003 197.806 405.228C197.806 402.453 195.552 400.199 192.777 400.199C190.002 400.21 187.748 402.453 187.748 405.228Z" fill="#94A0FF"/>
<path d="M219.848 396.359L198.395 385.712V378.305L222.668 394.57L219.848 396.359Z" fill="#94A0FF"/>
<path d="M227.686 398.432C227.686 401.207 225.432 403.461 222.657 403.461C219.882 403.461 217.628 401.207 217.628 398.432C217.628 395.657 219.882 393.403 222.657 393.403C225.443 393.414 227.686 395.657 227.686 398.432Z" fill="#94A0FF"/>
<path d="M191.414 405.176H194.132V382.002H191.414V405.176Z" fill="#94A0FF"/>
<path d="M139.339 309.213C139.339 309.213 133.019 292.359 132.906 243.565C132.804 194.77 122.259 161.403 123.176 157.212L128.341 152.217H198.984C198.984 152.217 226.825 202.008 230.472 219.077C234.119 236.146 239.227 306.087 239.227 306.087L139.339 309.213Z" fill="#498794"/>
<path d="M145.716 309.213C145.716 309.213 139.396 292.359 139.283 243.565C139.181 194.77 127.424 156.419 128.341 152.217H205.361C205.361 152.217 233.202 202.008 236.849 219.077C240.496 236.146 245.604 306.087 245.604 306.087L145.716 309.213Z" fill="#5BDBC2"/>
<path d="M139.339 309.213L156.136 320.336V301.047L139.339 289.924V309.213Z" fill="#498794"/>
<path d="M156.146 320.337H261.845V301.048H156.146V320.337Z" fill="#498794"/>
<path d="M139.339 289.924H245.049L261.846 301.047H156.136L139.339 289.924Z" fill="#5BDBC2"/>
<path d="M173.137 301.047H261.835L245.038 289.924H161.29C164.121 294.239 168.878 297.921 173.137 301.047Z" fill="#498794"/>
<path d="M262.481 391.681L264.633 405.047C264.633 405.047 267.068 410.075 272.946 409.826C276.072 409.69 281.543 407.878 280.331 406.915C277.262 404.48 276.56 402.419 276.56 402.419L275.608 386.426L262.481 391.681Z" fill="#FFBCAA"/>
<path d="M290.99 412.828C293.323 412.499 295.169 413.247 296.064 414.391C296.959 415.535 297.695 418.355 292.315 420.292C286.935 422.229 281.781 420.779 278.791 420.28C273.717 419.454 271.576 417.143 268.337 417.438C265.086 417.732 262.469 416.35 262.435 413.881C262.401 411.423 264.44 409.384 265.324 409.294C266.219 409.214 290.99 412.828 290.99 412.828Z" fill="white"/>
<path d="M279.312 403.982C277.398 402.577 274.521 404.729 272.629 405.216C269.741 405.964 266.377 404.831 265.686 403.483C264.984 402.113 263.999 402.373 264.112 403.993C264.225 405.613 262.877 406.236 263.047 409.203C263.217 412.182 266.66 414.991 270.557 415.501C274.453 415.999 278.542 419.272 284.567 419.431C292.032 419.624 295.509 418.117 296.143 415.886C296.777 413.655 292.745 411.265 287.41 408.569C282.597 406.134 280.433 404.797 279.312 403.982Z" fill="#263F62"/>
<path d="M228.603 398.613L230.755 411.978C230.755 411.978 233.191 417.007 239.069 416.758C242.15 416.622 248.334 415.603 247.088 414.719C242.739 411.65 242.682 409.35 242.682 409.35L241.731 393.357L228.603 398.613Z" fill="#FFBCAA"/>
<path d="M192.902 112.676C192.902 112.676 192.891 121.998 193.831 126.302C194.76 130.606 196.629 133.755 197.682 134.785C198.735 135.816 209.711 143.88 209.711 143.88C209.711 143.88 198.271 155.581 190.082 155.66C181.893 155.739 164.869 146.406 164.869 146.406C164.869 146.406 173.727 139.259 175.018 135.68C176.309 132.101 176.955 121.771 176.955 121.771L192.902 112.676Z" fill="#FFBCAA"/>
<path d="M230.064 237.652C227.878 229.939 225.998 222.475 225.998 219.088C225.998 210.582 221.853 147.437 221.853 147.437L205.429 139.622L197.693 134.774C197.693 134.774 203.991 149.034 194.522 150.608C179.48 153.112 174.893 133.868 174.893 133.868L171.065 135.839C171.031 135.737 171.008 135.669 170.997 135.646L145.297 148.309C145.297 148.309 154.347 163.147 155.072 171.472C155.797 179.797 148.559 202.597 149.284 219.609C150.009 236.622 152.093 265.153 152.093 265.153C156.737 265.153 226.564 258.482 226.564 258.482C226.564 258.482 227.708 237.97 230.064 237.652Z" fill="white"/>
<path d="M277.533 393.89L265.154 395.872L260.827 396.563C260.827 396.563 252.83 351.767 247.269 335.796C241.708 319.826 235.49 304.75 235.49 304.75C235.49 304.75 218.794 293.945 208.521 290.309C207.547 289.958 206.641 289.686 205.803 289.482C166.466 280.013 174.53 255.401 175.063 239.657C175.063 239.657 214.853 242.613 225.364 249.976C256.24 271.587 266.139 287.897 268.778 296.527C272.267 307.922 272.505 328.581 273.898 344.993C276.242 372.358 277.533 393.89 277.533 393.89Z" fill="#263F62"/>
<path d="M265.154 395.872L260.827 396.563C260.827 396.563 252.83 351.767 247.269 335.796C241.708 319.826 235.49 304.751 235.49 304.751C235.49 304.751 218.794 293.945 208.521 290.309C200.502 275.562 193.027 267.181 193.027 267.181C193.027 267.181 219.621 278.7 232.035 284.907C244.449 291.114 251.539 296.437 254.201 315.941C256.625 333.667 264.168 366.774 265.154 395.872Z" fill="#2F4563"/>
<path d="M242.376 400.505L229.373 403.382L227.301 403.846C227.301 403.846 211.194 323.099 194.114 305.441C188.406 299.54 171.88 294.172 163.08 289.482C149.182 282.064 151.119 272.21 151.991 258.606C152.07 257.281 152.149 255.922 152.195 254.518H195.654C195.654 254.518 224.707 286.447 228.535 295.123C231.31 301.421 235.762 310.119 238.049 326.871C242.376 358.551 242.376 400.505 242.376 400.505Z" fill="#263F62"/>
<path d="M229.373 403.382L227.301 403.846C227.301 403.846 211.194 323.099 194.114 305.441C188.406 299.54 171.88 294.172 163.08 289.482C149.182 282.064 151.119 272.21 151.991 258.606C151.991 258.606 156.555 271.281 157.337 275.675C160.463 293.164 183.331 277.703 200.593 295.485C217.854 313.279 224.945 345.197 225.828 370.025C226.191 380.14 227.731 392.01 229.373 403.382Z" fill="#2F4563"/>
<path d="M256.047 420.62C258.381 420.292 260.227 421.04 261.122 422.183C262.016 423.327 260.668 427.076 256.183 428.175C250.622 429.546 247.541 429.285 244.551 428.798C239.477 427.971 236.634 424.947 233.394 425.242C230.155 425.536 227.527 424.154 227.493 421.685C227.459 419.227 229.498 417.188 230.381 417.098C231.265 417.007 256.047 420.62 256.047 420.62Z" fill="white"/>
<path d="M244.789 411.91C243.124 410.506 239.579 412.522 237.687 413.009C234.799 413.756 231.435 412.624 230.744 411.276C230.042 409.905 229.056 410.166 229.17 411.786C229.283 413.405 227.935 414.028 228.105 416.996C228.275 419.975 231.718 422.784 235.614 423.293C239.511 423.792 243.6 427.065 249.625 427.224C257.089 427.416 260.374 425.762 261.008 423.542C261.643 421.322 258.528 419.102 252.525 416.327C247.598 414.062 245.842 412.805 244.789 411.91Z" fill="#263F62"/>
<path d="M96.0726 266.113L408.989 266.113V258.513L96.0726 258.513V266.113Z" fill="#B7FFF1"/>
<path d="M62.0247 239.657H374.941L409 258.504H96.0834L62.0247 239.657Z" fill="#9DE3D6"/>
<path d="M96.0834 266.116L62.0247 247.257V239.657L96.0834 258.504V266.116Z" fill="#B7FFF1"/>
<path d="M109.573 428.107H114.172L154.981 266.116H145.467L109.573 428.107Z" fill="#66B1C0"/>
<path d="M401.219 423.078H396.609L350.103 266.116H359.605L401.219 423.078Z" fill="#66B1C0"/>
<path d="M88.2793 410.426H92.8778L130.425 266.116H120.911L88.2793 410.426Z" fill="#498794"/>
<path d="M366.446 399.383H361.836L325.546 266.116H335.061L366.446 399.383Z" fill="#498794"/>
<path d="M293.402 231.797L306.948 239.057L312.6 248.945H306.948L299.665 244.516L297.31 248.945L293.402 249.092L288.418 245.128L274.974 234.164L293.402 231.797Z" fill="#FFBCAA"/>
<path d="M251.471 204.443C250.339 202.427 246.069 188.144 241.98 176.32C236.418 178.596 230.834 180.794 225.171 182.719C225.386 187.997 225.907 193.355 226.213 198.712C230.902 208.996 236.056 219.02 240.111 222.056C247.462 227.572 285.054 242.024 285.054 242.024L290.242 231.649C290.242 231.649 253.148 207.433 251.471 204.443Z" fill="#FFBCAA"/>
<path d="M223.132 192.143C229.849 192.143 246.997 188.79 246.997 188.79C246.997 188.79 238.684 166.681 236.611 162.66C231.956 153.633 221.841 147.448 221.841 147.448C221.841 147.448 215.498 156.249 213.596 159.319C205.984 171.631 219.145 186.638 223.132 192.143Z" fill="white"/>
<path d="M224.038 163.475L225.296 190.67C225.715 199.879 225.715 217.446 226.972 222.056" stroke="#A1ADFF" stroke-miterlimit="10" stroke-linecap="round" stroke-linejoin="round"/>
<path d="M223.812 245.649H304.944L265.573 233.088H184.453L223.812 245.649Z" fill="#D1D4FB"/>
<path d="M184.453 233.088L223.812 245.649V250.372L184.453 237.822V233.088Z" fill="#42AAAB"/>
<path d="M206.517 227.866L218.398 228.206L231.718 225.397L245.605 233.088L251.642 237.981L248.47 239.374L244.698 236.86L245.605 239.657L240.36 239.374L238.242 237.981V239.657L234.21 240.733L230.155 237.981L221.49 236.497L212.101 235.625L206.517 227.866Z" fill="#FFBCAA"/>
<path d="M168.777 207.819C166.319 204.262 165.345 196.662 164.36 182.402C156.771 180.091 145.988 178.041 138.558 175.436C139.147 200.558 146.543 222.917 154.2 228.388C164.779 235.942 216.212 235.682 216.212 235.682L218.398 228.206C199.664 225.624 173.092 214.071 168.777 207.819Z" fill="#FFBCAA"/>
<path d="M165.458 193.898C164.632 185.857 164.235 172.786 164.654 168.323C165.719 157.099 150.87 144.719 145.275 148.332C136.78 153.814 137.697 177.067 140.472 197.874C147.97 195.722 157.926 195.541 165.458 193.898Z" fill="white"/>
<path d="M223.805 250.375H304.937V245.64H223.805V250.375Z" fill="#42AAAB"/>
<path d="M227.301 235.863L233.927 237.924L248.039 142.295L244.098 144.356L227.301 235.863Z" fill="#42AAAB"/>
<path d="M233.927 237.924L355.619 233.801L373.05 140.245L248.04 142.295L233.927 237.924Z" fill="#DEE2FF"/>
<path d="M290.967 250.836H310.109L297.219 248.514H278.077L290.967 250.836Z" fill="#E1E6FD"/>
<path d="M310.109 250.836H290.967V255.084H310.109V250.836Z" fill="#42AAAB"/>
<path d="M290.967 255.072L278.077 252.762V248.514L290.967 250.836V255.072Z" fill="#42AAAB"/>
<path d="M286.583 250.032L291.171 251.153L307.492 250.836L310.109 206.754H288.905L286.583 250.032Z" fill="#42AAAB"/>
<path d="M291.171 251.153L310.108 250.836V206.754H290.967L291.171 251.153Z" fill="#DEE1F7"/>
<path d="M140.472 197.874L165.458 193.898C165.458 193.898 165.843 171.245 165.843 165.74" stroke="#B3BAEB" stroke-miterlimit="10" stroke-linecap="round" stroke-linejoin="round"/>
<path d="M165.968 93.4211C162.785 99.2429 163.816 105.291 164.552 109.12C165.299 112.937 166.149 115.293 165.854 120.265C165.56 125.249 166.93 132.463 173.013 136.382C179.095 140.301 190.557 135.114 193.831 128.579C195.813 124.614 199.177 115.496 199.743 112.166C200.309 108.825 202.201 97.6459 197.75 93.0927C193.298 88.5394 185.574 88.5621 177.747 90.0572C169.921 91.5749 167.315 90.9633 165.968 93.4211Z" fill="#FFBCAA"/>
<path d="M182.878 97.9743C182.878 97.9743 186.049 103.468 189.821 104.917C193.049 106.163 192.993 113.809 192.993 113.809L197.772 114.851C198.622 117.58 195.711 124.048 195.711 124.048C195.711 124.048 199.143 121.692 200.343 117.252C201.544 112.812 204.704 108.95 203.243 99.492C201.873 90.6121 194.442 90.4195 194.442 90.4195C194.442 90.4195 193.672 85.4925 184.283 84.122C174.893 82.7515 164.472 88.9018 163.102 94.3725C161.731 99.8318 163.317 105.563 163.317 105.563C163.317 105.563 182.187 102.244 182.878 97.9743Z" fill="#263238"/>
<path d="M179.786 106.345C182.187 106.016 184.101 106.345 186.049 107.828C187.012 108.565 186.684 109.425 185.664 108.78C184.101 107.783 181.666 107.307 179.808 107.557C178.664 107.715 178.63 106.503 179.786 106.345Z" fill="#263238"/>
<path d="M168.108 109.312C167.961 108.984 168.403 108.485 168.878 108.247C169.864 107.738 170.883 107.455 171.699 107.658C172.231 107.783 172.05 108.531 171.619 108.599C168.912 108.984 168.346 109.844 168.108 109.312Z" fill="#263238"/>
<path d="M178.846 112.676C178.721 111.702 179.299 110.966 180.216 110.728C181.066 110.501 182.051 111.249 182.164 112.099C182.289 113.073 181.711 113.809 180.794 114.047C179.944 114.285 178.959 113.526 178.846 112.676Z" fill="#263238"/>
<path d="M170.249 111.306C171.064 111.045 172.208 111.736 172.004 112.71C171.993 112.733 171.993 112.767 171.982 112.789C171.869 113.322 171.608 113.763 171.053 113.933C170.532 114.092 170.011 113.933 169.649 113.526L169.592 113.469C168.946 112.744 169.365 111.577 170.249 111.306Z" fill="#263238"/>
<path d="M176.524 123.595C177.09 123.266 174.361 122.519 174.1 122.371C172.333 121.431 174.179 119.8 174.814 118.849C175.595 117.671 175.629 116.142 175.607 114.771C175.595 114.205 175.21 112.472 174.984 112.506C174.87 112.517 175.38 114.126 175.097 115.61C174.791 117.195 173.67 118.702 173.137 119.223C172.707 119.642 171.733 120.752 171.925 121.862C171.993 122.247 172.231 122.791 173.001 123.153C174.564 123.912 176.071 123.855 176.524 123.595Z" fill="#263238"/>
<path d="M174.372 126.687C176.195 127.899 178.846 127.48 181.451 125.033C181.451 125.033 180.273 127.933 178.189 128.533C176.116 129.122 174.372 126.687 174.372 126.687Z" fill="#E99A98"/>
<path d="M196.153 109.188C198.101 106.322 202.235 106.288 202.552 110.003C202.813 113.095 201.351 113.899 199.358 116.742C197.999 118.668 196.017 117.807 196.017 117.807C196.017 117.807 194.941 110.966 196.153 109.188Z" fill="#FFBCAA"/>
<path d="M198.373 109.539C199.426 108.474 200.593 109.289 201.057 110.377C201.522 111.464 201.023 110.875 200.072 110.32C199.12 109.765 198.373 111.566 198.588 112.653C198.882 114.148 198.531 116.085 197.229 116.323C195.926 116.561 196.561 116.04 196.583 114.42C196.606 112.801 196.504 114.42 196.753 112.812C196.98 111.204 197.467 110.456 198.373 109.539Z" fill="#E89492"/>
<path d="M98.8581 191.667L110.909 201.544C112.971 203.197 116.199 203.152 118.136 201.442L160.508 163.419C162.422 161.72 162.343 159.001 160.304 157.348L148.491 147.46C144.549 145.308 142.148 145.24 140.177 146.973L97.9066 184.611C95.9245 186.366 95.664 188.088 98.8581 191.667Z" fill="#9AEADA"/>
<path d="M99.9454 192.686L112.087 202.654C114.16 204.33 117.411 204.273 119.348 202.563L161.89 164.359C163.815 162.66 163.725 159.93 161.675 158.265L149.748 148.309C147.607 146.565 144.243 146.554 142.261 148.309L99.617 186.31C97.6235 188.077 97.7708 190.931 99.9454 192.686Z" fill="#C2FFF3"/>
<path d="M122.021 183.444L120.979 183.025L123.675 181.417L124.411 179.57L123.595 179.072L125.781 176.818L126.687 174.247C126.687 174.247 120.775 174.134 117.207 173.998C113.639 173.862 110.287 172.967 110.287 172.967C110.287 172.967 113.605 170.43 114.138 169.694C114.67 168.957 117.264 167.61 117.264 167.61L113.005 166.171C113.005 166.171 102.653 170.521 101.577 170.566C100.535 170.611 94.69 173.352 86.4217 169.15C84.1677 172.423 81.8685 175.674 79.5352 178.902C86.8861 181.179 93.127 183.048 95.7774 183.84C104.295 186.4 111.952 188.088 113.141 188.303C114.33 188.518 121.704 185.166 121.636 185.12C121.579 185.075 122.021 183.444 122.021 183.444Z" fill="#FEC4AD"/>
<path d="M35.3733 57.2556C21.9854 66.011 27.8299 109.233 30.0612 119.857C32.7116 132.463 36.0755 144.13 43.6416 153.519C60.7673 174.779 87.5884 183.183 87.5884 183.183L95.0185 170.951C95.0185 170.951 68.8544 152.07 66.1926 132.078C64.6183 120.287 59.9631 86.8517 58.4113 77.9378C56.0441 64.346 42.2371 52.7703 35.3733 57.2556Z" fill="#498794"/>
<path d="M173.024 136.394C176.105 151.492 182.482 169.852 184.362 174.032C188.383 182.957 196.64 184.293 199.313 171.8C202.915 155.003 198.645 134.751 198.645 134.751" stroke="#42AAAB" stroke-miterlimit="10" stroke-linecap="round" stroke-linejoin="round"/>
<path d="M200.819 182.764H183.626V208.487H200.819V182.764Z" fill="#42AAAB"/>
<path d="M185.697 185.067V196.518H198.734V185.067H185.697Z" fill="white"/>
<path d="M192.166 183.931C191.69 183.931 191.305 183.546 191.305 183.07V180.658C191.305 180.182 191.69 179.797 192.166 179.797C192.641 179.797 193.027 180.182 193.027 180.658V183.07C193.027 183.546 192.641 183.931 192.166 183.931Z" fill="#42AAAB"/>
</svg>
